Imprima-Regular.ufo
<glyph name="exclam" format="1">
  <advance width="270"/>
  <unicode hex="0021"/>
  <outline>
    <contour>
      <point x="102" y="180" type="line" name="hr00"/>
      <point x="168" y="180" type="line"/>
      <point x="178" y="660" type="line"/>
      <point x="92" y="660" type="line"/>
    </contour>
    <contour>
      <point x="80" y="41" type="curve" smooth="yes"/>
      <point x="80" y="7" smooth="yes"/>
      <point x="101" y="-14" smooth="yes"/>
      <point x="135" y="-14" type="curve" smooth="yes"/>
      <point x="168" y="-14" smooth="yes"/>
      <point x="190" y="8" smooth="yes"/>
      <point x="190" y="41" type="curve" smooth="yes"/>
      <point x="190" y="74" smooth="yes"/>
      <point x="168" y="96" smooth="yes"/>
      <point x="135" y="96" type="curve" smooth="yes"/>
      <point x="101" y="96" smooth="yes"/>
      <point x="80" y="74" smooth="yes"/>
    </contour>
  </outline>
</glyph>
<glyph name="quotedbl" format="1">
  <advance width="303"/>
  <unicode hex="0022"/>
  <outline>
    <contour>
      <point x="191" y="457" type="line" name="hr00"/>
      <point x="253" y="457" type="line"/>
      <point x="263" y="680" type="line"/>
      <point x="181" y="680" type="line"/>
    </contour>
    <contour>
      <point x="50" y="457" type="line"/>
      <point x="112" y="457" type="line"/>
      <point x="122" y="680" type="line"/>
      <point x="40" y="680" type="line"/>
    </contour>
  </outline>
</glyph>
<glyph name="numbersign" format="1">
  <advance width="518"/>
  <unicode hex="0023"/>
  <outline>
    <contour>
      <point x="290" y="-26" type="line" name="hr00"/>
      <point x="357" y="-26" type="line"/>
      <point x="385" y="171" type="line"/>
      <point x="492" y="171" type="line"/>
      <point x="501" y="233" type="line"/>
      <point x="394" y="233" type="line"/>
      <point x="416" y="386" type="line"/>
      <point x="524" y="386" type="line"/>
      <point x="532" y="449" type="line"/>
      <point x="425" y="449" type="line"/>
      <point x="454" y="646" type="line"/>
      <point x="386" y="646" type="line"/>
      <point x="358" y="449" type="line"/>
      <point x="199" y="449" type="line"/>
      <point x="228" y="646" type="line"/>
      <point x="160" y="646" type="line"/>
      <point x="131" y="449" type="line"/>
      <point x="25" y="449" type="line"/>
      <point x="17" y="386" type="line"/>
      <point x="122" y="386" type="line"/>
      <point x="100" y="233" type="line"/>
      <point x="-6" y="233" type="line"/>
      <point x="-14" y="171" type="line"/>
      <point x="91" y="171" type="line"/>
      <point x="63" y="-26" type="line"/>
      <point x="131" y="-26" type="line"/>
      <point x="159" y="171" type="line"/>
      <point x="318" y="171" type="line"/>
    </contour>
    <contour>
      <point x="190" y="386" type="line"/>
      <point x="349" y="386" type="line"/>
      <point x="327" y="233" type="line"/>
      <point x="168" y="233" type="line"/>
    </contour>
  </outline>
</glyph>
<glyph name="dollar" format="1">
  <advance width="518"/>
  <unicode hex="0024"/>
  <outline>
    <contour>
      <point x="208" y="-85" type="line" name="hr00"/>
      <point x="261" y="-85" type="line"/>
      <point x="266" y="-14" type="line"/>
      <point x="378" y="-1" smooth="yes"/>
      <point x="456" y="73" smooth="yes"/>
      <point x="456" y="176" type="curve" smooth="yes"/>
      <point x="456" y="254" smooth="yes"/>
      <point x="412" y="312" smooth="yes"/>
      <point x="336" y="337" type="curve" smooth="yes"/>
      <point x="291" y="351" type="line"/>
      <point x="306" y="562" type="line"/>
      <point x="344" y="557"/>
      <point x="386" y="542"/>
      <point x="406" y="527" type="curve"/>
      <point x="438" y="589" type="line"/>
      <point x="403" y="612"/>
      <point x="356" y="628"/>
      <point x="311" y="634" type="curve"/>
      <point x="316" y="705" type="line"/>
      <point x="263" y="705" type="line"/>
      <point x="258" y="635" type="line"/>
      <point x="144" y="629" smooth="yes"/>
      <point x="75" y="566" smooth="yes"/>
      <point x="75" y="465" type="curve" smooth="yes"/>
      <point x="75" y="390" smooth="yes"/>
      <point x="118" y="328" smooth="yes"/>
      <point x="185" y="307" type="curve" smooth="yes"/>
      <point x="234" y="291" type="line"/>
      <point x="218" y="55" type="line"/>
      <point x="170" y="57"/>
      <point x="118" y="70"/>
      <point x="94" y="87" type="curve"/>
      <point x="61" y="27" type="line"/>
      <point x="96" y="2"/>
      <point x="152" y="-12"/>
      <point x="213" y="-15" type="curve"/>
    </contour>
    <contour>
      <point x="306" y="268" type="line" smooth="yes"/>
      <point x="357" y="251" smooth="yes"/>
      <point x="381" y="220" smooth="yes"/>
      <point x="381" y="172" type="curve" smooth="yes"/>
      <point x="381" y="113"/>
      <point x="337" y="70"/>
      <point x="271" y="58" type="curve"/>
      <point x="286" y="274" type="line"/>
    </contour>
    <contour>
      <point x="149" y="468" type="curve" smooth="yes"/>
      <point x="149" y="521"/>
      <point x="188" y="557"/>
      <point x="253" y="564" type="curve"/>
      <point x="240" y="367" type="line"/>
      <point x="220" y="374" type="line" smooth="yes"/>
      <point x="176" y="388" smooth="yes"/>
      <point x="149" y="423" smooth="yes"/>
    </contour>
  </outline>
</glyph>
<glyph name="percent" format="1">
  <advance width="770"/>
  <unicode hex="0025"/>
  <outline>
    <contour>
      <point x="215" y="-85" type="line" name="hr00"/>
      <point x="289" y="-85" type="line"/>
      <point x="555" y="705" type="line"/>
      <point x="481" y="705" type="line"/>
    </contour>
    <contour>
      <point x="291" y="420" type="curve" smooth="yes"/>
      <point x="291" y="544" smooth="yes"/>
      <point x="240" y="616" smooth="yes"/>
      <point x="153" y="616" type="curve" smooth="yes"/>
      <point x="67" y="616" smooth="yes"/>
      <point x="15" y="542" smooth="yes"/>
      <point x="15" y="420" type="curve" smooth="yes"/>
      <point x="15" y="298" smooth="yes"/>
      <point x="67" y="224" smooth="yes"/>
      <point x="153" y="224" type="curve" smooth="yes"/>
      <point x="240" y="224" smooth="yes"/>
      <point x="291" y="296" smooth="yes"/>
    </contour>
    <contour>
      <point x="221" y="420" type="curve" smooth="yes"/>
      <point x="221" y="338" smooth="yes"/>
      <point x="196" y="289" smooth="yes"/>
      <point x="153" y="289" type="curve" smooth="yes"/>
      <point x="111" y="289" smooth="yes"/>
      <point x="85" y="339" smooth="yes"/>
      <point x="85" y="420" type="curve" smooth="yes"/>
      <point x="85" y="501" smooth="yes"/>
      <point x="111" y="551" smooth="yes"/>
      <point x="153" y="551" type="curve" smooth="yes"/>
      <point x="196" y="551" smooth="yes"/>
      <point x="221" y="502" smooth="yes"/>
    </contour>
    <contour>
      <point x="479" y="200" type="curve" smooth="yes"/>
      <point x="479" y="76" smooth="yes"/>
      <point x="530" y="4" smooth="yes"/>
      <point x="617" y="4" type="curve" smooth="yes"/>
      <point x="703" y="4" smooth="yes"/>
      <point x="755" y="78" smooth="yes"/>
      <point x="755" y="200" type="curve" smooth="yes"/>
      <point x="755" y="322" smooth="yes"/>
      <point x="703" y="396" smooth="yes"/>
      <point x="617" y="396" type="curve" smooth="yes"/>
      <point x="530" y="396" smooth="yes"/>
      <point x="479" y="324" smooth="yes"/>
    </contour>
    <contour>
      <point x="549" y="200" type="curve" smooth="yes"/>
      <point x="549" y="282" smooth="yes"/>
      <point x="574" y="331" smooth="yes"/>
      <point x="617" y="331" type="curve" smooth="yes"/>
      <point x="659" y="331" smooth="yes"/>
      <point x="685" y="281" smooth="yes"/>
      <point x="685" y="200" type="curve" smooth="yes"/>
      <point x="685" y="119" smooth="yes"/>
      <point x="659" y="69" smooth="yes"/>
      <point x="617" y="69" type="curve" smooth="yes"/>
      <point x="574" y="69" smooth="yes"/>
      <point x="549" y="118" smooth="yes"/>
    </contour>
  </outline>
</glyph>
<glyph name="ampersand" format="1">
  <advance width="606"/>
  <unicode hex="0026"/>
  <outline>
    <contour>
      <point x="606" y="378" type="line"/>
      <point x="312" y="378" type="line" smooth="yes"/>
      <point x="215" y="378" smooth="yes"/>
      <point x="147" y="425" smooth="yes"/>
      <point x="147" y="491" type="curve" smooth="yes"/>
      <point x="147" y="554" smooth="yes"/>
      <point x="192" y="592" smooth="yes"/>
      <point x="267" y="592" type="curve" smooth="yes"/>
      <point x="306" y="592"/>
      <point x="350" y="575"/>
      <point x="383" y="548" type="curve"/>
      <point x="417" y="618" type="line"/>
      <point x="374" y="647" smooth="yes"/>
      <point x="319" y="664" smooth="yes"/>
      <point x="267" y="664" type="curve" smooth="yes"/>
      <point x="142" y="664" smooth="yes"/>
      <point x="67" y="599" smooth="yes"/>
      <point x="67" y="491" type="curve" smooth="yes"/>
      <point x="67" y="434"/>
      <point x="97" y="382"/>
      <point x="145" y="353" type="curve"/>
      <point x="77" y="323" smooth="yes"/>
      <point x="35" y="260" smooth="yes"/>
      <point x="35" y="188" type="curve" smooth="yes" name="hr01"/>
      <point x="35" y="62" smooth="yes"/>
      <point x="116" y="-14" smooth="yes"/>
      <point x="251" y="-14" type="curve" smooth="yes"/>
      <point x="411" y="-14"/>
      <point x="486" y="86"/>
      <point x="493" y="310" type="curve"/>
      <point x="606" y="310" type="line"/>
    </contour>
    <contour>
      <point x="251" y="58" type="curve" smooth="yes"/>
      <point x="166" y="58" smooth="yes"/>
      <point x="115" y="107" smooth="yes"/>
      <point x="115" y="188" type="curve" smooth="yes"/>
      <point x="115" y="258" smooth="yes"/>
      <point x="173" y="310" smooth="yes"/>
      <point x="251" y="310" type="curve" smooth="yes"/>
      <point x="417" y="310" type="line"/>
      <point x="417" y="142" smooth="yes"/>
      <point x="362" y="58" smooth="yes"/>
    </contour>
  </outline>
</glyph>
<glyph name="quotesingle" format="1">
  <advance width="162"/>
  <unicode hex="0027"/>
  <outline>
    <contour>
      <point x="50" y="457" type="line" name="hr00"/>
      <point x="112" y="457" type="line"/>
      <point x="122" y="680" type="line"/>
      <point x="40" y="680" type="line"/>
    </contour>
  </outline>
</glyph>
<glyph name="parenleft" format="1">
  <advance width="246"/>
  <unicode hex="0028"/>
  <outline>
    <contour>
      <point x="231" y="-50" type="line" name="hr00"/>
      <point x="180" y="21" smooth="yes"/>
      <point x="138" y="185" smooth="yes"/>
      <point x="138" y="310" type="curve" smooth="yes"/>
      <point x="138" y="435"/>
      <point x="180" y="599"/>
      <point x="231" y="670" type="curve"/>
      <point x="175" y="713" type="line"/>
      <point x="104" y="617" smooth="yes"/>
      <point x="60" y="462" smooth="yes"/>
      <point x="60" y="310" type="curve" smooth="yes"/>
      <point x="60" y="157"/>
      <point x="105" y="1"/>
      <point x="175" y="-93" type="curve"/>
    </contour>
  </outline>
</glyph>
<glyph name="parenright" format="1">
  <advance width="246"/>
  <unicode hex="0029"/>
  <outline>
    <contour>
      <point x="15" y="-50" type="line" name="hr00"/>
      <point x="66" y="21" smooth="yes"/>
      <point x="108" y="185" smooth="yes"/>
      <point x="108" y="310" type="curve" smooth="yes"/>
      <point x="108" y="435"/>
      <point x="66" y="599"/>
      <point x="15" y="670" type="curve"/>
      <point x="71" y="713" type="line"/>
      <point x="142" y="617" smooth="yes"/>
      <point x="186" y="462" smooth="yes"/>
      <point x="186" y="310" type="curve" smooth="yes"/>
      <point x="186" y="157"/>
      <point x="141" y="1"/>
      <point x="71" y="-93" type="curve"/>
    </contour>
  </outline>
</glyph>
<glyph name="asterisk" format="1">
  <advance width="433"/>
  <unicode hex="002A"/>
  <outline>
    <contour>
      <point x="283" y="486" type="line" name="hr00"/>
      <point x="217" y="438" type="line"/>
      <point x="306" y="340" type="line"/>
      <point x="349" y="370" type="line"/>
      <point x="283" y="486" type="line"/>
      <point x="403" y="540" type="line"/>
      <point x="388" y="590" type="line"/>
      <point x="257" y="563" type="line"/>
    </contour>
    <contour>
      <point x="217" y="438" type="line"/>
      <point x="151" y="486" type="line"/>
      <point x="85" y="371" type="line"/>
      <point x="127" y="340" type="line"/>
    </contour>
    <contour>
      <point x="151" y="486" type="line"/>
      <point x="176" y="563" type="line"/>
      <point x="46" y="590" type="line"/>
      <point x="30" y="541" type="line"/>
    </contour>
    <contour>
      <point x="176" y="563" type="line"/>
      <point x="257" y="563" type="line"/>
      <point x="242" y="695" type="line"/>
      <point x="191" y="695" type="line"/>
    </contour>
  </outline>
</glyph>
<glyph name="plus" format="1">
  <advance width="518"/>
  <unicode hex="002B"/>
  <outline>
    <contour>
      <point x="47" y="275" type="line" name="hr00"/>
      <point x="223" y="275" type="line"/>
      <point x="223" y="99" type="line"/>
      <point x="295" y="99" type="line"/>
      <point x="295" y="275" type="line"/>
      <point x="471" y="275" type="line"/>
      <point x="471" y="347" type="line"/>
      <point x="295" y="347" type="line"/>
      <point x="295" y="523" type="line"/>
      <point x="223" y="523" type="line"/>
      <point x="223" y="347" type="line"/>
      <point x="47" y="347" type="line"/>
    </contour>
  </outline>
</glyph>
<glyph name="comma" format="1">
  <advance width="210"/>
  <unicode hex="002C"/>
  <outline>
    <contour>
      <point x="33" y="-126" type="line" name="hr00"/>
      <point x="66" y="-136" type="line"/>
      <point x="160" y="73" type="line"/>
      <point x="151" y="86" smooth="yes"/>
      <point x="129" y="96" smooth="yes"/>
      <point x="108" y="96" type="curve" smooth="yes"/>
      <point x="73" y="96" smooth="yes"/>
      <point x="52" y="77" smooth="yes"/>
      <point x="49" y="41" type="curve" smooth="yes"/>
    </contour>
  </outline>
</glyph>
<glyph name="hyphen" format="1">
  <advance width="408"/>
  <unicode hex="002D"/>
  <outline>
    <contour>
      <point x="358" y="220" type="line" name="hr00"/>
      <point x="358" y="292" type="line"/>
      <point x="50" y="292" type="line"/>
      <point x="50" y="220" type="line"/>
    </contour>
  </outline>
</glyph>
<glyph name="period" format="1">
  <advance width="210"/>
  <unicode hex="002E"/>
  <outline>
    <contour>
      <point x="50" y="41" type="curve" smooth="yes" name="hr00"/>
      <point x="50" y="7" smooth="yes"/>
      <point x="71" y="-14" smooth="yes"/>
      <point x="105" y="-14" type="curve" smooth="yes"/>
      <point x="138" y="-14" smooth="yes"/>
      <point x="160" y="8" smooth="yes"/>
      <point x="160" y="41" type="curve" smooth="yes"/>
      <point x="160" y="74" smooth="yes"/>
      <point x="138" y="96" smooth="yes"/>
      <point x="105" y="96" type="curve" smooth="yes"/>
      <point x="71" y="96" smooth="yes"/>
      <point x="50" y="74" smooth="yes"/>
    </contour>
  </outline>
</glyph>
<glyph name="zero" format="1">
  <advance width="518"/>
  <unicode hex="0030"/>
  <outline>
    <contour>
      <point x="29" y="310" type="curve" smooth="yes" name="hr00"/>
      <point x="29" y="104" smooth="yes"/>
      <point x="114" y="-16" smooth="yes"/>
      <point x="259" y="-16" type="curve" smooth="yes"/>
      <point x="402" y="-16" smooth="yes"/>
      <point x="489" y="107" smooth="yes"/>
      <point x="489" y="310" type="curve" smooth="yes"/>
      <point x="489" y="513" smooth="yes"/>
      <point x="402" y="636" smooth="yes"/>
      <point x="259" y="636" type="curve" smooth="yes"/>
      <point x="114" y="636" smooth="yes"/>
      <point x="29" y="516" smooth="yes"/>
    </contour>
    <contour>
      <point x="107" y="310" type="curve" smooth="yes"/>
      <point x="107" y="469" smooth="yes"/>
      <point x="164" y="563" smooth="yes"/>
      <point x="259" y="563" type="curve" smooth="yes"/>
      <point x="353" y="563" smooth="yes"/>
      <point x="411" y="466" smooth="yes"/>
      <point x="411" y="310" type="curve" smooth="yes"/>
      <point x="411" y="154" smooth="yes"/>
      <point x="353" y="57" smooth="yes"/>
      <point x="259" y="57" type="curve" smooth="yes"/>
      <point x="164" y="57" smooth="yes"/>
      <point x="107" y="151" smooth="yes"/>
    </contour>
  </outline>
</glyph>
<glyph name="one" format="1">
  <advance width="518"/>
  <unicode hex="0031"/>
  <outline>
    <contour>
      <point x="103" y="500" type="line" name="hr00"/>
      <point x="240" y="539" type="line"/>
      <point x="240" y="72" type="line"/>
      <point x="112" y="72" type="line"/>
      <point x="112" y="0" type="line"/>
      <point x="432" y="0" type="line"/>
      <point x="432" y="72" type="line"/>
      <point x="320" y="72" type="line"/>
      <point x="320" y="620" type="line"/>
      <point x="240" y="620" type="line"/>
      <point x="85" y="570" type="line"/>
    </contour>
  </outline>
</glyph>
<glyph name="two" format="1">
  <advance width="518"/>
  <unicode hex="0032"/>
  <outline>
    <contour>
      <point x="52" y="63" type="line" name="hr00"/>
      <point x="52" y="0" type="line"/>
      <point x="438" y="0" type="line"/>
      <point x="438" y="72" type="line"/>
      <point x="161" y="72" type="line"/>
      <point x="337" y="271" type="line" smooth="yes"/>
      <point x="403" y="346" smooth="yes"/>
      <point x="432" y="408" smooth="yes"/>
      <point x="432" y="468" type="curve" smooth="yes"/>
      <point x="432" y="571" smooth="yes"/>
      <point x="352" y="636" smooth="yes"/>
      <point x="227" y="636" type="curve" smooth="yes"/>
      <point x="171" y="636"/>
      <point x="108" y="618"/>
      <point x="65" y="589" type="curve"/>
      <point x="97" y="527" type="line"/>
      <point x="121" y="546" smooth="yes"/>
      <point x="185" y="565" smooth="yes"/>
      <point x="227" y="565" type="curve" smooth="yes"/>
      <point x="304" y="565" smooth="yes"/>
      <point x="352" y="528" smooth="yes"/>
      <point x="352" y="468" type="curve" smooth="yes"/>
      <point x="352" y="418" smooth="yes"/>
      <point x="332" y="380" smooth="yes"/>
      <point x="272" y="312" type="curve" smooth="yes"/>
    </contour>
  </outline>
</glyph>
<glyph name="three" format="1">
  <advance width="518"/>
  <unicode hex="0033"/>
  <outline>
    <contour>
      <point x="46" y="27" type="line"/>
      <point x="85" y="0" smooth="yes"/>
      <point x="150" y="-16" smooth="yes"/>
      <point x="218" y="-16" type="curve" smooth="yes"/>
      <point x="348" y="-16" smooth="yes"/>
      <point x="441" y="64" smooth="yes"/>
      <point x="441" y="176" type="curve" smooth="yes"/>
      <point x="441" y="247"/>
      <point x="406" y="300"/>
      <point x="344" y="326" type="curve"/>
      <point x="396" y="357" smooth="yes"/>
      <point x="427" y="405" smooth="yes"/>
      <point x="427" y="465" type="curve" smooth="yes" name="hr01"/>
      <point x="427" y="571" smooth="yes"/>
      <point x="351" y="636" smooth="yes"/>
      <point x="226" y="636" type="curve" smooth="yes"/>
      <point x="170" y="636"/>
      <point x="107" y="618"/>
      <point x="64" y="589" type="curve"/>
      <point x="96" y="527" type="line"/>
      <point x="120" y="546" smooth="yes"/>
      <point x="184" y="565" smooth="yes"/>
      <point x="226" y="565" type="curve" smooth="yes"/>
      <point x="303" y="565" smooth="yes"/>
      <point x="351" y="528" smooth="yes"/>
      <point x="351" y="468" type="curve" smooth="yes"/>
      <point x="351" y="397" smooth="yes"/>
      <point x="280" y="349" smooth="yes"/>
      <point x="176" y="349" type="curve" smooth="yes"/>
      <point x="140" y="349" type="line"/>
      <point x="140" y="280" type="line"/>
      <point x="235" y="280" type="line" smooth="yes"/>
      <point x="314" y="280" smooth="yes"/>
      <point x="365" y="239" smooth="yes"/>
      <point x="365" y="174" type="curve" smooth="yes" name="hr02"/>
      <point x="365" y="104" smooth="yes"/>
      <point x="304" y="55" smooth="yes"/>
      <point x="218" y="55" type="curve" smooth="yes"/>
      <point x="167" y="55"/>
      <point x="106" y="69"/>
      <point x="79" y="87" type="curve"/>
    </contour>
  </outline>
</glyph>
<glyph name="four" format="1">
  <advance width="518"/>
  <unicode hex="0034"/>
  <outline>
    <contour>
      <point x="332" y="0" type="line" name="hr00"/>
      <point x="410" y="0" type="line"/>
      <point x="410" y="142" type="line"/>
      <point x="463" y="142" type="line"/>
      <point x="463" y="214" type="line"/>
      <point x="410" y="214" type="line"/>
      <point x="410" y="450" type="line"/>
      <point x="332" y="450" type="line"/>
      <point x="332" y="214" type="line"/>
      <point x="130" y="214" type="line"/>
      <point x="296" y="620" type="line"/>
      <point x="211" y="620" type="line"/>
      <point x="33" y="183" type="line"/>
      <point x="33" y="142" type="line"/>
      <point x="332" y="142" type="line"/>
    </contour>
  </outline>
</glyph>
<glyph name="five" format="1">
  <advance width="518"/>
  <unicode hex="0035"/>
  <outline>
    <contour>
      <point x="109" y="620" type="line" name="hr00"/>
      <point x="96" y="290" type="line"/>
      <point x="243" y="290" type="line" smooth="yes"/>
      <point x="322" y="290" smooth="yes"/>
      <point x="373" y="245" smooth="yes"/>
      <point x="373" y="174" type="curve" smooth="yes"/>
      <point x="373" y="104" smooth="yes"/>
      <point x="312" y="55" smooth="yes"/>
      <point x="226" y="55" type="curve" smooth="yes"/>
      <point x="175" y="55"/>
      <point x="114" y="69"/>
      <point x="87" y="87" type="curve"/>
      <point x="54" y="27" type="line"/>
      <point x="93" y="0" smooth="yes"/>
      <point x="158" y="-16" smooth="yes"/>
      <point x="226" y="-16" type="curve" smooth="yes"/>
      <point x="356" y="-16" smooth="yes"/>
      <point x="449" y="64" smooth="yes"/>
      <point x="449" y="176" type="curve" smooth="yes"/>
      <point x="449" y="294" smooth="yes"/>
      <point x="374" y="361" smooth="yes"/>
      <point x="243" y="361" type="curve" smooth="yes"/>
      <point x="173" y="361" type="line"/>
      <point x="181" y="548" type="line"/>
      <point x="421" y="548" type="line"/>
      <point x="421" y="620" type="line"/>
    </contour>
  </outline>
</glyph>
<glyph name="six" format="1">
  <advance width="518"/>
  <unicode hex="0036"/>
  <outline>
    <contour>
      <point x="309" y="565" type="curve" smooth="yes" name="hr00"/>
      <point x="360" y="565"/>
      <point x="400" y="550"/>
      <point x="428" y="520" type="curve"/>
      <point x="463" y="581" type="line"/>
      <point x="427" y="617" smooth="yes"/>
      <point x="374" y="636" smooth="yes"/>
      <point x="310" y="636" type="curve" smooth="yes"/>
      <point x="152" y="636" smooth="yes"/>
      <point x="50" y="488" smooth="yes"/>
      <point x="50" y="256" type="curve" smooth="yes"/>
      <point x="50" y="89" smooth="yes"/>
      <point x="135" y="-16" smooth="yes"/>
      <point x="270" y="-16" type="curve" smooth="yes"/>
      <point x="398" y="-16" smooth="yes"/>
      <point x="482" y="66" smooth="yes"/>
      <point x="482" y="192" type="curve" smooth="yes"/>
      <point x="482" y="304" smooth="yes"/>
      <point x="403" y="378" smooth="yes"/>
      <point x="283" y="378" type="curve" smooth="yes"/>
      <point x="230" y="378"/>
      <point x="176" y="355"/>
      <point x="130" y="316" type="curve"/>
      <point x="142" y="468" smooth="yes"/>
      <point x="210" y="565" smooth="yes"/>
    </contour>
    <contour>
      <point x="281" y="308" type="curve" smooth="yes"/>
      <point x="356" y="308" smooth="yes"/>
      <point x="404" y="259" smooth="yes"/>
      <point x="404" y="184" type="curve" smooth="yes"/>
      <point x="404" y="107" smooth="yes"/>
      <point x="350" y="55" smooth="yes"/>
      <point x="271" y="55" type="curve" smooth="yes"/>
      <point x="187" y="55"/>
      <point x="138" y="115"/>
      <point x="129" y="229" type="curve"/>
      <point x="171" y="282" smooth="yes"/>
      <point x="221" y="308" smooth="yes"/>
    </contour>
  </outline>
</glyph>
<glyph name="seven" format="1">
  <advance width="518"/>
  <unicode hex="0037"/>
  <outline>
    <contour>
      <point x="466" y="620" type="line" name="hr00"/>
      <point x="58" y="620" type="line"/>
      <point x="58" y="548" type="line"/>
      <point x="368" y="548" type="line"/>
      <point x="137" y="0" type="line"/>
      <point x="224" y="0" type="line"/>
      <point x="466" y="579" type="line"/>
    </contour>
  </outline>
</glyph>
<glyph name="eight" format="1">
  <advance width="518"/>
  <unicode hex="0038"/>
  <outline>
    <contour>
      <point x="43" y="163" type="curve" smooth="yes"/>
      <point x="43" y="59" smooth="yes"/>
      <point x="134" y="-16" smooth="yes"/>
      <point x="259" y="-16" type="curve" smooth="yes"/>
      <point x="384" y="-16" smooth="yes"/>
      <point x="475" y="59" smooth="yes"/>
      <point x="475" y="163" type="curve" smooth="yes"/>
      <point x="475" y="240"/>
      <point x="441" y="292"/>
      <point x="367" y="326" type="curve"/>
      <point x="421" y="359" smooth="yes"/>
      <point x="452" y="409" smooth="yes"/>
      <point x="452" y="464" type="curve" smooth="yes" name="hr01"/>
      <point x="452" y="569" smooth="yes"/>
      <point x="377" y="636" smooth="yes"/>
      <point x="259" y="636" type="curve" smooth="yes"/>
      <point x="142" y="636" smooth="yes"/>
      <point x="66" y="568" smooth="yes"/>
      <point x="66" y="464" type="curve" smooth="yes"/>
      <point x="66" y="408"/>
      <point x="95" y="362"/>
      <point x="153" y="329" type="curve"/>
      <point x="82" y="296" smooth="yes"/>
      <point x="43" y="236" smooth="yes"/>
    </contour>
    <contour>
      <point x="399" y="163" type="curve" smooth="yes"/>
      <point x="399" y="100" smooth="yes"/>
      <point x="341" y="55" smooth="yes"/>
      <point x="259" y="55" type="curve" smooth="yes"/>
      <point x="177" y="55" smooth="yes"/>
      <point x="119" y="100" smooth="yes"/>
      <point x="119" y="163" type="curve" smooth="yes"/>
      <point x="119" y="218"/>
      <point x="153" y="265"/>
      <point x="220" y="300" type="curve"/>
      <point x="295" y="273" smooth="yes"/>
      <point x="399" y="266" smooth="yes"/>
    </contour>
    <contour>
      <point x="142" y="466" type="curve" smooth="yes" name="hr03"/>
      <point x="142" y="526" smooth="yes"/>
      <point x="188" y="565" smooth="yes"/>
      <point x="259" y="565" type="curve" smooth="yes"/>
      <point x="330" y="565" smooth="yes"/>
      <point x="376" y="527" smooth="yes"/>
      <point x="376" y="469" type="curve" smooth="yes"/>
      <point x="376" y="418"/>
      <point x="349" y="381"/>
      <point x="291" y="350" type="curve"/>
      <point x="182" y="378" smooth="yes"/>
      <point x="142" y="409" smooth="yes"/>
    </contour>
  </outline>
</glyph>
<glyph name="nine" format="1">
  <advance width="518"/>
  <unicode hex="0039"/>
  <outline>
    <contour>
      <point x="218" y="55" type="curve" smooth="yes" name="hr00"/>
      <point x="158" y="55"/>
      <point x="111" y="70"/>
      <point x="81" y="100" type="curve"/>
      <point x="40" y="39" type="line"/>
      <point x="83" y="2" smooth="yes"/>
      <point x="142" y="-16" smooth="yes"/>
      <point x="217" y="-16" type="curve" smooth="yes"/>
      <point x="369" y="-16" smooth="yes"/>
      <point x="468" y="126" smooth="yes"/>
      <point x="468" y="344" type="curve" smooth="yes"/>
      <point x="468" y="530" smooth="yes"/>
      <point x="388" y="636" smooth="yes"/>
      <point x="248" y="636" type="curve" smooth="yes"/>
      <point x="121" y="636" smooth="yes"/>
      <point x="36" y="552" smooth="yes"/>
      <point x="36" y="426" type="curve" smooth="yes"/>
      <point x="36" y="314" smooth="yes"/>
      <point x="114" y="235" smooth="yes"/>
      <point x="226" y="235" type="curve" smooth="yes"/>
      <point x="282" y="235"/>
      <point x="340" y="257"/>
      <point x="388" y="295" type="curve"/>
      <point x="376" y="148" smooth="yes"/>
      <point x="312" y="55" smooth="yes"/>
    </contour>
    <contour>
      <point x="226" y="305" type="curve" smooth="yes"/>
      <point x="160" y="305" smooth="yes"/>
      <point x="114" y="354" smooth="yes"/>
      <point x="114" y="426" type="curve" smooth="yes"/>
      <point x="114" y="509" smooth="yes"/>
      <point x="168" y="565" smooth="yes"/>
      <point x="248" y="565" type="curve" smooth="yes"/>
      <point x="329" y="565"/>
      <point x="379" y="500"/>
      <point x="388" y="384" type="curve"/>
      <point x="346" y="335" smooth="yes"/>
      <point x="285" y="305" smooth="yes"/>
    </contour>
  </outline>
</glyph>
<glyph name="less" format="1">
  <advance width="518"/>
  <unicode hex="003C"/>
  <outline>
    <contour>
      <point x="70" y="286" type="line" name="hr00"/>
      <point x="406" y="88" type="line"/>
      <point x="443" y="149" type="line"/>
      <point x="169" y="311" type="line"/>
      <point x="443" y="473" type="line"/>
      <point x="406" y="534" type="line"/>
      <point x="70" y="335" type="line"/>
    </contour>
  </outline>
</glyph>
<glyph name="equal" format="1">
  <advance width="518"/>
  <unicode hex="003D"/>
  <outline>
    <contour>
      <point x="471" y="437" type="line" name="hr00"/>
      <point x="47" y="437" type="line"/>
      <point x="47" y="365" type="line"/>
      <point x="471" y="365" type="line"/>
    </contour>
    <contour>
      <point x="47" y="185" type="line"/>
      <point x="471" y="185" type="line"/>
      <point x="471" y="257" type="line"/>
      <point x="47" y="257" type="line"/>
    </contour>
  </outline>
</glyph>
<glyph name="greater" format="1">
  <advance width="518"/>
  <unicode hex="003E"/>
  <outline>
    <contour>
      <point x="448" y="286" type="line" name="hr00"/>
      <point x="112" y="88" type="line"/>
      <point x="75" y="149" type="line"/>
      <point x="349" y="311" type="line"/>
      <point x="75" y="473" type="line"/>
      <point x="112" y="534" type="line"/>
      <point x="448" y="335" type="line"/>
    </contour>
  </outline>
</glyph>
<glyph name="question" format="1">
  <advance width="354"/>
  <unicode hex="003F"/>
  <outline>
    <contour>
      <point x="175" y="180" type="line" name="hr00"/>
      <point x="175" y="247" type="line" smooth="yes"/>
      <point x="175" y="295" smooth="yes"/>
      <point x="198" y="332" smooth="yes"/>
      <point x="255" y="372" type="curve" smooth="yes"/>
      <point x="328" y="424" smooth="yes"/>
      <point x="354" y="463" smooth="yes"/>
      <point x="354" y="525" type="curve" smooth="yes"/>
      <point x="354" y="615" smooth="yes"/>
      <point x="283" y="674" smooth="yes"/>
      <point x="175" y="674" type="curve" smooth="yes"/>
      <point x="109" y="674"/>
      <point x="45" y="650"/>
      <point x="0" y="608" type="curve"/>
      <point x="42" y="552" type="line"/>
      <point x="73" y="585" smooth="yes"/>
      <point x="122" y="604" smooth="yes"/>
      <point x="172" y="604" type="curve" smooth="yes"/>
      <point x="237" y="604" smooth="yes"/>
      <point x="278" y="573" smooth="yes"/>
      <point x="278" y="525" type="curve" smooth="yes"/>
      <point x="278" y="488" smooth="yes"/>
      <point x="262" y="464" smooth="yes"/>
      <point x="212" y="428" type="curve" smooth="yes"/>
      <point x="132" y="369" smooth="yes"/>
      <point x="105" y="323" smooth="yes"/>
      <point x="105" y="247" type="curve" smooth="yes"/>
      <point x="105" y="180" type="line"/>
    </contour>
    <contour>
      <point x="85" y="41" type="curve" smooth="yes"/>
      <point x="85" y="7" smooth="yes"/>
      <point x="106" y="-14" smooth="yes"/>
      <point x="140" y="-14" type="curve" smooth="yes"/>
      <point x="173" y="-14" smooth="yes"/>
      <point x="195" y="8" smooth="yes"/>
      <point x="195" y="41" type="curve" smooth="yes"/>
      <point x="195" y="74" smooth="yes"/>
      <point x="173" y="96" smooth="yes"/>
      <point x="140" y="96" type="curve" smooth="yes"/>
      <point x="106" y="96" smooth="yes"/>
      <point x="85" y="74" smooth="yes"/>
    </contour>
  </outline>
</glyph>
<glyph name="at" format="1">
  <advance width="806"/>
  <unicode hex="0040"/>
  <outline>
    <contour>
      <point x="387" y="118" type="curve" smooth="yes" name="hr00"/>
      <point x="332" y="118" smooth="yes"/>
      <point x="299" y="165" smooth="yes"/>
      <point x="299" y="245" type="curve" smooth="yes"/>
      <point x="299" y="326" smooth="yes"/>
      <point x="346" y="385" smooth="yes"/>
      <point x="412" y="385" type="curve" smooth="yes"/>
      <point x="434" y="385"/>
      <point x="457" y="380"/>
      <point x="479" y="371" type="curve"/>
      <point x="479" y="275" type="line" smooth="yes"/>
      <point x="479" y="182" smooth="yes"/>
      <point x="441" y="118" smooth="yes"/>
    </contour>
    <contour>
      <point x="578" y="15" type="line"/>
      <point x="534" y="-15" smooth="yes"/>
      <point x="478" y="-31" smooth="yes"/>
      <point x="413" y="-31" type="curve" smooth="yes"/>
      <point x="246" y="-31" smooth="yes"/>
      <point x="138" y="79" smooth="yes"/>
      <point x="138" y="250" type="curve" smooth="yes"/>
      <point x="138" y="421" smooth="yes"/>
      <point x="246" y="531" smooth="yes"/>
      <point x="413" y="531" type="curve" smooth="yes"/>
      <point x="564" y="531" smooth="yes"/>
      <point x="668" y="416" smooth="yes"/>
      <point x="668" y="250" type="curve" smooth="yes"/>
      <point x="668" y="173" smooth="yes"/>
      <point x="633" y="119" smooth="yes"/>
      <point x="584" y="119" type="curve" smooth="yes"/>
      <point x="561" y="119" smooth="yes"/>
      <point x="548" y="138" smooth="yes"/>
      <point x="548" y="169" type="curve" smooth="yes"/>
      <point x="548" y="409" type="line"/>
      <point x="516" y="429" smooth="yes"/>
      <point x="458" y="444" smooth="yes"/>
      <point x="411" y="444" type="curve" smooth="yes"/>
      <point x="304" y="444" smooth="yes"/>
      <point x="229" y="362" smooth="yes"/>
      <point x="229" y="245" type="curve" smooth="yes"/>
      <point x="229" y="130" smooth="yes"/>
      <point x="286" y="58" smooth="yes"/>
      <point x="376" y="58" type="curve" smooth="yes"/>
      <point x="418" y="58"/>
      <point x="459" y="88"/>
      <point x="477" y="132" type="curve"/>
      <point x="483" y="132" type="line"/>
      <point x="490" y="91" smooth="yes"/>
      <point x="531" y="58" smooth="yes"/>
      <point x="576" y="58" type="curve" smooth="yes"/>
      <point x="671" y="58" smooth="yes"/>
      <point x="736" y="136" smooth="yes"/>
      <point x="736" y="250" type="curve" smooth="yes"/>
      <point x="736" y="453" smooth="yes"/>
      <point x="605" y="593" smooth="yes"/>
      <point x="413" y="593" type="curve" smooth="yes"/>
      <point x="204" y="593" smooth="yes"/>
      <point x="70" y="458" smooth="yes"/>
      <point x="70" y="250" type="curve" smooth="yes"/>
      <point x="70" y="41" smooth="yes"/>
      <point x="204" y="-93" smooth="yes"/>
      <point x="413" y="-93" type="curve" smooth="yes"/>
      <point x="491" y="-93"/>
      <point x="551" y="-75"/>
      <point x="611" y="-35" type="curve"/>
    </contour>
  </outline>
</glyph>
<glyph name="A" format="1">
  <advance width="556"/>
  <unicode hex="0041"/>
  <outline>
    <contour>
      <point x="473" y="0" type="line" name="hr00"/>
      <point x="556" y="0" type="line"/>
      <point x="327" y="680" type="line"/>
      <point x="229" y="680" type="line"/>
      <point x="0" y="0" type="line"/>
      <point x="83" y="0" type="line"/>
      <point x="149" y="200" type="line"/>
      <point x="407" y="200" type="line"/>
    </contour>
    <contour>
      <point x="278" y="592" type="line"/>
      <point x="383" y="272" type="line"/>
      <point x="172" y="272" type="line"/>
    </contour>
  </outline>
</glyph>
<glyph name="B" format="1">
  <advance width="564"/>
  <unicode hex="0042"/>
  <outline>
    <contour>
      <point x="90" y="0" type="line"/>
      <point x="331" y="0" type="line" smooth="yes"/>
      <point x="444" y="0" smooth="yes"/>
      <point x="534" y="90" smooth="yes"/>
      <point x="534" y="203" type="curve" smooth="yes"/>
      <point x="534" y="281"/>
      <point x="487" y="344"/>
      <point x="416" y="371" type="curve"/>
      <point x="468" y="398" smooth="yes"/>
      <point x="504" y="452" smooth="yes"/>
      <point x="504" y="516" type="curve" smooth="yes" name="hr01"/>
      <point x="504" y="607" smooth="yes"/>
      <point x="431" y="680" smooth="yes"/>
      <point x="340" y="680" type="curve" smooth="yes"/>
      <point x="90" y="680" type="line"/>
    </contour>
    <contour>
      <point x="329" y="334" type="line" smooth="yes"/>
      <point x="400" y="334" smooth="yes"/>
      <point x="458" y="275" smooth="yes"/>
      <point x="458" y="203" type="curve" smooth="yes" name="hr02"/>
      <point x="458" y="131" smooth="yes"/>
      <point x="399" y="72" smooth="yes"/>
      <point x="329" y="72" type="curve" smooth="yes"/>
      <point x="170" y="72" type="line"/>
      <point x="170" y="334" type="line"/>
    </contour>
    <contour>
      <point x="325" y="608" type="line" smooth="yes"/>
      <point x="383" y="608" smooth="yes"/>
      <point x="428" y="563" smooth="yes"/>
      <point x="428" y="507" type="curve" smooth="yes" name="hr03"/>
      <point x="428" y="451" smooth="yes"/>
      <point x="383" y="406" smooth="yes"/>
      <point x="325" y="406" type="curve" smooth="yes"/>
      <point x="170" y="406" type="line"/>
      <point x="170" y="608" type="line"/>
    </contour>
  </outline>
</glyph>
<glyph name="C" format="1">
  <advance width="534"/>
  <unicode hex="0043"/>
  <outline>
    <contour>
      <point x="489" y="99" type="line" name="hr00"/>
      <point x="445" y="72" smooth="yes"/>
      <point x="389" y="57" smooth="yes"/>
      <point x="336" y="57" type="curve" smooth="yes"/>
      <point x="206" y="57" smooth="yes"/>
      <point x="130" y="162" smooth="yes"/>
      <point x="130" y="340" type="curve" smooth="yes"/>
      <point x="130" y="518" smooth="yes"/>
      <point x="206" y="623" smooth="yes"/>
      <point x="336" y="623" type="curve" smooth="yes"/>
      <point x="386" y="623"/>
      <point x="436" y="609"/>
      <point x="479" y="582" type="curve"/>
      <point x="507" y="649" type="line"/>
      <point x="457" y="679" smooth="yes"/>
      <point x="396" y="696" smooth="yes"/>
      <point x="336" y="696" type="curve" smooth="yes"/>
      <point x="156" y="696" smooth="yes"/>
      <point x="50" y="564" smooth="yes"/>
      <point x="50" y="340" type="curve" smooth="yes"/>
      <point x="50" y="116" smooth="yes"/>
      <point x="156" y="-16" smooth="yes"/>
      <point x="336" y="-16" type="curve" smooth="yes"/>
      <point x="402" y="-16"/>
      <point x="469" y="3"/>
      <point x="524" y="37" type="curve"/>
    </contour>
  </outline>
</glyph>
<glyph name="D" format="1">
  <advance width="651"/>
  <unicode hex="0044"/>
  <outline>
    <contour>
      <point x="90" y="0" type="line" name="hr00"/>
      <point x="333" y="0" type="line" smooth="yes"/>
      <point x="513" y="0" smooth="yes"/>
      <point x="621" y="127" smooth="yes"/>
      <point x="621" y="340" type="curve" smooth="yes"/>
      <point x="621" y="553" smooth="yes"/>
      <point x="513" y="680" smooth="yes"/>
      <point x="333" y="680" type="curve" smooth="yes"/>
      <point x="90" y="680" type="line"/>
    </contour>
    <contour>
      <point x="333" y="608" type="line" smooth="yes"/>
      <point x="463" y="608" smooth="yes"/>
      <point x="541" y="508" smooth="yes"/>
      <point x="541" y="340" type="curve" smooth="yes"/>
      <point x="541" y="172" smooth="yes"/>
      <point x="463" y="72" smooth="yes"/>
      <point x="333" y="72" type="curve" smooth="yes"/>
      <point x="170" y="72" type="line"/>
      <point x="170" y="608" type="line"/>
    </contour>
  </outline>
</glyph>
<glyph name="E" format="1">
  <advance width="510"/>
  <unicode hex="0045"/>
  <outline>
    <contour>
      <point x="78" y="0" type="line" name="hr00"/>
      <point x="468" y="0" type="line"/>
      <point x="468" y="72" type="line"/>
      <point x="158" y="72" type="line"/>
      <point x="158" y="304" type="line"/>
      <point x="395" y="304" type="line"/>
      <point x="395" y="376" type="line"/>
      <point x="158" y="376" type="line"/>
      <point x="158" y="608" type="line"/>
      <point x="448" y="608" type="line"/>
      <point x="448" y="680" type="line"/>
      <point x="78" y="680" type="line"/>
    </contour>
  </outline>
</glyph>
<glyph name="F" format="1">
  <advance width="460"/>
  <unicode hex="0046"/>
  <outline>
    <contour>
      <point x="90" y="0" type="line" name="hr00"/>
      <point x="170" y="0" type="line"/>
      <point x="170" y="304" type="line"/>
      <point x="397" y="304" type="line"/>
      <point x="397" y="376" type="line"/>
      <point x="170" y="376" type="line"/>
      <point x="170" y="608" type="line"/>
      <point x="450" y="608" type="line"/>
      <point x="450" y="680" type="line"/>
      <point x="90" y="680" type="line"/>
    </contour>
  </outline>
</glyph>
<glyph name="G" format="1">
  <advance width="645"/>
  <unicode hex="0047"/>
  <outline>
    <contour>
      <point x="570" y="53" type="curve" name="hr00"/>
      <point x="570" y="376" type="line"/>
      <point x="341" y="376" type="line"/>
      <point x="341" y="304" type="line"/>
      <point x="494" y="304" type="line"/>
      <point x="494" y="93" type="line"/>
      <point x="452" y="69" smooth="yes"/>
      <point x="397" y="57" smooth="yes"/>
      <point x="336" y="57" type="curve" smooth="yes"/>
      <point x="206" y="57" smooth="yes"/>
      <point x="130" y="161" smooth="yes"/>
      <point x="130" y="340" type="curve" smooth="yes"/>
      <point x="130" y="518" smooth="yes"/>
      <point x="206" y="623" smooth="yes"/>
      <point x="336" y="623" type="curve" smooth="yes"/>
      <point x="398" y="623"/>
      <point x="462" y="608"/>
      <point x="514" y="582" type="curve"/>
      <point x="542" y="650" type="line"/>
      <point x="487" y="680" smooth="yes"/>
      <point x="415" y="696" smooth="yes"/>
      <point x="339" y="696" type="curve" smooth="yes"/>
      <point x="158" y="696" smooth="yes"/>
      <point x="50" y="564" smooth="yes"/>
      <point x="50" y="340" type="curve" smooth="yes"/>
      <point x="50" y="116" smooth="yes"/>
      <point x="158" y="-16" smooth="yes"/>
      <point x="339" y="-16" type="curve" smooth="yes"/>
      <point x="421" y="-16"/>
      <point x="495" y="6"/>
    </contour>
  </outline>
</glyph>
<glyph name="H" format="1">
  <advance width="664"/>
  <unicode hex="0048"/>
  <outline>
    <contour>
      <point x="90" y="0" type="line" name="hr00"/>
      <point x="170" y="0" type="line"/>
      <point x="170" y="303" type="line"/>
      <point x="494" y="303" type="line"/>
      <point x="494" y="0" type="line"/>
      <point x="574" y="0" type="line"/>
      <point x="574" y="680" type="line"/>
      <point x="494" y="680" type="line"/>
      <point x="494" y="377" type="line"/>
      <point x="170" y="377" type="line"/>
      <point x="170" y="680" type="line"/>
      <point x="90" y="680" type="line"/>
    </contour>
  </outline>
</glyph>
<glyph name="I" format="1">
  <advance width="260"/>
  <unicode hex="0049"/>
  <outline>
    <contour>
      <point x="90" y="0" type="line" name="hr00"/>
      <point x="170" y="0" type="line"/>
      <point x="170" y="680" type="line"/>
      <point x="90" y="680" type="line"/>
    </contour>
  </outline>
</glyph>
<glyph name="J" format="1">
  <advance width="427"/>
  <unicode hex="004A"/>
  <outline>
    <contour>
      <point x="0" y="57" type="line" name="hr00"/>
      <point x="49" y="8" smooth="yes"/>
      <point x="109" y="-16" smooth="yes"/>
      <point x="182" y="-16" type="curve" smooth="yes"/>
      <point x="286" y="-16" smooth="yes"/>
      <point x="352" y="65" smooth="yes"/>
      <point x="352" y="192" type="curve" smooth="yes"/>
      <point x="352" y="680" type="line"/>
      <point x="272" y="680" type="line"/>
      <point x="272" y="192" type="line" smooth="yes"/>
      <point x="272" y="101" smooth="yes"/>
      <point x="238" y="56" smooth="yes"/>
      <point x="171" y="56" type="curve" smooth="yes"/>
      <point x="128" y="56"/>
      <point x="82" y="77"/>
      <point x="44" y="113" type="curve"/>
    </contour>
  </outline>
</glyph>
<glyph name="K" format="1">
  <advance width="551"/>
  <unicode hex="004B"/>
  <outline>
    <contour>
      <point x="90" y="0" type="line"/>
      <point x="170" y="0" type="line"/>
      <point x="170" y="291" type="line"/>
      <point x="308" y="291" type="line" smooth="yes"/>
      <point x="336" y="291" smooth="yes"/>
      <point x="348" y="282" smooth="yes"/>
      <point x="361" y="246" type="curve" smooth="yes"/>
      <point x="460" y="-16" type="line" name="hr01"/>
      <point x="536" y="8" type="line"/>
      <point x="441" y="260" type="line" smooth="yes"/>
      <point x="416" y="326"/>
      <point x="382" y="355"/>
      <point x="322" y="360" type="curve"/>
      <point x="526" y="680" type="line"/>
      <point x="437" y="680" type="line"/>
      <point x="234" y="361" type="line"/>
      <point x="170" y="361" type="line"/>
      <point x="170" y="680" type="line" name="hr02"/>
      <point x="90" y="680" type="line"/>
    </contour>
  </outline>
</glyph>
<glyph name="L" format="1">
  <advance width="447"/>
  <unicode hex="004C"/>
  <outline>
    <contour>
      <point x="170" y="72" type="line" name="hr00"/>
      <point x="170" y="680" type="line"/>
      <point x="90" y="680" type="line"/>
      <point x="90" y="0" type="line"/>
      <point x="447" y="0" type="line"/>
      <point x="447" y="72" type="line"/>
    </contour>
  </outline>
</glyph>
<glyph name="M" format="1">
  <advance width="815"/>
  <unicode hex="004D"/>
  <outline>
    <contour>
      <point x="80" y="0" type="line" name="hr00"/>
      <point x="160" y="0" type="line"/>
      <point x="179" y="532" type="line"/>
      <point x="366" y="106" type="line"/>
      <point x="449" y="106" type="line"/>
      <point x="635" y="532" type="line"/>
      <point x="655" y="0" type="line"/>
      <point x="735" y="0" type="line"/>
      <point x="710" y="680" type="line"/>
      <point x="617" y="680" type="line"/>
      <point x="407" y="201" type="line"/>
      <point x="198" y="680" type="line"/>
      <point x="105" y="680" type="line"/>
    </contour>
  </outline>
</glyph>
<glyph name="N" format="1">
  <advance width="680"/>
  <unicode hex="004E"/>
  <outline>
    <contour>
      <point x="90" y="0" type="line" name="hr00"/>
      <point x="170" y="0" type="line"/>
      <point x="170" y="553" type="line"/>
      <point x="497" y="0" type="line"/>
      <point x="590" y="0" type="line"/>
      <point x="590" y="680" type="line"/>
      <point x="510" y="680" type="line"/>
      <point x="510" y="127" type="line"/>
      <point x="183" y="680" type="line"/>
      <point x="90" y="680" type="line"/>
    </contour>
  </outline>
</glyph>
<glyph name="O" format="1">
  <advance width="674"/>
  <unicode hex="004F"/>
  <outline>
    <contour>
      <point x="50" y="340" type="curve" smooth="yes" name="hr00"/>
      <point x="50" y="116" smooth="yes"/>
      <point x="156" y="-16" smooth="yes"/>
      <point x="336" y="-16" type="curve" smooth="yes"/>
      <point x="516" y="-16" smooth="yes"/>
      <point x="624" y="117" smooth="yes"/>
      <point x="624" y="340" type="curve" smooth="yes"/>
      <point x="624" y="563" smooth="yes"/>
      <point x="516" y="696" smooth="yes"/>
      <point x="336" y="696" type="curve" smooth="yes"/>
      <point x="156" y="696" smooth="yes"/>
      <point x="50" y="564" smooth="yes"/>
    </contour>
    <contour>
      <point x="130" y="340" type="curve" smooth="yes"/>
      <point x="130" y="518" smooth="yes"/>
      <point x="206" y="623" smooth="yes"/>
      <point x="336" y="623" type="curve" smooth="yes"/>
      <point x="466" y="623" smooth="yes"/>
      <point x="544" y="517" smooth="yes"/>
      <point x="544" y="340" type="curve" smooth="yes"/>
      <point x="544" y="163" smooth="yes"/>
      <point x="466" y="57" smooth="yes"/>
      <point x="336" y="57" type="curve" smooth="yes"/>
      <point x="206" y="57" smooth="yes"/>
      <point x="130" y="162" smooth="yes"/>
    </contour>
  </outline>
</glyph>
<glyph name="P" format="1">
  <advance width="509"/>
  <unicode hex="0050"/>
  <outline>
    <contour>
      <point x="90" y="0" type="line" name="hr00"/>
      <point x="170" y="0" type="line"/>
      <point x="170" y="274" type="line"/>
      <point x="301" y="274" type="line" smooth="yes"/>
      <point x="414" y="274" smooth="yes"/>
      <point x="504" y="364" smooth="yes"/>
      <point x="504" y="477" type="curve" smooth="yes"/>
      <point x="504" y="590" smooth="yes"/>
      <point x="414" y="680" smooth="yes"/>
      <point x="301" y="680" type="curve" smooth="yes"/>
      <point x="90" y="680" type="line"/>
    </contour>
    <contour>
      <point x="298" y="607" type="line" smooth="yes"/>
      <point x="367" y="607" smooth="yes"/>
      <point x="425" y="548" smooth="yes"/>
      <point x="425" y="477" type="curve" smooth="yes"/>
      <point x="425" y="406" smooth="yes"/>
      <point x="367" y="347" smooth="yes"/>
      <point x="298" y="347" type="curve" smooth="yes"/>
      <point x="170" y="347" type="line"/>
      <point x="170" y="607" type="line"/>
    </contour>
  </outline>
</glyph>
<glyph name="Q" format="1">
  <advance width="674"/>
  <unicode hex="0051"/>
  <outline>
    <contour>
      <point x="516" y="-89" type="line" name="hr00"/>
      <point x="479" y="-105" smooth="yes"/>
      <point x="455" y="-112" smooth="yes"/>
      <point x="435" y="-112" type="curve" smooth="yes"/>
      <point x="394" y="-112"/>
      <point x="374" y="-83"/>
      <point x="374" y="-14" type="curve"/>
      <point x="531" y="3" smooth="yes"/>
      <point x="624" y="133" smooth="yes"/>
      <point x="624" y="340" type="curve" smooth="yes"/>
      <point x="624" y="563" smooth="yes"/>
      <point x="516" y="696" smooth="yes"/>
      <point x="336" y="696" type="curve" smooth="yes"/>
      <point x="156" y="696" smooth="yes"/>
      <point x="50" y="564" smooth="yes"/>
      <point x="50" y="340" type="curve" smooth="yes"/>
      <point x="50" y="132"/>
      <point x="141" y="3"/>
      <point x="298" y="-14" type="curve"/>
      <point x="298" y="-125" smooth="yes"/>
      <point x="344" y="-183" smooth="yes"/>
      <point x="427" y="-183" type="curve" smooth="yes"/>
      <point x="463" y="-183"/>
      <point x="506" y="-169"/>
      <point x="546" y="-143" type="curve"/>
    </contour>
    <contour>
      <point x="130" y="340" type="curve" smooth="yes"/>
      <point x="130" y="518" smooth="yes"/>
      <point x="206" y="623" smooth="yes"/>
      <point x="336" y="623" type="curve" smooth="yes"/>
      <point x="466" y="623" smooth="yes"/>
      <point x="544" y="517" smooth="yes"/>
      <point x="544" y="340" type="curve" smooth="yes"/>
      <point x="544" y="163" smooth="yes"/>
      <point x="466" y="57" smooth="yes"/>
      <point x="336" y="57" type="curve" smooth="yes"/>
      <point x="206" y="57" smooth="yes"/>
      <point x="130" y="162" smooth="yes"/>
    </contour>
  </outline>
</glyph>
<glyph name="R" format="1">
  <advance width="579"/>
  <unicode hex="0052"/>
  <outline>
    <contour>
      <point x="90" y="0" type="line"/>
      <point x="170" y="0" type="line"/>
      <point x="170" y="291" type="line"/>
      <point x="323" y="291" type="line"/>
      <point x="347" y="289" smooth="yes"/>
      <point x="358" y="279" smooth="yes"/>
      <point x="370" y="246" type="curve" smooth="yes"/>
      <point x="469" y="-16" type="line" name="hr01"/>
      <point x="545" y="8" type="line"/>
      <point x="450" y="260" type="line" smooth="yes"/>
      <point x="441" y="284"/>
      <point x="428" y="299"/>
      <point x="405" y="308" type="curve"/>
      <point x="472" y="339" smooth="yes"/>
      <point x="518" y="406" smooth="yes"/>
      <point x="518" y="485" type="curve" smooth="yes"/>
      <point x="518" y="593" smooth="yes"/>
      <point x="431" y="680" smooth="yes"/>
      <point x="323" y="680" type="curve" smooth="yes" name="hr02"/>
      <point x="90" y="680" type="line"/>
    </contour>
    <contour>
      <point x="319" y="607" type="line" smooth="yes"/>
      <point x="385" y="607" smooth="yes"/>
      <point x="438" y="552" smooth="yes"/>
      <point x="438" y="485" type="curve" smooth="yes"/>
      <point x="438" y="418" smooth="yes"/>
      <point x="384" y="361" smooth="yes"/>
      <point x="319" y="361" type="curve" smooth="yes"/>
      <point x="170" y="361" type="line"/>
      <point x="170" y="607" type="line"/>
    </contour>
  </outline>
</glyph>
<glyph name="S" format="1">
  <advance width="511"/>
  <unicode hex="0053"/>
  <outline>
    <contour>
      <point x="30" y="76" type="line" name="hr00"/>
      <point x="91" y="19" smooth="yes"/>
      <point x="176" y="-16" smooth="yes"/>
      <point x="257" y="-16" type="curve" smooth="yes"/>
      <point x="395" y="-16" smooth="yes"/>
      <point x="481" y="59" smooth="yes"/>
      <point x="481" y="180" type="curve" smooth="yes"/>
      <point x="481" y="439" smooth="yes"/>
      <point x="137" y="339" smooth="yes"/>
      <point x="137" y="514" type="curve" smooth="yes"/>
      <point x="137" y="577" smooth="yes"/>
      <point x="188" y="621" smooth="yes"/>
      <point x="259" y="621" type="curve" smooth="yes"/>
      <point x="314" y="621"/>
      <point x="372" y="607"/>
      <point x="407" y="585" type="curve"/>
      <point x="447" y="649" type="line"/>
      <point x="402" y="678" smooth="yes"/>
      <point x="329" y="696" smooth="yes"/>
      <point x="260" y="696" type="curve" smooth="yes"/>
      <point x="139" y="696" smooth="yes"/>
      <point x="57" y="620" smooth="yes"/>
      <point x="57" y="509" type="curve" smooth="yes"/>
      <point x="57" y="264" smooth="yes"/>
      <point x="401" y="367" smooth="yes"/>
      <point x="401" y="175" type="curve" smooth="yes"/>
      <point x="401" y="105" smooth="yes"/>
      <point x="344" y="59" smooth="yes"/>
      <point x="258" y="59" type="curve" smooth="yes"/>
      <point x="189" y="59"/>
      <point x="118" y="89"/>
      <point x="76" y="136" type="curve"/>
    </contour>
  </outline>
</glyph>
<glyph name="T" format="1">
  <advance width="470"/>
  <unicode hex="0054"/>
  <outline>
    <contour>
      <point x="195" y="0" type="line" name="hr00"/>
      <point x="275" y="0" type="line"/>
      <point x="275" y="608" type="line"/>
      <point x="465" y="608" type="line"/>
      <point x="465" y="680" type="line"/>
      <point x="5" y="680" type="line"/>
      <point x="5" y="608" type="line"/>
      <point x="195" y="608" type="line"/>
    </contour>
  </outline>
</glyph>
<glyph name="U" format="1">
  <advance width="653"/>
  <unicode hex="0055"/>
  <outline>
    <contour>
      <point x="75" y="680" type="line" name="hr00"/>
      <point x="75" y="253" type="line" smooth="yes"/>
      <point x="75" y="84" smooth="yes"/>
      <point x="168" y="-16" smooth="yes"/>
      <point x="326" y="-16" type="curve" smooth="yes"/>
      <point x="484" y="-16" smooth="yes"/>
      <point x="578" y="85" smooth="yes"/>
      <point x="578" y="253" type="curve" smooth="yes"/>
      <point x="578" y="680" type="line"/>
      <point x="498" y="680" type="line"/>
      <point x="498" y="248" type="line" smooth="yes"/>
      <point x="498" y="128" smooth="yes"/>
      <point x="434" y="57" smooth="yes"/>
      <point x="326" y="57" type="curve" smooth="yes"/>
      <point x="219" y="57" smooth="yes"/>
      <point x="155" y="128" smooth="yes"/>
      <point x="155" y="248" type="curve" smooth="yes"/>
      <point x="155" y="680" type="line"/>
    </contour>
  </outline>
</glyph>
<glyph name="V" format="1">
  <advance width="556"/>
  <unicode hex="0056"/>
  <outline>
    <contour>
      <point x="83" y="680" type="line" name="hr00"/>
      <point x="0" y="680" type="line"/>
      <point x="229" y="0" type="line"/>
      <point x="327" y="0" type="line"/>
      <point x="556" y="680" type="line"/>
      <point x="473" y="680" type="line"/>
      <point x="278" y="88" type="line"/>
    </contour>
  </outline>
</glyph>
<glyph name="W" format="1">
  <advance width="825"/>
  <unicode hex="0057"/>
  <outline>
    <contour>
      <point x="549" y="0" type="line" name="hr00"/>
      <point x="642" y="0" type="line"/>
      <point x="825" y="680" type="line"/>
      <point x="745" y="680" type="line"/>
      <point x="596" y="120" type="line"/>
      <point x="455" y="680" type="line"/>
      <point x="373" y="680" type="line"/>
      <point x="223" y="120" type="line"/>
      <point x="83" y="680" type="line"/>
      <point x="0" y="680" type="line"/>
      <point x="175" y="0" type="line"/>
      <point x="268" y="0" type="line"/>
      <point x="411" y="533" type="line"/>
    </contour>
  </outline>
</glyph>
<glyph name="X" format="1">
  <advance width="573"/>
  <unicode hex="0058"/>
  <outline>
    <contour>
      <point x="25" y="680" type="line" name="hr00"/>
      <point x="240" y="352" type="line"/>
      <point x="10" y="0" type="line"/>
      <point x="102" y="0" type="line"/>
      <point x="286" y="281" type="line"/>
      <point x="471" y="0" type="line"/>
      <point x="563" y="0" type="line"/>
      <point x="331" y="353" type="line"/>
      <point x="546" y="680" type="line"/>
      <point x="453" y="680" type="line"/>
      <point x="285" y="424" type="line"/>
      <point x="118" y="680" type="line"/>
    </contour>
  </outline>
</glyph>
<glyph name="Y" format="1">
  <advance width="528"/>
  <unicode hex="0059"/>
  <outline>
    <contour>
      <point x="224" y="0" type="line" name="hr00"/>
      <point x="304" y="0" type="line"/>
      <point x="304" y="235" type="line"/>
      <point x="528" y="680" type="line"/>
      <point x="440" y="680" type="line"/>
      <point x="264" y="314" type="line"/>
      <point x="88" y="680" type="line"/>
      <point x="0" y="680" type="line"/>
      <point x="224" y="235" type="line"/>
    </contour>
  </outline>
</glyph>
<glyph name="Z" format="1">
  <advance width="501"/>
  <unicode hex="005A"/>
  <outline>
    <contour>
      <point x="486" y="0" type="line" name="hr00"/>
      <point x="486" y="72" type="line"/>
      <point x="110" y="72" type="line"/>
      <point x="481" y="639" type="line"/>
      <point x="481" y="680" type="line"/>
      <point x="40" y="680" type="line"/>
      <point x="40" y="608" type="line"/>
      <point x="369" y="608" type="line"/>
      <point x="15" y="68" type="line"/>
      <point x="15" y="0" type="line"/>
    </contour>
  </outline>
</glyph>
<glyph name="bracketleft" format="1">
  <advance width="277"/>
  <unicode hex="005B"/>
  <outline>
    <contour>
      <point x="262" y="682" type="line" name="hr00"/>
      <point x="90" y="682" type="line"/>
      <point x="90" y="-60" type="line"/>
      <point x="261" y="-60" type="line"/>
      <point x="261" y="0" type="line"/>
      <point x="170" y="0" type="line"/>
      <point x="170" y="622" type="line"/>
      <point x="262" y="622" type="line"/>
    </contour>
  </outline>
</glyph>
<glyph name="backslash" format="1">
  <advance width="312"/>
  <unicode hex="005C"/>
  <outline>
    <contour>
      <point x="-30" y="772" type="line" name="hr00"/>
      <point x="42" y="772" type="line"/>
      <point x="342" y="-92" type="line"/>
      <point x="269" y="-92" type="line"/>
    </contour>
  </outline>
</glyph>
<glyph name="bracketright" format="1">
  <advance width="277"/>
  <unicode hex="005D"/>
  <outline>
    <contour>
      <point x="15" y="682" type="line" name="hr00"/>
      <point x="187" y="682" type="line"/>
      <point x="187" y="-60" type="line"/>
      <point x="16" y="-60" type="line"/>
      <point x="16" y="0" type="line"/>
      <point x="107" y="0" type="line"/>
      <point x="107" y="622" type="line"/>
      <point x="15" y="622" type="line"/>
    </contour>
  </outline>
</glyph>
<glyph name="asciicircum" format="1">
  <advance width="518"/>
  <unicode hex="005E"/>
  <outline>
    <contour>
      <point x="235" y="656" type="line" name="hr00"/>
      <point x="36" y="320" type="line"/>
      <point x="97" y="283" type="line"/>
      <point x="259" y="557" type="line"/>
      <point x="421" y="283" type="line"/>
      <point x="482" y="320" type="line"/>
      <point x="284" y="656" type="line"/>
    </contour>
  </outline>
</glyph>
<glyph name="grave" format="1">
  <advance width="210"/>
  <unicode hex="0060"/>
  <outline>
    <contour>
      <point x="122" y="700" type="line" smooth="yes" name="hr00"/>
      <point x="104" y="725" smooth="yes"/>
      <point x="89" y="735" smooth="yes"/>
      <point x="70" y="735" type="curve" smooth="yes"/>
      <point x="49" y="735"/>
      <point x="31" y="716"/>
      <point x="20" y="682" type="curve"/>
      <point x="200" y="535" type="line"/>
      <point x="224" y="560" type="line"/>
    </contour>
  </outline>
</glyph>
<glyph name="a" format="1">
  <advance width="564"/>
  <unicode hex="0061"/>
  <outline>
    <contour>
      <point x="484" y="0" type="line" name="hr00"/>
      <point x="474" y="100" type="line"/>
      <point x="474" y="456" type="line"/>
      <point x="423" y="491" smooth="yes"/>
      <point x="352" y="514" smooth="yes"/>
      <point x="291" y="514" type="curve" smooth="yes"/>
      <point x="148" y="514" smooth="yes"/>
      <point x="45" y="400" smooth="yes"/>
      <point x="45" y="241" type="curve" smooth="yes"/>
      <point x="45" y="84" smooth="yes"/>
      <point x="120" y="-14" smooth="yes"/>
      <point x="241" y="-14" type="curve" smooth="yes"/>
      <point x="309" y="-14"/>
      <point x="365" y="22"/>
      <point x="400" y="85" type="curve"/>
      <point x="418" y="-5" type="line"/>
    </contour>
    <contour>
      <point x="256" y="54" type="curve" smooth="yes"/>
      <point x="173" y="54" smooth="yes"/>
      <point x="121" y="126" smooth="yes"/>
      <point x="121" y="241" type="curve" smooth="yes"/>
      <point x="121" y="361" smooth="yes"/>
      <point x="192" y="446" smooth="yes"/>
      <point x="291" y="446" type="curve" smooth="yes"/>
      <point x="327" y="446"/>
      <point x="366" y="437"/>
      <point x="398" y="421" type="curve"/>
      <point x="398" y="282" type="line" smooth="yes"/>
      <point x="398" y="145" smooth="yes"/>
      <point x="341" y="54" smooth="yes"/>
    </contour>
  </outline>
</glyph>
<glyph name="b" format="1">
  <advance width="554"/>
  <unicode hex="0062"/>
  <outline>
    <contour>
      <point x="151" y="700" type="line" name="hr00"/>
      <point x="75" y="700" type="line"/>
      <point x="75" y="196" type="line" smooth="yes"/>
      <point x="75" y="61" smooth="yes"/>
      <point x="140" y="-14" smooth="yes"/>
      <point x="258" y="-14" type="curve" smooth="yes"/>
      <point x="401" y="-14" smooth="yes"/>
      <point x="504" y="100" smooth="yes"/>
      <point x="504" y="259" type="curve" smooth="yes"/>
      <point x="504" y="416" smooth="yes"/>
      <point x="431" y="514" smooth="yes"/>
      <point x="313" y="514" type="curve" smooth="yes"/>
      <point x="242" y="514"/>
      <point x="186" y="480"/>
      <point x="151" y="418" type="curve"/>
    </contour>
    <contour>
      <point x="304" y="446" type="curve" smooth="yes"/>
      <point x="382" y="446" smooth="yes"/>
      <point x="428" y="376" smooth="yes"/>
      <point x="428" y="259" type="curve" smooth="yes"/>
      <point x="428" y="139" smooth="yes"/>
      <point x="357" y="54" smooth="yes"/>
      <point x="258" y="54" type="curve" smooth="yes"/>
      <point x="190" y="54" smooth="yes"/>
      <point x="151" y="106" smooth="yes"/>
      <point x="151" y="196" type="curve" smooth="yes"/>
      <point x="151" y="221" type="line" smooth="yes"/>
      <point x="153" y="364" smooth="yes"/>
      <point x="209" y="446" smooth="yes"/>
    </contour>
  </outline>
</glyph>
<glyph name="c" format="1">
  <advance width="446"/>
  <unicode hex="0063"/>
  <outline>
    <contour>
      <point x="403" y="102" type="line" name="hr00"/>
      <point x="367" y="72" smooth="yes"/>
      <point x="315" y="54" smooth="yes"/>
      <point x="265" y="54" type="curve" smooth="yes"/>
      <point x="175" y="54" smooth="yes"/>
      <point x="121" y="125" smooth="yes"/>
      <point x="121" y="244" type="curve" smooth="yes"/>
      <point x="121" y="365" smooth="yes"/>
      <point x="186" y="446" smooth="yes"/>
      <point x="283" y="446" type="curve" smooth="yes"/>
      <point x="318" y="446"/>
      <point x="355" y="436"/>
      <point x="390" y="417" type="curve"/>
      <point x="409" y="478" type="line"/>
      <point x="369" y="502" smooth="yes"/>
      <point x="327" y="514" smooth="yes"/>
      <point x="281" y="514" type="curve" smooth="yes"/>
      <point x="137" y="514" smooth="yes"/>
      <point x="45" y="405" smooth="yes"/>
      <point x="45" y="234" type="curve" smooth="yes"/>
      <point x="45" y="84" smooth="yes"/>
      <point x="131" y="-14" smooth="yes"/>
      <point x="262" y="-14" type="curve" smooth="yes"/>
      <point x="329" y="-14"/>
      <point x="383" y="6"/>
      <point x="433" y="48" type="curve"/>
    </contour>
  </outline>
</glyph>
<glyph name="d" format="1">
  <advance width="564"/>
  <unicode hex="0064"/>
  <outline>
    <contour>
      <point x="484" y="0" type="line" name="hr00"/>
      <point x="474" y="100" type="line"/>
      <point x="474" y="700" type="line"/>
      <point x="398" y="700" type="line"/>
      <point x="398" y="494" type="line"/>
      <point x="363" y="507" smooth="yes"/>
      <point x="325" y="514" smooth="yes"/>
      <point x="291" y="514" type="curve" smooth="yes"/>
      <point x="148" y="514" smooth="yes"/>
      <point x="45" y="400" smooth="yes"/>
      <point x="45" y="241" type="curve" smooth="yes"/>
      <point x="45" y="84" smooth="yes"/>
      <point x="120" y="-14" smooth="yes"/>
      <point x="241" y="-14" type="curve" smooth="yes"/>
      <point x="309" y="-14"/>
      <point x="365" y="22"/>
      <point x="400" y="85" type="curve"/>
      <point x="418" y="-5" type="line"/>
    </contour>
    <contour>
      <point x="256" y="54" type="curve" smooth="yes"/>
      <point x="173" y="54" smooth="yes"/>
      <point x="121" y="126" smooth="yes"/>
      <point x="121" y="241" type="curve" smooth="yes"/>
      <point x="121" y="361" smooth="yes"/>
      <point x="192" y="446" smooth="yes"/>
      <point x="291" y="446" type="curve" smooth="yes"/>
      <point x="327" y="446"/>
      <point x="366" y="437"/>
      <point x="398" y="421" type="curve"/>
      <point x="398" y="282" type="line" smooth="yes"/>
      <point x="398" y="145" smooth="yes"/>
      <point x="341" y="54" smooth="yes"/>
    </contour>
  </outline>
</glyph>
<glyph name="e" format="1">
  <advance width="484"/>
  <unicode hex="0065"/>
  <outline>
    <contour>
      <point x="252" y="-14" type="curve" smooth="yes" name="hr00"/>
      <point x="326" y="-14"/>
      <point x="384" y="9"/>
      <point x="436" y="59" type="curve"/>
      <point x="400" y="108" type="line"/>
      <point x="364" y="75" smooth="yes"/>
      <point x="308" y="54" smooth="yes"/>
      <point x="255" y="54" type="curve" smooth="yes"/>
      <point x="182" y="54"/>
      <point x="133" y="109"/>
      <point x="123" y="199" type="curve"/>
      <point x="146" y="197" smooth="yes"/>
      <point x="170" y="196" smooth="yes"/>
      <point x="193" y="196" type="curve" smooth="yes"/>
      <point x="343" y="196" smooth="yes"/>
      <point x="449" y="268" smooth="yes"/>
      <point x="449" y="371" type="curve" smooth="yes"/>
      <point x="449" y="452" smooth="yes"/>
      <point x="382" y="514" smooth="yes"/>
      <point x="293" y="514" type="curve" smooth="yes"/>
      <point x="147" y="514" smooth="yes"/>
      <point x="45" y="398" smooth="yes"/>
      <point x="45" y="232" type="curve" smooth="yes"/>
      <point x="45" y="81" smooth="yes"/>
      <point x="125" y="-14" smooth="yes"/>
    </contour>
    <contour>
      <point x="290" y="446" type="curve" smooth="yes"/>
      <point x="338" y="446" smooth="yes"/>
      <point x="373" y="413" smooth="yes"/>
      <point x="373" y="368" type="curve" smooth="yes"/>
      <point x="373" y="306" smooth="yes"/>
      <point x="299" y="262" smooth="yes"/>
      <point x="195" y="262" type="curve" smooth="yes"/>
      <point x="172" y="262"/>
      <point x="148" y="263"/>
      <point x="122" y="267" type="curve"/>
      <point x="133" y="374" smooth="yes"/>
      <point x="198" y="446" smooth="yes"/>
    </contour>
  </outline>
</glyph>
<glyph name="f" format="1">
  <advance width="303"/>
  <unicode hex="0066"/>
  <outline>
    <contour>
      <point x="40" y="435" type="line" name="hr00"/>
      <point x="105" y="435" type="line"/>
      <point x="105" y="-160" type="line"/>
      <point x="181" y="-160" type="line"/>
      <point x="181" y="435" type="line"/>
      <point x="296" y="435" type="line"/>
      <point x="296" y="500" type="line"/>
      <point x="181" y="500" type="line"/>
      <point x="181" y="555" type="line" smooth="yes"/>
      <point x="181" y="614" smooth="yes"/>
      <point x="201" y="643" smooth="yes"/>
      <point x="242" y="643" type="curve" smooth="yes"/>
      <point x="262" y="643"/>
      <point x="286" y="636"/>
      <point x="323" y="620" type="curve"/>
      <point x="353" y="674" type="line"/>
      <point x="313" y="700" smooth="yes"/>
      <point x="270" y="714" smooth="yes"/>
      <point x="234" y="714" type="curve" smooth="yes"/>
      <point x="151" y="714" smooth="yes"/>
      <point x="105" y="656" smooth="yes"/>
      <point x="105" y="551" type="curve" smooth="yes"/>
      <point x="105" y="500" type="line"/>
      <point x="40" y="500" type="line"/>
    </contour>
  </outline>
</glyph>
<glyph name="g" format="1">
  <advance width="559"/>
  <unicode hex="0067"/>
  <outline>
    <contour>
      <point x="228" y="-239" type="curve" smooth="yes" name="hr00"/>
      <point x="371" y="-239" smooth="yes"/>
      <point x="474" y="-125" smooth="yes"/>
      <point x="474" y="34" type="curve" smooth="yes"/>
      <point x="474" y="456" type="line"/>
      <point x="423" y="491" smooth="yes"/>
      <point x="352" y="514" smooth="yes"/>
      <point x="291" y="514" type="curve" smooth="yes"/>
      <point x="148" y="514" smooth="yes"/>
      <point x="45" y="400" smooth="yes"/>
      <point x="45" y="241" type="curve" smooth="yes"/>
      <point x="45" y="84" smooth="yes"/>
      <point x="120" y="-14" smooth="yes"/>
      <point x="241" y="-14" type="curve" smooth="yes"/>
      <point x="308" y="-14"/>
      <point x="362" y="21"/>
      <point x="398" y="83" type="curve"/>
      <point x="398" y="35" type="line" smooth="yes"/>
      <point x="398" y="-84" smooth="yes"/>
      <point x="327" y="-168" smooth="yes"/>
      <point x="228" y="-168" type="curve" smooth="yes"/>
      <point x="176" y="-168"/>
      <point x="117" y="-149"/>
      <point x="83" y="-122" type="curve"/>
      <point x="45" y="-181" type="line"/>
      <point x="96" y="-216" smooth="yes"/>
      <point x="167" y="-239" smooth="yes"/>
    </contour>
    <contour>
      <point x="256" y="54" type="curve" smooth="yes"/>
      <point x="173" y="54" smooth="yes"/>
      <point x="121" y="126" smooth="yes"/>
      <point x="121" y="241" type="curve" smooth="yes"/>
      <point x="121" y="361" smooth="yes"/>
      <point x="192" y="446" smooth="yes"/>
      <point x="291" y="446" type="curve" smooth="yes"/>
      <point x="327" y="446"/>
      <point x="366" y="437"/>
      <point x="398" y="421" type="curve"/>
      <point x="398" y="274" type="line" smooth="yes"/>
      <point x="398" y="141" smooth="yes"/>
      <point x="339" y="54" smooth="yes"/>
    </contour>
  </outline>
</glyph>
<glyph name="h" format="1">
  <advance width="574"/>
  <unicode hex="0068"/>
  <outline>
    <contour>
      <point x="499" y="0" type="line" name="hr00"/>
      <point x="499" y="304" type="line" smooth="yes"/>
      <point x="499" y="443" smooth="yes"/>
      <point x="443" y="514" smooth="yes"/>
      <point x="335" y="514" type="curve" smooth="yes"/>
      <point x="265" y="514"/>
      <point x="205" y="470"/>
      <point x="166" y="401" type="curve"/>
      <point x="166" y="700" type="line"/>
      <point x="90" y="700" type="line"/>
      <point x="90" y="0" type="line"/>
      <point x="166" y="0" type="line"/>
      <point x="166" y="220" type="line" smooth="yes"/>
      <point x="166" y="348" smooth="yes"/>
      <point x="236" y="446" smooth="yes"/>
      <point x="322" y="446" type="curve" smooth="yes"/>
      <point x="389" y="446" smooth="yes"/>
      <point x="423" y="398" smooth="yes"/>
      <point x="423" y="304" type="curve" smooth="yes"/>
      <point x="423" y="0" type="line"/>
    </contour>
  </outline>
</glyph>
<glyph name="i" format="1">
  <advance width="256"/>
  <unicode hex="0069"/>
  <outline>
    <contour>
      <point x="80" y="644" type="curve" smooth="yes" name="hr00"/>
      <point x="80" y="614" smooth="yes"/>
      <point x="98" y="596" smooth="yes"/>
      <point x="128" y="596" type="curve" smooth="yes"/>
      <point x="156" y="596" smooth="yes"/>
      <point x="176" y="615" smooth="yes"/>
      <point x="176" y="644" type="curve" smooth="yes"/>
      <point x="176" y="672" smooth="yes"/>
      <point x="156" y="692" smooth="yes"/>
      <point x="128" y="692" type="curve" smooth="yes"/>
      <point x="98" y="692" smooth="yes"/>
      <point x="80" y="673" smooth="yes"/>
    </contour>
    <contour>
      <point x="90" y="0" type="line"/>
      <point x="166" y="0" type="line"/>
      <point x="166" y="500" type="line"/>
      <point x="90" y="500" type="line"/>
    </contour>
  </outline>
</glyph>
<glyph name="j" format="1">
  <advance width="256"/>
  <unicode hex="006A"/>
  <outline>
    <contour>
      <point x="82" y="644" type="curve" smooth="yes" name="hr00"/>
      <point x="82" y="616" smooth="yes"/>
      <point x="100" y="598" smooth="yes"/>
      <point x="128" y="598" type="curve" smooth="yes"/>
      <point x="155" y="598" smooth="yes"/>
      <point x="174" y="616" smooth="yes"/>
      <point x="174" y="644" type="curve" smooth="yes"/>
      <point x="174" y="671" smooth="yes"/>
      <point x="155" y="690" smooth="yes"/>
      <point x="128" y="690" type="curve" smooth="yes"/>
      <point x="100" y="690" smooth="yes"/>
      <point x="82" y="672" smooth="yes"/>
    </contour>
    <contour>
      <point x="-52" y="-145" type="curve"/>
      <point x="-82" y="-199" type="line"/>
      <point x="-42" y="-225" smooth="yes"/>
      <point x="1" y="-239" smooth="yes"/>
      <point x="37" y="-239" type="curve" smooth="yes"/>
      <point x="120" y="-239" smooth="yes"/>
      <point x="166" y="-181" smooth="yes"/>
      <point x="166" y="-76" type="curve" smooth="yes"/>
      <point x="166" y="500" type="line"/>
      <point x="90" y="500" type="line"/>
      <point x="90" y="-80" type="line" smooth="yes"/>
      <point x="90" y="-139" smooth="yes"/>
      <point x="70" y="-168" smooth="yes"/>
      <point x="29" y="-168" type="curve" smooth="yes"/>
      <point x="9" y="-168"/>
      <point x="-16" y="-161"/>
    </contour>
  </outline>
</glyph>
<glyph name="k" format="1">
  <advance width="508"/>
  <unicode hex="006B"/>
  <outline>
    <contour>
      <point x="467" y="385" type="curve" smooth="yes" name="hr00"/>
      <point x="467" y="467" smooth="yes"/>
      <point x="414" y="514" smooth="yes"/>
      <point x="324" y="514" type="curve" smooth="yes"/>
      <point x="261" y="514"/>
      <point x="204" y="477"/>
      <point x="166" y="421" type="curve"/>
      <point x="166" y="700" type="line"/>
      <point x="90" y="700" type="line"/>
      <point x="90" y="0" type="line"/>
      <point x="166" y="0" type="line"/>
      <point x="166" y="178" type="line"/>
      <point x="205" y="182"/>
      <point x="241" y="188"/>
      <point x="274" y="197" type="curve"/>
      <point x="390" y="0" type="line"/>
      <point x="478" y="0" type="line"/>
      <point x="346" y="224" type="line"/>
      <point x="422" y="261" smooth="yes"/>
      <point x="467" y="317" smooth="yes"/>
    </contour>
    <contour>
      <point x="322" y="446" type="curve" smooth="yes"/>
      <point x="365" y="446" smooth="yes"/>
      <point x="391" y="421" smooth="yes"/>
      <point x="391" y="380" type="curve" smooth="yes"/>
      <point x="391" y="308"/>
      <point x="302" y="257"/>
      <point x="166" y="245" type="curve"/>
      <point x="166" y="267" type="line" smooth="yes"/>
      <point x="166" y="362" smooth="yes"/>
      <point x="239" y="446" smooth="yes"/>
    </contour>
  </outline>
</glyph>
<glyph name="l" format="1">
  <advance width="263"/>
  <unicode hex="006C"/>
  <outline>
    <contour>
      <point x="75" y="700" type="line" name="hr00"/>
      <point x="75" y="110" type="line" smooth="yes"/>
      <point x="75" y="25" smooth="yes"/>
      <point x="108" y="-14" smooth="yes"/>
      <point x="179" y="-14" type="curve" smooth="yes"/>
      <point x="211" y="-14"/>
      <point x="247" y="-2"/>
      <point x="283" y="21" type="curve"/>
      <point x="253" y="75" type="line"/>
      <point x="235" y="63" smooth="yes"/>
      <point x="213" y="55" smooth="yes"/>
      <point x="196" y="55" type="curve" smooth="yes"/>
      <point x="167" y="55" smooth="yes"/>
      <point x="151" y="75" smooth="yes"/>
      <point x="151" y="110" type="curve" smooth="yes"/>
      <point x="151" y="700" type="line"/>
    </contour>
  </outline>
</glyph>
<glyph name="m" format="1">
  <advance width="872"/>
  <unicode hex="006D"/>
  <outline>
    <contour>
      <point x="85" y="400" type="line" name="hr00"/>
      <point x="85" y="0" type="line"/>
      <point x="161" y="0" type="line"/>
      <point x="161" y="220" type="line" smooth="yes"/>
      <point x="161" y="349" smooth="yes"/>
      <point x="227" y="446" smooth="yes"/>
      <point x="308" y="446" type="curve" smooth="yes"/>
      <point x="371" y="446" smooth="yes"/>
      <point x="403" y="398" smooth="yes"/>
      <point x="403" y="304" type="curve" smooth="yes"/>
      <point x="403" y="0" type="line"/>
      <point x="479" y="0" type="line"/>
      <point x="479" y="210" type="line" smooth="yes"/>
      <point x="479" y="344" smooth="yes"/>
      <point x="543" y="446" smooth="yes"/>
      <point x="626" y="446" type="curve" smooth="yes"/>
      <point x="689" y="446" smooth="yes"/>
      <point x="721" y="398" smooth="yes"/>
      <point x="721" y="304" type="curve" smooth="yes"/>
      <point x="721" y="0" type="line"/>
      <point x="797" y="0" type="line"/>
      <point x="797" y="304" type="line" smooth="yes"/>
      <point x="797" y="442" smooth="yes"/>
      <point x="742" y="514" smooth="yes"/>
      <point x="638" y="514" type="curve" smooth="yes"/>
      <point x="568" y="514"/>
      <point x="507" y="465"/>
      <point x="470" y="388" type="curve"/>
      <point x="451" y="471" smooth="yes"/>
      <point x="400" y="514" smooth="yes"/>
      <point x="320" y="514" type="curve" smooth="yes"/>
      <point x="254" y="514"/>
      <point x="198" y="471"/>
      <point x="160" y="402" type="curve"/>
      <point x="141" y="505" type="line"/>
      <point x="75" y="500" type="line"/>
    </contour>
  </outline>
</glyph>
<glyph name="n" format="1">
  <advance width="569"/>
  <unicode hex="006E"/>
  <outline>
    <contour>
      <point x="85" y="400" type="line" name="hr00"/>
      <point x="85" y="0" type="line"/>
      <point x="161" y="0" type="line"/>
      <point x="161" y="220" type="line" smooth="yes"/>
      <point x="161" y="348" smooth="yes"/>
      <point x="231" y="446" smooth="yes"/>
      <point x="317" y="446" type="curve" smooth="yes"/>
      <point x="384" y="446" smooth="yes"/>
      <point x="418" y="398" smooth="yes"/>
      <point x="418" y="304" type="curve" smooth="yes"/>
      <point x="418" y="0" type="line"/>
      <point x="494" y="0" type="line"/>
      <point x="494" y="304" type="line" smooth="yes"/>
      <point x="494" y="443" smooth="yes"/>
      <point x="438" y="514" smooth="yes"/>
      <point x="330" y="514" type="curve" smooth="yes"/>
      <point x="260" y="514"/>
      <point x="200" y="470"/>
      <point x="161" y="401" type="curve"/>
      <point x="141" y="505" type="line"/>
      <point x="75" y="500" type="line"/>
    </contour>
  </outline>
</glyph>
<glyph name="o" format="1">
  <advance width="541"/>
  <unicode hex="006F"/>
  <outline>
    <contour>
      <point x="50" y="250" type="curve" smooth="yes" name="hr00"/>
      <point x="50" y="84" smooth="yes"/>
      <point x="132" y="-14" smooth="yes"/>
      <point x="270" y="-14" type="curve" smooth="yes"/>
      <point x="408" y="-14" smooth="yes"/>
      <point x="491" y="86" smooth="yes"/>
      <point x="491" y="250" type="curve" smooth="yes"/>
      <point x="491" y="414" smooth="yes"/>
      <point x="408" y="514" smooth="yes"/>
      <point x="270" y="514" type="curve" smooth="yes"/>
      <point x="132" y="514" smooth="yes"/>
      <point x="50" y="416" smooth="yes"/>
    </contour>
    <contour>
      <point x="126" y="250" type="curve" smooth="yes"/>
      <point x="126" y="373" smooth="yes"/>
      <point x="179" y="446" smooth="yes"/>
      <point x="270" y="446" type="curve" smooth="yes"/>
      <point x="361" y="446" smooth="yes"/>
      <point x="415" y="373" smooth="yes"/>
      <point x="415" y="250" type="curve" smooth="yes"/>
      <point x="415" y="127" smooth="yes"/>
      <point x="361" y="54" smooth="yes"/>
      <point x="270" y="54" type="curve" smooth="yes"/>
      <point x="179" y="54" smooth="yes"/>
      <point x="126" y="127" smooth="yes"/>
    </contour>
  </outline>
</glyph>
<glyph name="p" format="1">
  <advance width="564"/>
  <unicode hex="0070"/>
  <outline>
    <contour>
      <point x="75" y="500" type="line" name="hr00"/>
      <point x="85" y="400" type="line"/>
      <point x="85" y="-225" type="line"/>
      <point x="161" y="-225" type="line"/>
      <point x="161" y="5" type="line"/>
      <point x="196" y="-7" smooth="yes"/>
      <point x="233" y="-14" smooth="yes"/>
      <point x="268" y="-14" type="curve" smooth="yes"/>
      <point x="411" y="-14" smooth="yes"/>
      <point x="514" y="100" smooth="yes"/>
      <point x="514" y="259" type="curve" smooth="yes"/>
      <point x="514" y="416" smooth="yes"/>
      <point x="439" y="514" smooth="yes"/>
      <point x="318" y="514" type="curve" smooth="yes"/>
      <point x="249" y="514"/>
      <point x="194" y="476"/>
      <point x="158" y="412" type="curve"/>
      <point x="141" y="505" type="line"/>
    </contour>
    <contour>
      <point x="303" y="446" type="curve" smooth="yes"/>
      <point x="386" y="446" smooth="yes"/>
      <point x="438" y="374" smooth="yes"/>
      <point x="438" y="259" type="curve" smooth="yes"/>
      <point x="438" y="139" smooth="yes"/>
      <point x="367" y="54" smooth="yes"/>
      <point x="268" y="54" type="curve" smooth="yes"/>
      <point x="232" y="54"/>
      <point x="193" y="64"/>
      <point x="161" y="82" type="curve"/>
      <point x="161" y="225" type="line" smooth="yes"/>
      <point x="161" y="358" smooth="yes"/>
      <point x="220" y="446" smooth="yes"/>
    </contour>
  </outline>
</glyph>
<glyph name="q" format="1">
  <advance width="569"/>
  <unicode hex="0071"/>
  <outline>
    <contour>
      <point x="479" y="-225" type="line" name="hr00"/>
      <point x="479" y="454" type="line"/>
      <point x="428" y="490" smooth="yes"/>
      <point x="355" y="513" smooth="yes"/>
      <point x="296" y="513" type="curve" smooth="yes"/>
      <point x="153" y="513" smooth="yes"/>
      <point x="50" y="399" smooth="yes"/>
      <point x="50" y="240" type="curve" smooth="yes"/>
      <point x="50" y="83" smooth="yes"/>
      <point x="123" y="-15" smooth="yes"/>
      <point x="241" y="-15" type="curve" smooth="yes"/>
      <point x="312" y="-15"/>
      <point x="367" y="17"/>
      <point x="403" y="78" type="curve"/>
      <point x="403" y="-225" type="line"/>
    </contour>
    <contour>
      <point x="241" y="53" type="curve" smooth="yes"/>
      <point x="170" y="53" smooth="yes"/>
      <point x="126" y="125" smooth="yes"/>
      <point x="126" y="240" type="curve" smooth="yes"/>
      <point x="126" y="360" smooth="yes"/>
      <point x="197" y="445" smooth="yes"/>
      <point x="296" y="445" type="curve" smooth="yes"/>
      <point x="334" y="445"/>
      <point x="374" y="436"/>
      <point x="403" y="421" type="curve"/>
      <point x="403" y="289" type="line" smooth="yes"/>
      <point x="403" y="147" smooth="yes"/>
      <point x="338" y="53" smooth="yes"/>
    </contour>
  </outline>
</glyph>
<glyph name="r" format="1">
  <advance width="352"/>
  <unicode hex="0072"/>
  <outline>
    <contour>
      <point x="85" y="400" type="line" name="hr00"/>
      <point x="85" y="0" type="line"/>
      <point x="161" y="0" type="line"/>
      <point x="161" y="164" type="line" smooth="yes"/>
      <point x="161" y="332"/>
      <point x="226" y="425"/>
      <point x="342" y="435" type="curve"/>
      <point x="337" y="511" type="line"/>
      <point x="261" y="511"/>
      <point x="200" y="464"/>
      <point x="161" y="384" type="curve"/>
      <point x="141" y="505" type="line"/>
      <point x="75" y="500" type="line"/>
    </contour>
  </outline>
</glyph>
<glyph name="s" format="1">
  <advance width="431"/>
  <unicode hex="0073"/>
  <outline>
    <contour>
      <point x="40" y="53" type="line" name="hr00"/>
      <point x="86" y="11" smooth="yes"/>
      <point x="150" y="-14" smooth="yes"/>
      <point x="216" y="-14" type="curve" smooth="yes"/>
      <point x="325" y="-14" smooth="yes"/>
      <point x="396" y="46" smooth="yes"/>
      <point x="396" y="138" type="curve" smooth="yes"/>
      <point x="396" y="220" smooth="yes"/>
      <point x="354" y="261" smooth="yes"/>
      <point x="236" y="296" type="curve" smooth="yes"/>
      <point x="163" y="317" smooth="yes"/>
      <point x="138" y="337" smooth="yes"/>
      <point x="138" y="374" type="curve" smooth="yes"/>
      <point x="138" y="415" smooth="yes"/>
      <point x="175" y="445" smooth="yes"/>
      <point x="226" y="445" type="curve" smooth="yes"/>
      <point x="265" y="445"/>
      <point x="316" y="434"/>
      <point x="343" y="419" type="curve"/>
      <point x="371" y="480" type="line"/>
      <point x="338" y="499" smooth="yes"/>
      <point x="272" y="514" smooth="yes"/>
      <point x="226" y="514" type="curve" smooth="yes"/>
      <point x="128" y="514" smooth="yes"/>
      <point x="62" y="454" smooth="yes"/>
      <point x="62" y="367" type="curve" smooth="yes"/>
      <point x="62" y="292" smooth="yes"/>
      <point x="99" y="256" smooth="yes"/>
      <point x="214" y="222" type="curve" smooth="yes"/>
      <point x="291" y="200" smooth="yes"/>
      <point x="320" y="176" smooth="yes"/>
      <point x="320" y="135" type="curve" smooth="yes"/>
      <point x="320" y="87" smooth="yes"/>
      <point x="278" y="55" smooth="yes"/>
      <point x="216" y="55" type="curve" smooth="yes"/>
      <point x="168" y="55"/>
      <point x="114" y="76"/>
      <point x="81" y="108" type="curve"/>
    </contour>
  </outline>
</glyph>
<glyph name="t" format="1">
  <advance width="331"/>
  <unicode hex="0074"/>
  <outline>
    <contour>
      <point x="29" y="435" type="line" name="hr00"/>
      <point x="105" y="435" type="line"/>
      <point x="105" y="109" type="line" smooth="yes"/>
      <point x="105" y="24" smooth="yes"/>
      <point x="137" y="-14" smooth="yes"/>
      <point x="209" y="-14" type="curve" smooth="yes"/>
      <point x="248" y="-14"/>
      <point x="290" y="2"/>
      <point x="328" y="32" type="curve"/>
      <point x="300" y="83" type="line"/>
      <point x="274" y="64" smooth="yes"/>
      <point x="248" y="54" smooth="yes"/>
      <point x="226" y="54" type="curve" smooth="yes"/>
      <point x="197" y="54" smooth="yes"/>
      <point x="181" y="74" smooth="yes"/>
      <point x="181" y="109" type="curve" smooth="yes"/>
      <point x="181" y="435" type="line"/>
      <point x="298" y="435" type="line"/>
      <point x="298" y="500" type="line"/>
      <point x="181" y="500" type="line"/>
      <point x="181" y="650" type="line"/>
      <point x="129" y="650" type="line"/>
      <point x="105" y="500" type="line"/>
      <point x="29" y="500" type="line"/>
    </contour>
  </outline>
</glyph>
<glyph name="u" format="1">
  <advance width="569"/>
  <unicode hex="0075"/>
  <outline>
    <contour>
      <point x="75" y="500" type="line" name="hr00"/>
      <point x="75" y="196" type="line" smooth="yes"/>
      <point x="75" y="57" smooth="yes"/>
      <point x="131" y="-14" smooth="yes"/>
      <point x="239" y="-14" type="curve" smooth="yes"/>
      <point x="309" y="-14"/>
      <point x="369" y="29"/>
      <point x="408" y="99" type="curve"/>
      <point x="428" y="-5" type="line"/>
      <point x="494" y="0" type="line"/>
      <point x="484" y="100" type="line"/>
      <point x="484" y="500" type="line"/>
      <point x="408" y="500" type="line"/>
      <point x="408" y="290" type="line" smooth="yes"/>
      <point x="408" y="157" smooth="yes"/>
      <point x="340" y="54" smooth="yes"/>
      <point x="252" y="54" type="curve" smooth="yes"/>
      <point x="185" y="54" smooth="yes"/>
      <point x="151" y="102" smooth="yes"/>
      <point x="151" y="196" type="curve" smooth="yes"/>
      <point x="151" y="500" type="line"/>
    </contour>
  </outline>
</glyph>
<glyph name="v" format="1">
  <advance width="472"/>
  <unicode hex="0076"/>
  <outline>
    <contour>
      <point x="87" y="500" type="line" name="hr00"/>
      <point x="5" y="500" type="line"/>
      <point x="191" y="0" type="line"/>
      <point x="281" y="0" type="line"/>
      <point x="467" y="500" type="line"/>
      <point x="386" y="500" type="line"/>
      <point x="237" y="87" type="line"/>
    </contour>
  </outline>
</glyph>
<glyph name="w" format="1">
  <advance width="706"/>
  <unicode hex="0077"/>
  <outline>
    <contour>
      <point x="389" y="500" type="line" name="hr00"/>
      <point x="503" y="118" type="line"/>
      <point x="611" y="500" type="line"/>
      <point x="691" y="500" type="line"/>
      <point x="550" y="0" type="line"/>
      <point x="465" y="0" type="line"/>
      <point x="353" y="369" type="line"/>
      <point x="241" y="0" type="line"/>
      <point x="156" y="0" type="line"/>
      <point x="15" y="500" type="line"/>
      <point x="95" y="500" type="line"/>
      <point x="203" y="118" type="line"/>
      <point x="317" y="500" type="line"/>
    </contour>
  </outline>
</glyph>
<glyph name="x" format="1">
  <advance width="435"/>
  <unicode hex="0078"/>
  <outline>
    <contour>
      <point x="16" y="500" type="line" name="hr00"/>
      <point x="172" y="258" type="line"/>
      <point x="5" y="0" type="line"/>
      <point x="95" y="0" type="line"/>
      <point x="217" y="189" type="line"/>
      <point x="340" y="0" type="line"/>
      <point x="430" y="0" type="line"/>
      <point x="266" y="253" type="line"/>
      <point x="425" y="500" type="line"/>
      <point x="335" y="500" type="line"/>
      <point x="220" y="323" type="line"/>
      <point x="106" y="500" type="line"/>
    </contour>
  </outline>
</glyph>
<glyph name="y" format="1">
  <advance width="475"/>
  <unicode hex="0079"/>
  <outline>
    <contour>
      <point x="197" y="-239" type="line" name="hr00"/>
      <point x="467" y="500" type="line"/>
      <point x="387" y="500" type="line"/>
      <point x="238" y="82" type="line"/>
      <point x="87" y="500" type="line"/>
      <point x="5" y="500" type="line"/>
      <point x="200" y="-26" type="line"/>
      <point x="132" y="-217" type="line"/>
    </contour>
  </outline>
</glyph>
<glyph name="z" format="1">
  <advance width="420"/>
  <unicode hex="007A"/>
  <outline>
    <contour>
      <point x="42" y="435" type="line" name="hr00"/>
      <point x="271" y="435" type="line"/>
      <point x="11" y="0" type="line"/>
      <point x="399" y="0" type="line"/>
      <point x="399" y="65" type="line"/>
      <point x="138" y="65" type="line"/>
      <point x="400" y="500" type="line"/>
      <point x="42" y="500" type="line"/>
    </contour>
  </outline>
</glyph>
<glyph name="braceleft" format="1">
  <advance width="277"/>
  <unicode hex="007B"/>
  <outline>
    <contour>
      <point x="262" y="0" type="line" name="hr00"/>
      <point x="262" y="-60" type="line"/>
      <point x="170" y="-60" type="line" smooth="yes"/>
      <point x="121" y="-60" smooth="yes"/>
      <point x="90" y="-29" smooth="yes"/>
      <point x="90" y="20" type="curve" smooth="yes"/>
      <point x="90" y="239" type="line" smooth="yes"/>
      <point x="90" y="273"/>
      <point x="73" y="286"/>
      <point x="30" y="286" type="curve"/>
      <point x="30" y="336" type="line"/>
      <point x="73" y="336" smooth="yes"/>
      <point x="90" y="349" smooth="yes"/>
      <point x="90" y="383" type="curve" smooth="yes"/>
      <point x="90" y="602" type="line" smooth="yes"/>
      <point x="90" y="650" smooth="yes"/>
      <point x="121" y="682" smooth="yes"/>
      <point x="170" y="682" type="curve" smooth="yes"/>
      <point x="262" y="682" type="line"/>
      <point x="262" y="622" type="line"/>
      <point x="187" y="622" type="line" smooth="yes"/>
      <point x="176" y="622" smooth="yes"/>
      <point x="170" y="615" smooth="yes"/>
      <point x="170" y="605" type="curve" smooth="yes"/>
      <point x="170" y="372" type="line" smooth="yes"/>
      <point x="170" y="336"/>
      <point x="151" y="314"/>
      <point x="121" y="314" type="curve"/>
      <point x="121" y="308" type="line"/>
      <point x="151" y="308" smooth="yes"/>
      <point x="170" y="286" smooth="yes"/>
      <point x="170" y="250" type="curve" smooth="yes"/>
      <point x="170" y="17" type="line" smooth="yes"/>
      <point x="170" y="6" smooth="yes"/>
      <point x="176" y="0" smooth="yes"/>
      <point x="187" y="0" type="curve" smooth="yes"/>
    </contour>
  </outline>
</glyph>
<glyph name="bar" format="1">
  <advance width="272"/>
  <unicode hex="007C"/>
  <outline>
    <contour>
      <point x="90" y="-76" type="line" name="hr00"/>
      <point x="182" y="-76" type="line"/>
      <point x="182" y="756" type="line"/>
      <point x="90" y="756" type="line"/>
    </contour>
  </outline>
</glyph>
<glyph name="braceright" format="1">
  <advance width="277"/>
  <unicode hex="007D"/>
  <outline>
    <contour>
      <point x="15" y="0" type="line" name="hr00"/>
      <point x="15" y="-60" type="line"/>
      <point x="107" y="-60" type="line" smooth="yes"/>
      <point x="155" y="-60" smooth="yes"/>
      <point x="187" y="-29" smooth="yes"/>
      <point x="187" y="20" type="curve" smooth="yes"/>
      <point x="187" y="239" type="line" smooth="yes"/>
      <point x="187" y="273"/>
      <point x="204" y="286"/>
      <point x="247" y="286" type="curve"/>
      <point x="247" y="336" type="line"/>
      <point x="204" y="336" smooth="yes"/>
      <point x="187" y="349" smooth="yes"/>
      <point x="187" y="383" type="curve" smooth="yes"/>
      <point x="187" y="602" type="line" smooth="yes"/>
      <point x="187" y="650" smooth="yes"/>
      <point x="155" y="682" smooth="yes"/>
      <point x="107" y="682" type="curve" smooth="yes"/>
      <point x="15" y="682" type="line"/>
      <point x="15" y="622" type="line"/>
      <point x="90" y="622" type="line" smooth="yes"/>
      <point x="100" y="622" smooth="yes"/>
      <point x="107" y="615" smooth="yes"/>
      <point x="107" y="605" type="curve" smooth="yes"/>
      <point x="107" y="372" type="line" smooth="yes"/>
      <point x="107" y="336"/>
      <point x="126" y="314"/>
      <point x="156" y="314" type="curve"/>
      <point x="156" y="308" type="line"/>
      <point x="126" y="308" smooth="yes"/>
      <point x="107" y="286" smooth="yes"/>
      <point x="107" y="250" type="curve" smooth="yes"/>
      <point x="107" y="17" type="line" smooth="yes"/>
      <point x="107" y="6" smooth="yes"/>
      <point x="100" y="0" smooth="yes"/>
      <point x="90" y="0" type="curve" smooth="yes"/>
    </contour>
  </outline>
</glyph>
<glyph name="asciitilde" format="1">
  <advance width="518"/>
  <unicode hex="007E"/>
  <outline>
    <contour>
      <point x="420" y="377" type="line" name="hr00"/>
      <point x="397" y="337" smooth="yes"/>
      <point x="378" y="321" smooth="yes"/>
      <point x="353" y="321" type="curve" smooth="yes"/>
      <point x="296" y="321" smooth="yes"/>
      <point x="239" y="398" smooth="yes"/>
      <point x="165" y="398" type="curve" smooth="yes"/>
      <point x="116" y="398"/>
      <point x="78" y="368"/>
      <point x="42" y="300" type="curve"/>
      <point x="98" y="269" type="line"/>
      <point x="120" y="309" smooth="yes"/>
      <point x="140" y="325" smooth="yes"/>
      <point x="165" y="325" type="curve" smooth="yes"/>
      <point x="222" y="325" smooth="yes"/>
      <point x="279" y="248" smooth="yes"/>
      <point x="353" y="248" type="curve" smooth="yes"/>
      <point x="402" y="248"/>
      <point x="439" y="278"/>
      <point x="476" y="346" type="curve"/>
    </contour>
  </outline>
</glyph>
<glyph name="exclamdown" format="1">
  <advance width="270"/>
  <unicode hex="00A1"/>
  <outline>
    <contour>
      <point x="80" y="458" type="curve" name="hr00"/>
      <point x="80" y="424" smooth="yes"/>
      <point x="101" y="403" smooth="yes"/>
      <point x="135" y="403" type="curve" smooth="yes"/>
      <point x="168" y="403" smooth="yes"/>
      <point x="190" y="425" smooth="yes"/>
      <point x="190" y="458" type="curve" smooth="yes"/>
      <point x="190" y="491" smooth="yes"/>
      <point x="168" y="513" smooth="yes"/>
      <point x="135" y="513" type="curve" smooth="yes"/>
      <point x="101" y="513" smooth="yes"/>
      <point x="80" y="491" smooth="yes"/>
    </contour>
    <contour>
      <point x="92" y="-161" type="line"/>
      <point x="178" y="-161" type="line"/>
      <point x="168" y="319" type="line"/>
      <point x="102" y="319" type="line"/>
    </contour>
  </outline>
</glyph>
<glyph name="cent" format="1">
  <advance width="518"/>
  <unicode hex="00A2"/>
  <outline>
    <contour>
      <point x="238" y="-85" type="line" name="hr00"/>
      <point x="291" y="-85" type="line"/>
      <point x="301" y="56" type="line"/>
      <point x="370" y="58"/>
      <point x="426" y="81"/>
      <point x="476" y="129" type="curve"/>
      <point x="439" y="181" type="line"/>
      <point x="404" y="149"/>
      <point x="355" y="129"/>
      <point x="306" y="127" type="curve"/>
      <point x="332" y="512" type="line"/>
      <point x="361" y="509"/>
      <point x="390" y="499"/>
      <point x="419" y="484" type="curve"/>
      <point x="439" y="548" type="line"/>
      <point x="406" y="567"/>
      <point x="373" y="579"/>
      <point x="337" y="583" type="curve"/>
      <point x="346" y="705" type="line"/>
      <point x="293" y="705" type="line"/>
      <point x="284" y="582" type="line"/>
      <point x="156" y="570" smooth="yes"/>
      <point x="75" y="464" smooth="yes"/>
      <point x="75" y="304" type="curve" smooth="yes"/>
      <point x="75" y="171"/>
      <point x="142" y="79"/>
      <point x="248" y="60" type="curve"/>
    </contour>
    <contour>
      <point x="154" y="314" type="curve" smooth="yes"/>
      <point x="154" y="418"/>
      <point x="203" y="493"/>
      <point x="279" y="509" type="curve"/>
      <point x="253" y="133" type="line"/>
      <point x="190" y="152" smooth="yes"/>
      <point x="154" y="217" smooth="yes"/>
    </contour>
  </outline>
</glyph>
<glyph name="sterling" format="1">
  <advance width="518"/>
  <unicode hex="00A3"/>
  <outline>
    <contour>
      <point x="44" y="268" type="line" name="hr00"/>
      <point x="108" y="268" type="line"/>
      <point x="108" y="0" type="line"/>
      <point x="451" y="0" type="line"/>
      <point x="451" y="71" type="line"/>
      <point x="179" y="71" type="line"/>
      <point x="179" y="268" type="line"/>
      <point x="387" y="268" type="line"/>
      <point x="387" y="333" type="line"/>
      <point x="179" y="333" type="line"/>
      <point x="179" y="352" type="line" smooth="yes"/>
      <point x="179" y="497" smooth="yes"/>
      <point x="226" y="571" smooth="yes"/>
      <point x="318" y="571" type="curve" smooth="yes"/>
      <point x="356" y="571"/>
      <point x="389" y="565"/>
      <point x="417" y="552" type="curve"/>
      <point x="448" y="612" type="line"/>
      <point x="413" y="628" smooth="yes"/>
      <point x="373" y="636" smooth="yes"/>
      <point x="326" y="636" type="curve" smooth="yes"/>
      <point x="184" y="636" smooth="yes"/>
      <point x="108" y="537" smooth="yes"/>
      <point x="108" y="352" type="curve" smooth="yes"/>
      <point x="108" y="333" type="line"/>
      <point x="44" y="333" type="line"/>
    </contour>
  </outline>
</glyph>
<glyph name="currency" format="1">
  <advance width="518"/>
  <unicode hex="00A4"/>
  <outline>
    <contour>
      <point x="87" y="310" type="curve" smooth="yes" name="hr00"/>
      <point x="87" y="272"/>
      <point x="96" y="239"/>
      <point x="113" y="212" type="curve"/>
      <point x="42" y="141" type="line"/>
      <point x="91" y="92" type="line"/>
      <point x="162" y="163" type="line"/>
      <point x="188" y="147" smooth="yes"/>
      <point x="221" y="138" smooth="yes"/>
      <point x="259" y="138" type="curve" smooth="yes"/>
      <point x="296" y="138"/>
      <point x="329" y="147"/>
      <point x="356" y="164" type="curve"/>
      <point x="428" y="93" type="line"/>
      <point x="477" y="142" type="line"/>
      <point x="405" y="214" type="line"/>
      <point x="421" y="240" smooth="yes"/>
      <point x="431" y="273" smooth="yes"/>
      <point x="431" y="310" type="curve" smooth="yes"/>
      <point x="431" y="347"/>
      <point x="421" y="380"/>
      <point x="404" y="407" type="curve"/>
      <point x="476" y="479" type="line"/>
      <point x="427" y="528" type="line"/>
      <point x="355" y="456" type="line"/>
      <point x="328" y="472" smooth="yes"/>
      <point x="295" y="482" smooth="yes"/>
      <point x="259" y="482" type="curve" smooth="yes"/>
      <point x="221" y="482"/>
      <point x="188" y="472"/>
      <point x="161" y="456" type="curve"/>
      <point x="90" y="527" type="line"/>
      <point x="41" y="478" type="line"/>
      <point x="112" y="407" type="line"/>
      <point x="96" y="380" smooth="yes"/>
      <point x="87" y="347" smooth="yes"/>
    </contour>
    <contour>
      <point x="151" y="310" type="curve" smooth="yes"/>
      <point x="151" y="375" smooth="yes"/>
      <point x="193" y="418" smooth="yes"/>
      <point x="259" y="418" type="curve" smooth="yes"/>
      <point x="323" y="418" smooth="yes"/>
      <point x="367" y="374" smooth="yes"/>
      <point x="367" y="310" type="curve" smooth="yes"/>
      <point x="367" y="245" smooth="yes"/>
      <point x="323" y="202" smooth="yes"/>
      <point x="259" y="202" type="curve" smooth="yes"/>
      <point x="193" y="202" smooth="yes"/>
      <point x="151" y="244" smooth="yes"/>
    </contour>
  </outline>
</glyph>
<glyph name="yen" format="1">
  <advance width="518"/>
  <unicode hex="00A5"/>
  <outline>
    <contour>
      <point x="444" y="153" type="line" name="hr00"/>
      <point x="444" y="213" type="line"/>
      <point x="294" y="213" type="line"/>
      <point x="294" y="241" type="line"/>
      <point x="328" y="308" type="line"/>
      <point x="444" y="308" type="line"/>
      <point x="444" y="368" type="line"/>
      <point x="358" y="368" type="line"/>
      <point x="486" y="619" type="line"/>
      <point x="404" y="619" type="line"/>
      <point x="259" y="329" type="line"/>
      <point x="114" y="619" type="line"/>
      <point x="32" y="619" type="line"/>
      <point x="159" y="368" type="line"/>
      <point x="74" y="368" type="line"/>
      <point x="74" y="308" type="line"/>
      <point x="190" y="308" type="line"/>
      <point x="224" y="241" type="line"/>
      <point x="224" y="213" type="line"/>
      <point x="74" y="213" type="line"/>
      <point x="74" y="153" type="line"/>
      <point x="224" y="153" type="line"/>
      <point x="224" y="0" type="line"/>
      <point x="294" y="0" type="line"/>
      <point x="294" y="153" type="line"/>
    </contour>
  </outline>
</glyph>
<glyph name="brokenbar" format="1">
  <advance width="272"/>
  <unicode hex="00A6"/>
  <outline>
    <contour>
      <point x="90" y="418" type="line" name="hr00"/>
      <point x="182" y="418" type="line"/>
      <point x="182" y="700" type="line"/>
      <point x="90" y="700" type="line"/>
    </contour>
    <contour>
      <point x="90" y="-76" type="line"/>
      <point x="182" y="-76" type="line"/>
      <point x="182" y="262" type="line"/>
      <point x="90" y="262" type="line"/>
    </contour>
  </outline>
</glyph>
<glyph name="section" format="1">
  <advance width="412"/>
  <unicode hex="00A7"/>
  <outline>
    <contour>
      <point x="302" y="48" type="curve" smooth="yes" name="hr00"/>
      <point x="302" y="-23" smooth="yes"/>
      <point x="258" y="-67" smooth="yes"/>
      <point x="186" y="-67" type="curve" smooth="yes"/>
      <point x="145" y="-67"/>
      <point x="98" y="-52"/>
      <point x="62" y="-29" type="curve"/>
      <point x="30" y="-87" type="line"/>
      <point x="71" y="-116" smooth="yes"/>
      <point x="135" y="-134" smooth="yes"/>
      <point x="195" y="-134" type="curve" smooth="yes"/>
      <point x="305" y="-134" smooth="yes"/>
      <point x="382" y="-59" smooth="yes"/>
      <point x="382" y="48" type="curve" smooth="yes"/>
      <point x="382" y="185" smooth="yes"/>
      <point x="270" y="214" smooth="yes"/>
      <point x="183" y="256" type="curve" smooth="yes"/>
      <point x="74" y="308" type="line"/>
      <point x="67" y="300" type="line"/>
      <point x="113" y="139" smooth="yes"/>
      <point x="302" y="188" smooth="yes"/>
    </contour>
    <contour>
      <point x="112" y="512" type="curve" smooth="yes"/>
      <point x="112" y="583" smooth="yes"/>
      <point x="156" y="627" smooth="yes"/>
      <point x="228" y="627" type="curve" smooth="yes"/>
      <point x="265" y="627"/>
      <point x="302" y="615"/>
      <point x="342" y="589" type="curve"/>
      <point x="374" y="647" type="line"/>
      <point x="330" y="678" smooth="yes"/>
      <point x="276" y="694" smooth="yes"/>
      <point x="219" y="694" type="curve" smooth="yes"/>
      <point x="109" y="694" smooth="yes"/>
      <point x="32" y="619" smooth="yes"/>
      <point x="32" y="512" type="curve" smooth="yes"/>
      <point x="32" y="375" smooth="yes"/>
      <point x="144" y="346" smooth="yes"/>
      <point x="231" y="304" type="curve" smooth="yes"/>
      <point x="340" y="252" type="line"/>
      <point x="347" y="260" type="line"/>
      <point x="301" y="421" smooth="yes"/>
      <point x="112" y="372" smooth="yes"/>
    </contour>
  </outline>
</glyph>
<glyph name="dieresis" format="1">
  <advance width="370"/>
  <unicode hex="00A8"/>
  <outline>
    <contour>
      <point x="226" y="644" type="curve" smooth="yes" name="hr00"/>
      <point x="226" y="614" smooth="yes"/>
      <point x="244" y="596" smooth="yes"/>
      <point x="274" y="596" type="curve" smooth="yes"/>
      <point x="302" y="596" smooth="yes"/>
      <point x="322" y="615" smooth="yes"/>
      <point x="322" y="644" type="curve" smooth="yes"/>
      <point x="322" y="672" smooth="yes"/>
      <point x="302" y="692" smooth="yes"/>
      <point x="274" y="692" type="curve" smooth="yes"/>
      <point x="244" y="692" smooth="yes"/>
      <point x="226" y="673" smooth="yes"/>
    </contour>
    <contour>
      <point x="48" y="644" type="curve" smooth="yes"/>
      <point x="48" y="614" smooth="yes"/>
      <point x="66" y="596" smooth="yes"/>
      <point x="96" y="596" type="curve" smooth="yes"/>
      <point x="124" y="596" smooth="yes"/>
      <point x="144" y="615" smooth="yes"/>
      <point x="144" y="644" type="curve" smooth="yes"/>
      <point x="144" y="672" smooth="yes"/>
      <point x="124" y="692" smooth="yes"/>
      <point x="96" y="692" type="curve" smooth="yes"/>
      <point x="66" y="692" smooth="yes"/>
      <point x="48" y="673" smooth="yes"/>
    </contour>
  </outline>
</glyph>
<glyph name="copyright" format="1">
  <advance width="642"/>
  <unicode hex="00A9"/>
  <outline>
    <contour>
      <point x="35" y="529" type="curve" smooth="yes" name="hr00"/>
      <point x="35" y="355" smooth="yes"/>
      <point x="147" y="243" smooth="yes"/>
      <point x="321" y="243" type="curve" smooth="yes"/>
      <point x="490" y="243" smooth="yes"/>
      <point x="607" y="359" smooth="yes"/>
      <point x="607" y="529" type="curve" smooth="yes"/>
      <point x="607" y="698" smooth="yes"/>
      <point x="490" y="815" smooth="yes"/>
      <point x="321" y="815" type="curve" smooth="yes"/>
      <point x="147" y="815" smooth="yes"/>
      <point x="35" y="702" smooth="yes"/>
    </contour>
    <contour>
      <point x="85" y="529" type="curve" smooth="yes"/>
      <point x="85" y="673" smooth="yes"/>
      <point x="178" y="767" smooth="yes"/>
      <point x="321" y="767" type="curve" smooth="yes"/>
      <point x="461" y="767" smooth="yes"/>
      <point x="557" y="670" smooth="yes"/>
      <point x="557" y="529" type="curve" smooth="yes"/>
      <point x="557" y="388" smooth="yes"/>
      <point x="461" y="291" smooth="yes"/>
      <point x="321" y="291" type="curve" smooth="yes"/>
      <point x="178" y="291" smooth="yes"/>
      <point x="85" y="385" smooth="yes"/>
    </contour>
    <contour>
      <point x="410" y="433" type="line"/>
      <point x="387" y="415" smooth="yes"/>
      <point x="357" y="405" smooth="yes"/>
      <point x="326" y="405" type="curve" smooth="yes"/>
      <point x="268" y="405" smooth="yes"/>
      <point x="231" y="452" smooth="yes"/>
      <point x="231" y="523" type="curve" smooth="yes"/>
      <point x="231" y="606" smooth="yes"/>
      <point x="272" y="660" smooth="yes"/>
      <point x="336" y="660" type="curve" smooth="yes"/>
      <point x="359" y="660"/>
      <point x="386" y="651"/>
      <point x="411" y="634" type="curve"/>
      <point x="425" y="687" type="line"/>
      <point x="397" y="705" smooth="yes"/>
      <point x="368" y="713" smooth="yes"/>
      <point x="336" y="713" type="curve" smooth="yes"/>
      <point x="237" y="713" smooth="yes"/>
      <point x="175" y="639" smooth="yes"/>
      <point x="175" y="523" type="curve" smooth="yes"/>
      <point x="175" y="420" smooth="yes"/>
      <point x="235" y="352" smooth="yes"/>
      <point x="326" y="352" type="curve" smooth="yes"/>
      <point x="362" y="352"/>
      <point x="403" y="366"/>
      <point x="435" y="390" type="curve"/>
    </contour>
  </outline>
</glyph>
<glyph name="ordfeminine" format="1">
  <advance width="355"/>
  <unicode hex="00AA"/>
  <outline>
    <contour>
      <point x="303" y="461" type="line" name="hr00"/>
      <point x="296" y="527" type="line"/>
      <point x="296" y="737" type="line"/>
      <point x="265" y="759" smooth="yes"/>
      <point x="218" y="774" smooth="yes"/>
      <point x="182" y="774" type="curve" smooth="yes"/>
      <point x="93" y="774" smooth="yes"/>
      <point x="30" y="705" smooth="yes"/>
      <point x="30" y="608" type="curve" smooth="yes"/>
      <point x="30" y="512" smooth="yes"/>
      <point x="77" y="452" smooth="yes"/>
      <point x="153" y="452" type="curve" smooth="yes"/>
      <point x="189" y="452"/>
      <point x="219" y="470"/>
      <point x="240" y="506" type="curve"/>
      <point x="248" y="456" type="line"/>
    </contour>
    <contour>
      <point x="162" y="507" type="curve" smooth="yes"/>
      <point x="118" y="507" smooth="yes"/>
      <point x="92" y="545" smooth="yes"/>
      <point x="92" y="608" type="curve" smooth="yes"/>
      <point x="92" y="673" smooth="yes"/>
      <point x="130" y="720" smooth="yes"/>
      <point x="182" y="720" type="curve" smooth="yes"/>
      <point x="200" y="720"/>
      <point x="218" y="716"/>
      <point x="235" y="708" type="curve"/>
      <point x="235" y="632" type="line" smooth="yes"/>
      <point x="235" y="558" smooth="yes"/>
      <point x="205" y="507" smooth="yes"/>
    </contour>
  </outline>
</glyph>
<glyph name="guillemotleft" format="1">
  <advance width="377"/>
  <unicode hex="00AB"/>
  <outline>
    <contour>
      <point x="189" y="242" type="curve" smooth="yes" name="hr00"/>
      <point x="189" y="227" smooth="yes"/>
      <point x="196" y="211" smooth="yes"/>
      <point x="211" y="194" type="curve" smooth="yes"/>
      <point x="316" y="70" type="line"/>
      <point x="347" y="85" type="line"/>
      <point x="282" y="242" type="line"/>
      <point x="347" y="399" type="line"/>
      <point x="316" y="414" type="line"/>
      <point x="211" y="290" type="line" smooth="yes"/>
      <point x="196" y="272" smooth="yes"/>
      <point x="189" y="257" smooth="yes"/>
    </contour>
    <contour>
      <point x="30" y="242" type="curve" smooth="yes"/>
      <point x="30" y="227" smooth="yes"/>
      <point x="37" y="211" smooth="yes"/>
      <point x="52" y="194" type="curve" smooth="yes"/>
      <point x="157" y="70" type="line"/>
      <point x="188" y="85" type="line"/>
      <point x="123" y="242" type="line"/>
      <point x="188" y="399" type="line"/>
      <point x="157" y="414" type="line"/>
      <point x="52" y="290" type="line" smooth="yes"/>
      <point x="37" y="272" smooth="yes"/>
      <point x="30" y="257" smooth="yes"/>
    </contour>
  </outline>
</glyph>
<glyph name="logicalnot" format="1">
  <advance width="518"/>
  <unicode hex="00AC"/>
  <outline>
    <contour>
      <point x="471" y="147" type="line" name="hr00"/>
      <point x="471" y="303" type="line"/>
      <point x="403" y="303" type="line"/>
      <point x="403" y="147" type="line"/>
    </contour>
    <component  base="minus"/>
  </outline>
</glyph>
<glyph name="registered" format="1">
  <advance width="642"/>
  <unicode hex="00AE"/>
  <outline>
    <contour>
      <point x="35" y="529" type="curve" smooth="yes" name="hr00"/>
      <point x="35" y="355" smooth="yes"/>
      <point x="147" y="243" smooth="yes"/>
      <point x="321" y="243" type="curve" smooth="yes"/>
      <point x="490" y="243" smooth="yes"/>
      <point x="607" y="359" smooth="yes"/>
      <point x="607" y="529" type="curve" smooth="yes"/>
      <point x="607" y="698" smooth="yes"/>
      <point x="490" y="815" smooth="yes"/>
      <point x="321" y="815" type="curve" smooth="yes"/>
      <point x="147" y="815" smooth="yes"/>
      <point x="35" y="702" smooth="yes"/>
    </contour>
    <contour>
      <point x="85" y="529" type="curve"/>
      <point x="85" y="673" smooth="yes"/>
      <point x="178" y="767" smooth="yes"/>
      <point x="321" y="767" type="curve" smooth="yes"/>
      <point x="461" y="767" smooth="yes"/>
      <point x="557" y="670" smooth="yes"/>
      <point x="557" y="529" type="curve" smooth="yes"/>
      <point x="557" y="388" smooth="yes"/>
      <point x="461" y="291" smooth="yes"/>
      <point x="321" y="291" type="curve" smooth="yes"/>
      <point x="178" y="291" smooth="yes"/>
      <point x="85" y="385" smooth="yes"/>
    </contour>
    <contour>
      <point x="463" y="367" type="line"/>
      <point x="414" y="497" type="line" smooth="yes"/>
      <point x="409" y="507"/>
      <point x="405" y="513"/>
      <point x="401" y="517" type="curve"/>
      <point x="431" y="536" smooth="yes"/>
      <point x="448" y="566" smooth="yes"/>
      <point x="448" y="602" type="curve" smooth="yes"/>
      <point x="448" y="659" smooth="yes"/>
      <point x="402" y="705" smooth="yes"/>
      <point x="345" y="705" type="curve" smooth="yes"/>
      <point x="215" y="705" type="line"/>
      <point x="215" y="360" type="line"/>
      <point x="272" y="360" type="line"/>
      <point x="272" y="501" type="line"/>
      <point x="343" y="501" type="line" smooth="yes"/>
      <point x="350" y="501" smooth="yes"/>
      <point x="355" y="497" smooth="yes"/>
      <point x="359" y="485" type="curve" smooth="yes"/>
      <point x="411" y="349" type="line"/>
    </contour>
    <contour>
      <point x="343" y="654" type="line"/>
      <point x="370" y="654" smooth="yes"/>
      <point x="392" y="631" smooth="yes"/>
      <point x="392" y="602" type="curve" smooth="yes"/>
      <point x="392" y="574" smooth="yes"/>
      <point x="370" y="550" smooth="yes"/>
      <point x="343" y="550" type="curve" smooth="yes"/>
      <point x="272" y="550" type="line"/>
      <point x="272" y="654" type="line"/>
    </contour>
  </outline>
</glyph>
<glyph name="macron" format="1">
  <advance width="417"/>
  <unicode hex="00AF"/>
  <outline>
    <contour>
      <point x="73" y="605" type="line" name="hr00"/>
      <point x="344" y="605" type="line"/>
      <point x="344" y="677" type="line"/>
      <point x="73" y="677" type="line"/>
    </contour>
  </outline>
</glyph>
<glyph name="degree" format="1">
  <advance width="252"/>
  <unicode hex="00B0"/>
  <outline>
    <contour>
      <point x="10" y="555" type="curve" smooth="yes" name="hr00"/>
      <point x="10" y="484" smooth="yes"/>
      <point x="55" y="439" smooth="yes"/>
      <point x="126" y="439" type="curve" smooth="yes"/>
      <point x="195" y="439" smooth="yes"/>
      <point x="242" y="485" smooth="yes"/>
      <point x="242" y="555" type="curve" smooth="yes"/>
      <point x="242" y="624" smooth="yes"/>
      <point x="195" y="671" smooth="yes"/>
      <point x="126" y="671" type="curve" smooth="yes"/>
      <point x="55" y="671" smooth="yes"/>
      <point x="10" y="625" smooth="yes"/>
    </contour>
    <contour>
      <point x="125" y="495" type="curve" smooth="yes"/>
      <point x="89" y="495" smooth="yes"/>
      <point x="66" y="518" smooth="yes"/>
      <point x="66" y="555" type="curve" smooth="yes"/>
      <point x="66" y="590" smooth="yes"/>
      <point x="89" y="614" smooth="yes"/>
      <point x="125" y="614" type="curve" smooth="yes"/>
      <point x="161" y="614" smooth="yes"/>
      <point x="185" y="590" smooth="yes"/>
      <point x="185" y="555" type="curve" smooth="yes"/>
      <point x="185" y="518" smooth="yes"/>
      <point x="161" y="495" smooth="yes"/>
    </contour>
  </outline>
</glyph>
<glyph name="twosuperior" format="1">
  <advance width="331"/>
  <unicode hex="00B2"/>
  <outline>
    <contour>
      <point x="34" y="291" type="line" name="hr00"/>
      <point x="34" y="244" type="line"/>
      <point x="276" y="244" type="line"/>
      <point x="276" y="301" type="line"/>
      <point x="125" y="301" type="line"/>
      <point x="215" y="405" type="line" smooth="yes"/>
      <point x="254" y="449" smooth="yes"/>
      <point x="272" y="487" smooth="yes"/>
      <point x="272" y="524" type="curve" smooth="yes"/>
      <point x="272" y="588" smooth="yes"/>
      <point x="222" y="630" smooth="yes"/>
      <point x="144" y="630" type="curve" smooth="yes"/>
      <point x="110" y="630"/>
      <point x="72" y="618"/>
      <point x="39" y="597" type="curve"/>
      <point x="66" y="543" type="line"/>
      <point x="75" y="555" smooth="yes"/>
      <point x="120" y="572" smooth="yes"/>
      <point x="144" y="572" type="curve" smooth="yes"/>
      <point x="184" y="572" smooth="yes"/>
      <point x="208" y="554" smooth="yes"/>
      <point x="208" y="524" type="curve" smooth="yes"/>
      <point x="208" y="498" smooth="yes"/>
      <point x="197" y="477" smooth="yes"/>
      <point x="163" y="438" type="curve" smooth="yes"/>
    </contour>
  </outline>
</glyph>
<glyph name="threesuperior" format="1">
  <advance width="331"/>
  <unicode hex="00B3"/>
  <outline>
    <contour>
      <point x="28" y="264" type="line" name="hr00"/>
      <point x="57" y="245" smooth="yes"/>
      <point x="99" y="234" smooth="yes"/>
      <point x="139" y="234" type="curve" smooth="yes"/>
      <point x="219" y="234" smooth="yes"/>
      <point x="278" y="285" smooth="yes"/>
      <point x="278" y="354" type="curve" smooth="yes"/>
      <point x="278" y="392"/>
      <point x="250" y="431"/>
      <point x="215" y="443" type="curve"/>
      <point x="246" y="455" smooth="yes"/>
      <point x="269" y="488" smooth="yes"/>
      <point x="269" y="522" type="curve" smooth="yes"/>
      <point x="269" y="589" smooth="yes"/>
      <point x="221" y="630" smooth="yes"/>
      <point x="144" y="630" type="curve" smooth="yes"/>
      <point x="110" y="630"/>
      <point x="72" y="618"/>
      <point x="39" y="597" type="curve"/>
      <point x="66" y="543" type="line"/>
      <point x="88" y="561" smooth="yes"/>
      <point x="117" y="572" smooth="yes"/>
      <point x="144" y="572" type="curve" smooth="yes"/>
      <point x="184" y="572" smooth="yes"/>
      <point x="208" y="554" smooth="yes"/>
      <point x="208" y="524" type="curve" smooth="yes"/>
      <point x="208" y="487" smooth="yes"/>
      <point x="170" y="462" smooth="yes"/>
      <point x="115" y="462" type="curve" smooth="yes"/>
      <point x="85" y="462" type="line"/>
      <point x="85" y="407" type="line"/>
      <point x="149" y="407" type="line" smooth="yes"/>
      <point x="190" y="407" smooth="yes"/>
      <point x="216" y="386" smooth="yes"/>
      <point x="216" y="353" type="curve" smooth="yes"/>
      <point x="216" y="317" smooth="yes"/>
      <point x="184" y="291" smooth="yes"/>
      <point x="139" y="291" type="curve" smooth="yes"/>
      <point x="112" y="291"/>
      <point x="70" y="303"/>
      <point x="54" y="315" type="curve"/>
    </contour>
  </outline>
</glyph>
<glyph name="acute" format="1">
  <advance width="210"/>
  <unicode hex="00B4"/>
  <outline>
    <contour>
      <point x="41" y="560" type="line" name="hr00"/>
      <point x="65" y="535" type="line"/>
      <point x="245" y="682" type="line"/>
      <point x="233" y="716" smooth="yes"/>
      <point x="216" y="735" smooth="yes"/>
      <point x="195" y="735" type="curve" smooth="yes"/>
      <point x="176" y="735" smooth="yes"/>
      <point x="161" y="725" smooth="yes"/>
      <point x="143" y="700" type="curve" smooth="yes"/>
    </contour>
  </outline>
</glyph>
<glyph name="mu" format="1">
  <advance width="569"/>
  <unicode hex="00B5"/>
  <outline>
    <contour>
      <point x="75" y="500" type="line" name="hr00"/>
      <point x="75" y="-204" type="line"/>
      <point x="128" y="-204" type="line"/>
      <point x="136" y="31" type="line"/>
      <point x="159" y="0" smooth="yes"/>
      <point x="191" y="-14" smooth="yes"/>
      <point x="239" y="-14" type="curve" smooth="yes"/>
      <point x="309" y="-14"/>
      <point x="369" y="29"/>
      <point x="408" y="99" type="curve"/>
      <point x="428" y="-5" type="line"/>
      <point x="484" y="0" type="line"/>
      <point x="484" y="500" type="line"/>
      <point x="408" y="500" type="line"/>
      <point x="408" y="280" type="line" smooth="yes"/>
      <point x="408" y="152" smooth="yes"/>
      <point x="338" y="54" smooth="yes"/>
      <point x="252" y="54" type="curve" smooth="yes"/>
      <point x="185" y="54" smooth="yes"/>
      <point x="151" y="102" smooth="yes"/>
      <point x="151" y="196" type="curve" smooth="yes"/>
      <point x="151" y="500" type="line"/>
    </contour>
  </outline>
</glyph>
<glyph name="paragraph" format="1">
  <advance width="469"/>
  <unicode hex="00B6"/>
  <outline>
    <contour>
      <point x="258" y="-225" type="line" name="hr00"/>
      <point x="258" y="504" type="line"/>
      <point x="303" y="504" type="line"/>
      <point x="303" y="-225" type="line"/>
      <point x="379" y="-225" type="line"/>
      <point x="379" y="504" type="line" smooth="yes"/>
      <point x="379" y="609" smooth="yes"/>
      <point x="294" y="694" smooth="yes"/>
      <point x="189" y="694" type="curve" smooth="yes"/>
      <point x="84" y="694" smooth="yes"/>
      <point x="0" y="609" smooth="yes"/>
      <point x="0" y="504" type="curve" smooth="yes"/>
      <point x="0" y="399" smooth="yes"/>
      <point x="84" y="315" smooth="yes"/>
      <point x="189" y="315" type="curve" smooth="yes"/>
      <point x="198" y="315"/>
      <point x="208" y="315"/>
      <point x="217" y="316" type="curve"/>
      <point x="217" y="-225" type="line"/>
    </contour>
  </outline>
</glyph>
<glyph name="cedilla" format="1">
  <advance width="381"/>
  <unicode hex="00B8"/>
  <outline>
    <contour>
      <point x="163" y="-88" type="line" smooth="yes" name="hr00"/>
      <point x="201" y="-88" smooth="yes"/>
      <point x="219" y="-98" smooth="yes"/>
      <point x="219" y="-118" type="curve" smooth="yes"/>
      <point x="219" y="-139" smooth="yes"/>
      <point x="201" y="-153" smooth="yes"/>
      <point x="173" y="-153" type="curve" smooth="yes"/>
      <point x="154" y="-153"/>
      <point x="126" y="-144"/>
      <point x="118" y="-136" type="curve"/>
      <point x="95" y="-177" type="line"/>
      <point x="109" y="-191" smooth="yes"/>
      <point x="148" y="-204" smooth="yes"/>
      <point x="177" y="-204" type="curve" smooth="yes"/>
      <point x="241" y="-204" smooth="yes"/>
      <point x="281" y="-173" smooth="yes"/>
      <point x="281" y="-122" type="curve" smooth="yes"/>
      <point x="281" y="-80"/>
      <point x="246" y="-50"/>
      <point x="196" y="-50" type="curve"/>
      <point x="212" y="24" type="line"/>
      <point x="163" y="24" type="line"/>
      <point x="139" y="-88" type="line"/>
    </contour>
  </outline>
</glyph>
<glyph name="onesuperior" format="1">
  <advance width="331"/>
  <unicode hex="00B9"/>
  <outline>
    <contour>
      <point x="66" y="532" type="line" name="hr00"/>
      <point x="143" y="554" type="line"/>
      <point x="143" y="301" type="line"/>
      <point x="69" y="301" type="line"/>
      <point x="69" y="244" type="line"/>
      <point x="272" y="244" type="line"/>
      <point x="272" y="301" type="line"/>
      <point x="207" y="301" type="line"/>
      <point x="207" y="620" type="line"/>
      <point x="149" y="620" type="line"/>
      <point x="51" y="589" type="line"/>
    </contour>
  </outline>
</glyph>
<glyph name="ordmasculine" format="1">
  <advance width="344"/>
  <unicode hex="00BA"/>
  <outline>
    <contour>
      <point x="35" y="613" type="curve" smooth="yes" name="hr00"/>
      <point x="35" y="512" smooth="yes"/>
      <point x="86" y="452" smooth="yes"/>
      <point x="171" y="452" type="curve" smooth="yes"/>
      <point x="257" y="452" smooth="yes"/>
      <point x="309" y="513" smooth="yes"/>
      <point x="309" y="613" type="curve" smooth="yes"/>
      <point x="309" y="713" smooth="yes"/>
      <point x="257" y="774" smooth="yes"/>
      <point x="171" y="774" type="curve" smooth="yes"/>
      <point x="86" y="774" smooth="yes"/>
      <point x="35" y="714" smooth="yes"/>
    </contour>
    <contour>
      <point x="97" y="613" type="curve" smooth="yes"/>
      <point x="97" y="681" smooth="yes"/>
      <point x="124" y="720" smooth="yes"/>
      <point x="171" y="720" type="curve" smooth="yes"/>
      <point x="219" y="720" smooth="yes"/>
      <point x="247" y="681" smooth="yes"/>
      <point x="247" y="613" type="curve" smooth="yes"/>
      <point x="247" y="546" smooth="yes"/>
      <point x="219" y="507" smooth="yes"/>
      <point x="171" y="507" type="curve" smooth="yes"/>
      <point x="124" y="507" smooth="yes"/>
      <point x="97" y="546" smooth="yes"/>
    </contour>
  </outline>
</glyph>
<glyph name="guillemotright" format="1">
  <advance width="377"/>
  <unicode hex="00BB"/>
  <outline>
    <contour>
      <point x="347" y="242" type="curve" smooth="yes" name="hr00"/>
      <point x="347" y="227" smooth="yes"/>
      <point x="340" y="211" smooth="yes"/>
      <point x="325" y="194" type="curve" smooth="yes"/>
      <point x="220" y="70" type="line"/>
      <point x="189" y="85" type="line"/>
      <point x="254" y="242" type="line"/>
      <point x="189" y="399" type="line"/>
      <point x="220" y="414" type="line"/>
      <point x="325" y="290" type="line" smooth="yes"/>
      <point x="340" y="272" smooth="yes"/>
      <point x="347" y="257" smooth="yes"/>
    </contour>
    <contour>
      <point x="188" y="242" type="curve" smooth="yes"/>
      <point x="188" y="227" smooth="yes"/>
      <point x="181" y="211" smooth="yes"/>
      <point x="166" y="194" type="curve" smooth="yes"/>
      <point x="61" y="70" type="line"/>
      <point x="30" y="85" type="line"/>
      <point x="95" y="242" type="line"/>
      <point x="30" y="399" type="line"/>
      <point x="61" y="414" type="line"/>
      <point x="166" y="290" type="line" smooth="yes"/>
      <point x="181" y="272" smooth="yes"/>
      <point x="188" y="257" smooth="yes"/>
    </contour>
  </outline>
</glyph>
<glyph name="onequarter" format="1">
  <advance width="780"/>
  <unicode hex="00BC"/>
  <outline>
    <contour>
      <point x="85" y="532" type="line" name="hr00"/>
      <point x="162" y="554" type="line"/>
      <point x="162" y="301" type="line"/>
      <point x="88" y="301" type="line"/>
      <point x="88" y="244" type="line"/>
      <point x="291" y="244" type="line"/>
      <point x="291" y="301" type="line"/>
      <point x="226" y="301" type="line"/>
      <point x="226" y="620" type="line"/>
      <point x="168" y="620" type="line"/>
      <point x="70" y="589" type="line"/>
    </contour>
    <contour>
      <point x="559" y="372" type="line"/>
      <point x="452" y="111" type="line"/>
      <point x="452" y="78" type="line"/>
      <point x="625" y="78" type="line"/>
      <point x="625" y="-4" type="line"/>
      <point x="688" y="-4" type="line"/>
      <point x="688" y="78" type="line"/>
      <point x="719" y="78" type="line"/>
      <point x="719" y="136" type="line"/>
      <point x="688" y="136" type="line"/>
      <point x="688" y="273" type="line"/>
      <point x="625" y="273" type="line"/>
      <point x="625" y="136" type="line"/>
      <point x="529" y="136" type="line"/>
      <point x="626" y="372" type="line"/>
    </contour>
    <component  base="fraction" xScale="0.782353" yScale="0.78481" xOffset="292" yOffset="67"/>
  </outline>
</glyph>
<glyph name="onehalf" format="1">
  <advance width="780"/>
  <unicode hex="00BD"/>
  <outline>
    <contour>
      <point x="85" y="532" type="line" name="hr00"/>
      <point x="162" y="554" type="line"/>
      <point x="162" y="301" type="line"/>
      <point x="88" y="301" type="line"/>
      <point x="88" y="244" type="line"/>
      <point x="291" y="244" type="line"/>
      <point x="291" y="301" type="line"/>
      <point x="226" y="301" type="line"/>
      <point x="226" y="620" type="line"/>
      <point x="168" y="620" type="line"/>
      <point x="70" y="589" type="line"/>
    </contour>
    <contour>
      <point x="478" y="47" type="line"/>
      <point x="478" y="0" type="line"/>
      <point x="720" y="0" type="line"/>
      <point x="720" y="57" type="line"/>
      <point x="569" y="57" type="line"/>
      <point x="659" y="161" type="line" smooth="yes"/>
      <point x="698" y="205" smooth="yes"/>
      <point x="716" y="243" smooth="yes"/>
      <point x="716" y="280" type="curve" smooth="yes"/>
      <point x="716" y="344" smooth="yes"/>
      <point x="666" y="386" smooth="yes"/>
      <point x="588" y="386" type="curve" smooth="yes"/>
      <point x="554" y="386"/>
      <point x="516" y="374"/>
      <point x="483" y="353" type="curve"/>
      <point x="510" y="299" type="line"/>
      <point x="519" y="311" smooth="yes"/>
      <point x="564" y="328" smooth="yes"/>
      <point x="588" y="328" type="curve" smooth="yes"/>
      <point x="628" y="328" smooth="yes"/>
      <point x="652" y="310" smooth="yes"/>
      <point x="652" y="280" type="curve" smooth="yes"/>
      <point x="652" y="254" smooth="yes"/>
      <point x="641" y="233" smooth="yes"/>
      <point x="607" y="194" type="curve" smooth="yes"/>
    </contour>
    <component  base="fraction" xScale="0.782353" yScale="0.78481" xOffset="286" yOffset="67"/>
  </outline>
</glyph>
<glyph name="threequarters" format="1">
  <advance width="780"/>
  <unicode hex="00BE"/>
  <outline>
    <contour>
      <point x="47" y="264" type="line" name="hr00"/>
      <point x="76" y="245" smooth="yes"/>
      <point x="118" y="234" smooth="yes"/>
      <point x="158" y="234" type="curve" smooth="yes"/>
      <point x="238" y="234" smooth="yes"/>
      <point x="297" y="285" smooth="yes"/>
      <point x="297" y="354" type="curve" smooth="yes"/>
      <point x="297" y="392"/>
      <point x="269" y="431"/>
      <point x="234" y="443" type="curve"/>
      <point x="265" y="455" smooth="yes"/>
      <point x="288" y="488" smooth="yes"/>
      <point x="288" y="522" type="curve" smooth="yes"/>
      <point x="288" y="589" smooth="yes"/>
      <point x="240" y="630" smooth="yes"/>
      <point x="163" y="630" type="curve" smooth="yes"/>
      <point x="129" y="630"/>
      <point x="91" y="618"/>
      <point x="58" y="597" type="curve"/>
      <point x="85" y="543" type="line"/>
      <point x="107" y="561" smooth="yes"/>
      <point x="136" y="572" smooth="yes"/>
      <point x="163" y="572" type="curve" smooth="yes"/>
      <point x="203" y="572" smooth="yes"/>
      <point x="227" y="554" smooth="yes"/>
      <point x="227" y="524" type="curve" smooth="yes"/>
      <point x="227" y="487" smooth="yes"/>
      <point x="189" y="462" smooth="yes"/>
      <point x="134" y="462" type="curve" smooth="yes"/>
      <point x="104" y="462" type="line"/>
      <point x="104" y="407" type="line"/>
      <point x="168" y="407" type="line" smooth="yes"/>
      <point x="209" y="407" smooth="yes"/>
      <point x="235" y="386" smooth="yes"/>
      <point x="235" y="353" type="curve" smooth="yes"/>
      <point x="235" y="317" smooth="yes"/>
      <point x="203" y="291" smooth="yes"/>
      <point x="158" y="291" type="curve" smooth="yes"/>
      <point x="131" y="291"/>
      <point x="89" y="303"/>
      <point x="73" y="315" type="curve"/>
    </contour>
    <contour>
      <point x="559" y="372" type="line"/>
      <point x="452" y="111" type="line"/>
      <point x="452" y="78" type="line"/>
      <point x="625" y="78" type="line"/>
      <point x="625" y="-4" type="line"/>
      <point x="688" y="-4" type="line"/>
      <point x="688" y="78" type="line"/>
      <point x="719" y="78" type="line"/>
      <point x="719" y="136" type="line"/>
      <point x="688" y="136" type="line"/>
      <point x="688" y="273" type="line"/>
      <point x="625" y="273" type="line"/>
      <point x="625" y="136" type="line"/>
      <point x="529" y="136" type="line"/>
      <point x="626" y="372" type="line"/>
    </contour>
    <component  base="fraction" xScale="0.782353" yScale="0.78481" xOffset="292" yOffset="67"/>
  </outline>
</glyph>
<glyph name="AE" format="1">
  <advance width="759"/>
  <unicode hex="00C6"/>
  <outline>
    <contour>
      <point x="724" y="0" type="line" name="hr00"/>
      <point x="724" y="72" type="line"/>
      <point x="492" y="72" type="line"/>
      <point x="453" y="272" type="line"/>
      <point x="669" y="272" type="line"/>
      <point x="669" y="344" type="line"/>
      <point x="439" y="344" type="line"/>
      <point x="387" y="608" type="line"/>
      <point x="684" y="608" type="line"/>
      <point x="684" y="680" type="line"/>
      <point x="229" y="680" type="line"/>
      <point x="0" y="0" type="line"/>
      <point x="83" y="0" type="line"/>
      <point x="172" y="272" type="line"/>
      <point x="373" y="272" type="line"/>
      <point x="425" y="0" type="line"/>
    </contour>
    <contour>
      <point x="283" y="608" type="line"/>
      <point x="309" y="608" type="line"/>
      <point x="359" y="344" type="line"/>
      <point x="196" y="344" type="line"/>
    </contour>
  </outline>
</glyph>
<glyph name="multiply" format="1">
  <advance width="518"/>
  <unicode hex="00D7"/>
  <outline>
    <contour>
      <point x="113" y="114" type="line" name="hr00"/>
      <point x="259" y="260" type="line"/>
      <point x="405" y="114" type="line"/>
      <point x="456" y="165" type="line"/>
      <point x="310" y="311" type="line"/>
      <point x="456" y="457" type="line"/>
      <point x="405" y="508" type="line"/>
      <point x="259" y="362" type="line"/>
      <point x="113" y="508" type="line"/>
      <point x="62" y="457" type="line"/>
      <point x="208" y="311" type="line"/>
      <point x="62" y="165" type="line"/>
    </contour>
  </outline>
</glyph>
<glyph name="Thorn" format="1">
  <advance width="509"/>
  <unicode hex="00DE"/>
  <outline>
    <contour>
      <point x="90" y="0" type="line" name="hr00"/>
      <point x="170" y="0" type="line"/>
      <point x="170" y="137" type="line"/>
      <point x="301" y="137" type="line" smooth="yes"/>
      <point x="414" y="137" smooth="yes"/>
      <point x="504" y="227" smooth="yes"/>
      <point x="504" y="340" type="curve" smooth="yes"/>
      <point x="504" y="453" smooth="yes"/>
      <point x="414" y="543" smooth="yes"/>
      <point x="301" y="543" type="curve" smooth="yes"/>
      <point x="170" y="543" type="line"/>
      <point x="170" y="680" type="line"/>
      <point x="90" y="680" type="line"/>
    </contour>
    <contour>
      <point x="298" y="470" type="line" smooth="yes"/>
      <point x="367" y="470" smooth="yes"/>
      <point x="425" y="411" smooth="yes"/>
      <point x="425" y="340" type="curve" smooth="yes"/>
      <point x="425" y="269" smooth="yes"/>
      <point x="367" y="210" smooth="yes"/>
      <point x="298" y="210" type="curve" smooth="yes"/>
      <point x="170" y="210" type="line"/>
      <point x="170" y="470" type="line"/>
    </contour>
  </outline>
</glyph>
<glyph name="germandbls" format="1">
  <advance width="579"/>
  <unicode hex="00DF"/>
  <outline>
    <contour>
      <point x="40" y="435" type="line" name="hr00"/>
      <point x="105" y="435" type="line"/>
      <point x="105" y="-160" type="line"/>
      <point x="181" y="-160" type="line"/>
      <point x="181" y="555" type="line" smooth="yes"/>
      <point x="181" y="613" smooth="yes"/>
      <point x="226" y="652" smooth="yes"/>
      <point x="292" y="652" type="curve" smooth="yes"/>
      <point x="357" y="652" smooth="yes"/>
      <point x="409" y="615" smooth="yes"/>
      <point x="409" y="569" type="curve" smooth="yes"/>
      <point x="409" y="473" smooth="yes"/>
      <point x="288" y="476" smooth="yes"/>
      <point x="288" y="351" type="curve" smooth="yes"/>
      <point x="288" y="209" smooth="yes"/>
      <point x="492" y="240" smooth="yes"/>
      <point x="492" y="138" type="curve" smooth="yes"/>
      <point x="492" y="87" smooth="yes"/>
      <point x="453" y="56" smooth="yes"/>
      <point x="389" y="55" type="curve" smooth="yes"/>
      <point x="341" y="55"/>
      <point x="287" y="76"/>
      <point x="254" y="108" type="curve"/>
      <point x="213" y="53" type="line"/>
      <point x="259" y="11" smooth="yes"/>
      <point x="323" y="-14" smooth="yes"/>
      <point x="389" y="-14" type="curve" smooth="yes"/>
      <point x="499" y="-14" smooth="yes"/>
      <point x="569" y="47" smooth="yes"/>
      <point x="569" y="142" type="curve" smooth="yes"/>
      <point x="569" y="296" smooth="yes"/>
      <point x="365" y="279" smooth="yes"/>
      <point x="365" y="362" type="curve" smooth="yes"/>
      <point x="365" y="432" smooth="yes"/>
      <point x="486" y="448" smooth="yes"/>
      <point x="486" y="575" type="curve" smooth="yes"/>
      <point x="486" y="656" smooth="yes"/>
      <point x="401" y="719" smooth="yes"/>
      <point x="292" y="719" type="curve" smooth="yes"/>
      <point x="180" y="719" smooth="yes"/>
      <point x="105" y="652" smooth="yes"/>
      <point x="105" y="551" type="curve" smooth="yes"/>
      <point x="105" y="500" type="line"/>
      <point x="40" y="500" type="line"/>
    </contour>
  </outline>
</glyph>
<glyph name="ae" format="1">
  <advance width="805"/>
  <unicode hex="00E6"/>
  <outline>
    <contour>
      <point x="760" y="233" type="line" name="hr00"/>
      <point x="760" y="242" smooth="yes"/>
      <point x="762" y="254" smooth="yes"/>
      <point x="762" y="263" type="curve" smooth="yes"/>
      <point x="762" y="431" smooth="yes"/>
      <point x="699" y="514" smooth="yes"/>
      <point x="573" y="514" type="curve" smooth="yes"/>
      <point x="503" y="514"/>
      <point x="447" y="486"/>
      <point x="408" y="437" type="curve"/>
      <point x="383" y="488" smooth="yes"/>
      <point x="331" y="514" smooth="yes"/>
      <point x="252" y="514" type="curve" smooth="yes"/>
      <point x="198" y="514"/>
      <point x="123" y="488"/>
      <point x="73" y="453" type="curve"/>
      <point x="108" y="398" type="line"/>
      <point x="150" y="426" smooth="yes"/>
      <point x="209" y="446" smooth="yes"/>
      <point x="246" y="446" type="curve" smooth="yes"/>
      <point x="317" y="446" smooth="yes"/>
      <point x="350" y="415" smooth="yes"/>
      <point x="350" y="347" type="curve" smooth="yes"/>
      <point x="350" y="298" type="line"/>
      <point x="220" y="286" type="line" smooth="yes"/>
      <point x="98" y="274" smooth="yes"/>
      <point x="39" y="220" smooth="yes"/>
      <point x="39" y="121" type="curve" smooth="yes"/>
      <point x="39" y="39" smooth="yes"/>
      <point x="99" y="-14" smooth="yes"/>
      <point x="192" y="-14" type="curve" smooth="yes"/>
      <point x="269" y="-14"/>
      <point x="339" y="36"/>
      <point x="377" y="107" type="curve"/>
      <point x="413" y="31" smooth="yes"/>
      <point x="483" y="-14" smooth="yes"/>
      <point x="574" y="-14" type="curve" smooth="yes"/>
      <point x="648" y="-14"/>
      <point x="704" y="9"/>
      <point x="756" y="59" type="curve"/>
      <point x="718" y="108" type="line"/>
      <point x="683" y="75" smooth="yes"/>
      <point x="628" y="54" smooth="yes"/>
      <point x="575" y="54" type="curve" smooth="yes"/>
      <point x="487" y="54"/>
      <point x="431" y="123"/>
      <point x="426" y="233" type="curve"/>
    </contour>
    <contour>
      <point x="350" y="222" type="line" smooth="yes"/>
      <point x="350" y="128" smooth="yes"/>
      <point x="282" y="54" smooth="yes"/>
      <point x="196" y="54" type="curve" smooth="yes"/>
      <point x="152" y="54" smooth="yes"/>
      <point x="118" y="86" smooth="yes"/>
      <point x="118" y="129" type="curve" smooth="yes"/>
      <point x="118" y="181" smooth="yes"/>
      <point x="156" y="214" smooth="yes"/>
      <point x="223" y="221" type="curve" smooth="yes"/>
      <point x="350" y="233" type="line"/>
    </contour>
    <contour>
      <point x="572" y="445" type="curve" smooth="yes"/>
      <point x="645" y="445"/>
      <point x="683" y="397"/>
      <point x="686" y="300" type="curve"/>
      <point x="429" y="300" type="line"/>
      <point x="443" y="392" smooth="yes"/>
      <point x="494" y="445" smooth="yes"/>
    </contour>
  </outline>
</glyph>
<glyph name="eth" format="1">
  <advance width="541"/>
  <unicode hex="00F0"/>
  <outline>
    <contour>
      <point x="180" y="568" type="line" name="hr00"/>
      <point x="213" y="524" type="line"/>
      <point x="297" y="584" type="line"/>
      <point x="337" y="549"/>
      <point x="368" y="503"/>
      <point x="389" y="450" type="curve"/>
      <point x="362" y="464" smooth="yes"/>
      <point x="325" y="474" smooth="yes"/>
      <point x="287" y="474" type="curve" smooth="yes"/>
      <point x="160" y="474" smooth="yes"/>
      <point x="57" y="362" smooth="yes"/>
      <point x="57" y="225" type="curve" smooth="yes"/>
      <point x="57" y="80" smooth="yes"/>
      <point x="140" y="-14" smooth="yes"/>
      <point x="268" y="-14" type="curve" smooth="yes"/>
      <point x="400" y="-14" smooth="yes"/>
      <point x="489" y="109" smooth="yes"/>
      <point x="489" y="291" type="curve" smooth="yes"/>
      <point x="489" y="430"/>
      <point x="438" y="545"/>
      <point x="350" y="622" type="curve"/>
      <point x="435" y="683" type="line"/>
      <point x="403" y="727" type="line"/>
      <point x="305" y="657" type="line"/>
      <point x="252" y="690"/>
      <point x="190" y="713"/>
      <point x="119" y="722" type="curve"/>
      <point x="111" y="662" type="line"/>
      <point x="163" y="657"/>
      <point x="210" y="642"/>
      <point x="250" y="618" type="curve"/>
    </contour>
    <contour>
      <point x="417" y="291" type="curve" smooth="yes"/>
      <point x="417" y="143" smooth="yes"/>
      <point x="360" y="52" smooth="yes"/>
      <point x="268" y="52" type="curve" smooth="yes"/>
      <point x="185" y="52" smooth="yes"/>
      <point x="133" y="117" smooth="yes"/>
      <point x="133" y="220" type="curve" smooth="yes"/>
      <point x="133" y="326" smooth="yes"/>
      <point x="206" y="408" smooth="yes"/>
      <point x="301" y="408" type="curve" smooth="yes"/>
      <point x="339" y="408"/>
      <point x="380" y="393"/>
      <point x="410" y="370" type="curve"/>
      <point x="414" y="345" smooth="yes"/>
      <point x="417" y="318" smooth="yes"/>
    </contour>
  </outline>
</glyph>
<glyph name="divide" format="1">
  <advance width="518"/>
  <unicode hex="00F7"/>
  <outline>
    <contour>
      <point x="203" y="453" type="curve" smooth="yes" name="hr00"/>
      <point x="203" y="419" smooth="yes"/>
      <point x="225" y="397" smooth="yes"/>
      <point x="259" y="397" type="curve" smooth="yes"/>
      <point x="293" y="397" smooth="yes"/>
      <point x="315" y="419" smooth="yes"/>
      <point x="315" y="453" type="curve" smooth="yes"/>
      <point x="315" y="487" smooth="yes"/>
      <point x="293" y="509" smooth="yes"/>
      <point x="259" y="509" type="curve" smooth="yes"/>
      <point x="225" y="509" smooth="yes"/>
      <point x="203" y="487" smooth="yes"/>
    </contour>
    <contour>
      <point x="47" y="275" type="line"/>
      <point x="471" y="275" type="line"/>
      <point x="471" y="347" type="line"/>
      <point x="47" y="347" type="line"/>
    </contour>
    <contour>
      <point x="203" y="169" type="curve" smooth="yes"/>
      <point x="203" y="135" smooth="yes"/>
      <point x="225" y="113" smooth="yes"/>
      <point x="259" y="113" type="curve" smooth="yes"/>
      <point x="293" y="113" smooth="yes"/>
      <point x="315" y="135" smooth="yes"/>
      <point x="315" y="169" type="curve" smooth="yes"/>
      <point x="315" y="203" smooth="yes"/>
      <point x="293" y="225" smooth="yes"/>
      <point x="259" y="225" type="curve" smooth="yes"/>
      <point x="225" y="225" smooth="yes"/>
      <point x="203" y="203" smooth="yes"/>
    </contour>
  </outline>
</glyph>
<glyph name="thorn" format="1">
  <advance width="564"/>
  <unicode hex="00FE"/>
  <outline>
    <contour>
      <point x="85" y="700" type="line" name="hr00"/>
      <point x="85" y="-225" type="line"/>
      <point x="161" y="-225" type="line"/>
      <point x="161" y="6" type="line"/>
      <point x="197" y="-6" smooth="yes"/>
      <point x="235" y="-14" smooth="yes"/>
      <point x="268" y="-14" type="curve" smooth="yes"/>
      <point x="411" y="-14" smooth="yes"/>
      <point x="514" y="100" smooth="yes"/>
      <point x="514" y="259" type="curve" smooth="yes"/>
      <point x="514" y="416" smooth="yes"/>
      <point x="441" y="514" smooth="yes"/>
      <point x="323" y="514" type="curve" smooth="yes"/>
      <point x="252" y="514"/>
      <point x="196" y="480"/>
      <point x="161" y="418" type="curve"/>
      <point x="161" y="700" type="line"/>
    </contour>
    <contour>
      <point x="314" y="446" type="curve" smooth="yes"/>
      <point x="392" y="446" smooth="yes"/>
      <point x="438" y="376" smooth="yes"/>
      <point x="438" y="259" type="curve" smooth="yes"/>
      <point x="438" y="139" smooth="yes"/>
      <point x="367" y="54" smooth="yes"/>
      <point x="268" y="54" type="curve" smooth="yes"/>
      <point x="230" y="54"/>
      <point x="190" y="63"/>
      <point x="161" y="78" type="curve"/>
      <point x="161" y="221" type="line" smooth="yes"/>
      <point x="161" y="364" smooth="yes"/>
      <point x="219" y="446" smooth="yes"/>
    </contour>
  </outline>
</glyph>
<glyph name="dotlessi" format="1">
  <advance width="256"/>
  <unicode hex="0131"/>
  <outline>
    <contour>
      <point x="90" y="0" type="line" name="hr00"/>
      <point x="166" y="0" type="line"/>
      <point x="166" y="500" type="line"/>
      <point x="90" y="500" type="line"/>
    </contour>
  </outline>
</glyph>
<glyph name="kgreenlandic" format="1">
  <advance width="482"/>
  <unicode hex="0138"/>
  <outline>
    <contour>
      <point x="85" y="0" type="line"/>
      <point x="162" y="0" type="line"/>
      <point x="162" y="214" type="line"/>
      <point x="268" y="214" type="line" smooth="yes"/>
      <point x="292" y="214" smooth="yes"/>
      <point x="299" y="199" smooth="yes"/>
      <point x="306" y="183" type="curve" smooth="yes"/>
      <point x="388" y="-14" type="line"/>
      <point x="462" y="8" type="line"/>
      <point x="382" y="198" type="line" smooth="yes"/>
      <point x="366" y="236"/>
      <point x="346" y="267"/>
      <point x="289" y="274" type="curve"/>
      <point x="457" y="500" type="line"/>
      <point x="371" y="500" type="line"/>
      <point x="206" y="275" type="line"/>
      <point x="162" y="275" type="line"/>
      <point x="162" y="500" type="line"/>
      <point x="85" y="500" type="line"/>
    </contour>
  </outline>
</glyph>
<glyph name="Eng" format="1">
  <advance width="680"/>
  <unicode hex="014A"/>
  <outline>
    <contour>
      <point x="238" y="-166" type="line" name="hr00"/>
      <point x="287" y="-215" smooth="yes"/>
      <point x="347" y="-239" smooth="yes"/>
      <point x="420" y="-239" type="curve" smooth="yes"/>
      <point x="524" y="-239" smooth="yes"/>
      <point x="590" y="-158" smooth="yes"/>
      <point x="590" y="-31" type="curve" smooth="yes"/>
      <point x="590" y="680" type="line"/>
      <point x="510" y="680" type="line"/>
      <point x="510" y="175" type="line"/>
      <point x="183" y="680" type="line"/>
      <point x="90" y="680" type="line"/>
      <point x="90" y="0" type="line"/>
      <point x="170" y="0" type="line"/>
      <point x="170" y="553" type="line"/>
      <point x="510" y="23" type="line"/>
      <point x="510" y="-31" type="line" smooth="yes"/>
      <point x="510" y="-122" smooth="yes"/>
      <point x="476" y="-167" smooth="yes"/>
      <point x="409" y="-167" type="curve" smooth="yes"/>
      <point x="366" y="-167"/>
      <point x="320" y="-146"/>
      <point x="282" y="-110" type="curve"/>
    </contour>
  </outline>
</glyph>
<glyph name="eng" format="1">
  <advance width="569"/>
  <unicode hex="014B"/>
  <outline>
    <contour>
      <point x="494" y="304" type="line" name="hr00"/>
      <point x="494" y="443" smooth="yes"/>
      <point x="438" y="514" smooth="yes"/>
      <point x="330" y="514" type="curve" smooth="yes"/>
      <point x="260" y="514"/>
      <point x="200" y="470"/>
      <point x="161" y="401" type="curve"/>
      <point x="141" y="505" type="line"/>
      <point x="75" y="500" type="line"/>
      <point x="85" y="400" type="line"/>
      <point x="85" y="0" type="line"/>
      <point x="161" y="0" type="line"/>
      <point x="161" y="220" type="line" smooth="yes"/>
      <point x="161" y="348" smooth="yes"/>
      <point x="231" y="446" smooth="yes"/>
      <point x="317" y="446" type="curve" smooth="yes"/>
      <point x="384" y="446" smooth="yes"/>
      <point x="418" y="398" smooth="yes"/>
      <point x="418" y="304" type="curve" smooth="yes"/>
      <point x="418" y="-80" type="line" smooth="yes"/>
      <point x="418" y="-139" smooth="yes"/>
      <point x="398" y="-168" smooth="yes"/>
      <point x="357" y="-168" type="curve" smooth="yes"/>
      <point x="337" y="-168"/>
      <point x="312" y="-161"/>
      <point x="276" y="-145" type="curve"/>
      <point x="246" y="-199" type="line"/>
      <point x="286" y="-225" smooth="yes"/>
      <point x="329" y="-239" smooth="yes"/>
      <point x="365" y="-239" type="curve" smooth="yes"/>
      <point x="448" y="-239" smooth="yes"/>
      <point x="494" y="-181" smooth="yes"/>
      <point x="494" y="-76" type="curve" smooth="yes"/>
    </contour>
  </outline>
</glyph>
<glyph name="OE" format="1">
  <advance width="815"/>
  <unicode hex="0152"/>
  <outline>
    <contour>
      <point x="130" y="340" type="curve" smooth="yes" name="hr00"/>
      <point x="130" y="509"/>
      <point x="206" y="608"/>
      <point x="336" y="608" type="curve"/>
      <point x="405" y="608" type="line"/>
      <point x="405" y="680" type="line"/>
      <point x="336" y="680" type="line"/>
      <point x="156" y="680" smooth="yes"/>
      <point x="50" y="554" smooth="yes"/>
      <point x="50" y="340" type="curve" smooth="yes"/>
      <point x="50" y="126"/>
      <point x="156" y="0"/>
      <point x="336" y="0" type="curve"/>
      <point x="405" y="0" type="line"/>
      <point x="405" y="72" type="line"/>
      <point x="336" y="72" type="line"/>
      <point x="206" y="72" smooth="yes"/>
      <point x="130" y="171" smooth="yes"/>
    </contour>
    <component  base="E" xOffset="305"/>
  </outline>
</glyph>
<glyph name="oe" format="1">
  <advance width="778"/>
  <unicode hex="0153"/>
  <outline>
    <contour>
      <point x="395" y="129" type="line" name="hr00"/>
      <point x="376" y="79" smooth="yes"/>
      <point x="333" y="54" smooth="yes"/>
      <point x="270" y="54" type="curve" smooth="yes"/>
      <point x="179" y="54" smooth="yes"/>
      <point x="126" y="127" smooth="yes"/>
      <point x="126" y="250" type="curve" smooth="yes"/>
      <point x="126" y="373" smooth="yes"/>
      <point x="179" y="446" smooth="yes"/>
      <point x="270" y="446" type="curve" smooth="yes"/>
      <point x="339" y="446"/>
      <point x="385" y="413"/>
      <point x="403" y="351" type="curve"/>
      <point x="444" y="429" type="line"/>
      <point x="406" y="485" smooth="yes"/>
      <point x="347" y="514" smooth="yes"/>
      <point x="270" y="514" type="curve" smooth="yes"/>
      <point x="132" y="514" smooth="yes"/>
      <point x="50" y="416" smooth="yes"/>
      <point x="50" y="250" type="curve" smooth="yes"/>
      <point x="50" y="84" smooth="yes"/>
      <point x="132" y="-14" smooth="yes"/>
      <point x="270" y="-14" type="curve" smooth="yes"/>
      <point x="345" y="-14"/>
      <point x="404" y="14"/>
      <point x="442" y="68" type="curve"/>
    </contour>
    <component  base="e" xOffset="294"/>
  </outline>
</glyph>
<glyph name="florin" format="1">
  <advance width="518"/>
  <unicode hex="0192"/>
  <outline>
    <contour>
      <point x="55" y="268" type="line" name="hr00"/>
      <point x="190" y="268" type="line"/>
      <point x="190" y="-17" type="line" smooth="yes"/>
      <point x="190" y="-76" smooth="yes"/>
      <point x="170" y="-105" smooth="yes"/>
      <point x="129" y="-105" type="curve" smooth="yes"/>
      <point x="109" y="-105"/>
      <point x="84" y="-98"/>
      <point x="48" y="-82" type="curve"/>
      <point x="18" y="-136" type="line"/>
      <point x="58" y="-162" smooth="yes"/>
      <point x="101" y="-176" smooth="yes"/>
      <point x="137" y="-176" type="curve" smooth="yes"/>
      <point x="218" y="-176" smooth="yes"/>
      <point x="261" y="-120" smooth="yes"/>
      <point x="261" y="-13" type="curve" smooth="yes"/>
      <point x="261" y="268" type="line"/>
      <point x="398" y="268" type="line"/>
      <point x="398" y="328" type="line"/>
      <point x="261" y="328" type="line"/>
      <point x="261" y="352" type="line" smooth="yes"/>
      <point x="261" y="497" smooth="yes"/>
      <point x="308" y="571" smooth="yes"/>
      <point x="400" y="571" type="curve" smooth="yes"/>
      <point x="418" y="571"/>
      <point x="435" y="569"/>
      <point x="455" y="566" type="curve"/>
      <point x="470" y="631" type="line"/>
      <point x="448" y="634" smooth="yes"/>
      <point x="428" y="636" smooth="yes"/>
      <point x="408" y="636" type="curve" smooth="yes"/>
      <point x="266" y="636" smooth="yes"/>
      <point x="190" y="537" smooth="yes"/>
      <point x="190" y="352" type="curve" smooth="yes"/>
      <point x="190" y="328" type="line"/>
      <point x="55" y="328" type="line"/>
    </contour>
  </outline>
</glyph>
<glyph name="dotlessj" format="1">
  <advance width="256"/>
  <unicode hex="0237"/>
  <outline>
    <contour>
      <point x="-52" y="-145" type="curve" name="hr00"/>
      <point x="-82" y="-199" type="line"/>
      <point x="-42" y="-225" smooth="yes"/>
      <point x="1" y="-239" smooth="yes"/>
      <point x="37" y="-239" type="curve" smooth="yes"/>
      <point x="120" y="-239" smooth="yes"/>
      <point x="166" y="-181" smooth="yes"/>
      <point x="166" y="-76" type="curve" smooth="yes"/>
      <point x="166" y="500" type="line"/>
      <point x="90" y="500" type="line"/>
      <point x="90" y="-80" type="line" smooth="yes"/>
      <point x="90" y="-139" smooth="yes"/>
      <point x="70" y="-168" smooth="yes"/>
      <point x="29" y="-168" type="curve" smooth="yes"/>
      <point x="9" y="-168"/>
      <point x="-16" y="-161"/>
    </contour>
  </outline>
</glyph>
<glyph name="caron" format="1">
  <advance width="342"/>
  <unicode hex="02C7"/>
  <outline>
    <contour>
      <point x="215" y="565" type="line" smooth="yes" name="hr00"/>
      <point x="200" y="544" smooth="yes"/>
      <point x="189" y="537" smooth="yes"/>
      <point x="171" y="537" type="curve" smooth="yes"/>
      <point x="152" y="537" smooth="yes"/>
      <point x="141" y="545" smooth="yes"/>
      <point x="127" y="565" type="curve" smooth="yes"/>
      <point x="30" y="702" type="line"/>
      <point x="54" y="727" type="line"/>
      <point x="171" y="620" type="line"/>
      <point x="288" y="727" type="line"/>
      <point x="312" y="702" type="line"/>
    </contour>
  </outline>
</glyph>
<glyph name="breve" format="1">
  <advance width="304"/>
  <unicode hex="02D8"/>
  <outline>
    <contour>
      <point x="30" y="694" type="line" name="hr00"/>
      <point x="30" y="619" smooth="yes"/>
      <point x="78" y="571" smooth="yes"/>
      <point x="152" y="571" type="curve" smooth="yes"/>
      <point x="225" y="571"/>
      <point x="274" y="620"/>
      <point x="274" y="694" type="curve"/>
      <point x="212" y="694" type="line"/>
      <point x="212" y="657" smooth="yes"/>
      <point x="187" y="632" smooth="yes"/>
      <point x="152" y="632" type="curve" smooth="yes"/>
      <point x="116" y="632"/>
      <point x="92" y="656"/>
      <point x="92" y="694" type="curve"/>
    </contour>
  </outline>
</glyph>
<glyph name="dotaccent" format="1">
  <advance width="176"/>
  <unicode hex="02D9"/>
  <outline>
    <contour>
      <point x="30" y="644" type="curve" smooth="yes" name="hr00"/>
      <point x="30" y="608" smooth="yes"/>
      <point x="52" y="586" smooth="yes"/>
      <point x="88" y="586" type="curve" smooth="yes"/>
      <point x="122" y="586" smooth="yes"/>
      <point x="146" y="610" smooth="yes"/>
      <point x="146" y="644" type="curve" smooth="yes"/>
      <point x="146" y="678" smooth="yes"/>
      <point x="122" y="702" smooth="yes"/>
      <point x="88" y="702" type="curve" smooth="yes"/>
      <point x="52" y="702" smooth="yes"/>
      <point x="30" y="679" smooth="yes"/>
    </contour>
  </outline>
</glyph>
<glyph name="ring" format="1">
  <advance width="262"/>
  <unicode hex="02DA"/>
  <outline>
    <contour>
      <point x="30" y="638" type="curve" smooth="yes" name="hr00"/>
      <point x="30" y="576" smooth="yes"/>
      <point x="69" y="537" smooth="yes"/>
      <point x="131" y="537" type="curve" smooth="yes"/>
      <point x="191" y="537" smooth="yes"/>
      <point x="232" y="577" smooth="yes"/>
      <point x="232" y="638" type="curve" smooth="yes"/>
      <point x="232" y="698" smooth="yes"/>
      <point x="191" y="739" smooth="yes"/>
      <point x="131" y="739" type="curve" smooth="yes"/>
      <point x="69" y="739" smooth="yes"/>
      <point x="30" y="699" smooth="yes"/>
    </contour>
    <contour>
      <point x="81" y="638" type="curve"/>
      <point x="81" y="668" smooth="yes"/>
      <point x="100" y="688" smooth="yes"/>
      <point x="131" y="688" type="curve" smooth="yes"/>
      <point x="160" y="688" smooth="yes"/>
      <point x="181" y="667" smooth="yes"/>
      <point x="181" y="638" type="curve" smooth="yes"/>
      <point x="181" y="608" smooth="yes"/>
      <point x="160" y="588" smooth="yes"/>
      <point x="131" y="588" type="curve" smooth="yes"/>
      <point x="100" y="588" smooth="yes"/>
      <point x="81" y="607" smooth="yes"/>
    </contour>
  </outline>
</glyph>
<glyph name="ogonek" format="1">
  <advance width="474"/>
  <unicode hex="02DB"/>
  <outline>
    <contour>
      <point x="252" y="0" type="line" name="hr00"/>
      <point x="194" y="-27" smooth="yes"/>
      <point x="158" y="-75" smooth="yes"/>
      <point x="158" y="-126" type="curve" smooth="yes"/>
      <point x="158" y="-173" smooth="yes"/>
      <point x="194" y="-207" smooth="yes"/>
      <point x="244" y="-207" type="curve" smooth="yes"/>
      <point x="275" y="-207"/>
      <point x="316" y="-188"/>
      <point x="332" y="-167" type="curve"/>
      <point x="306" y="-133" type="line"/>
      <point x="294" y="-145" smooth="yes"/>
      <point x="271" y="-155" smooth="yes"/>
      <point x="255" y="-155" type="curve" smooth="yes"/>
      <point x="233" y="-155" smooth="yes"/>
      <point x="219" y="-139" smooth="yes"/>
      <point x="219" y="-116" type="curve" smooth="yes"/>
      <point x="219" y="-77"/>
      <point x="251" y="-35"/>
      <point x="308" y="0" type="curve"/>
    </contour>
  </outline>
</glyph>
<glyph name="tilde" format="1">
  <advance width="417"/>
  <unicode hex="02DC"/>
  <outline>
    <contour>
      <point x="320" y="706" type="line"/>
      <point x="315" y="676" smooth="yes"/>
      <point x="300" y="662" smooth="yes"/>
      <point x="273" y="662" type="curve" smooth="yes"/>
      <point x="232" y="662" smooth="yes"/>
      <point x="186" y="692" smooth="yes"/>
      <point x="137" y="692" type="curve" smooth="yes" name="hr01"/>
      <point x="89" y="692"/>
      <point x="62" y="658"/>
      <point x="50" y="584" type="curve"/>
      <point x="97" y="576" type="line"/>
      <point x="101" y="606" smooth="yes"/>
      <point x="116" y="620" smooth="yes"/>
      <point x="144" y="620" type="curve" smooth="yes"/>
      <point x="185" y="620" smooth="yes"/>
      <point x="227" y="590" smooth="yes"/>
      <point x="276" y="590" type="curve" smooth="yes" name="hr02"/>
      <point x="323" y="590"/>
      <point x="354" y="627"/>
      <point x="367" y="698" type="curve"/>
    </contour>
  </outline>
</glyph>
<glyph name="pi" format="1">
  <advance width="607"/>
  <unicode hex="03C0"/>
  <outline>
    <contour>
      <point x="50" y="500" type="line"/>
      <point x="50" y="426" type="line"/>
      <point x="120" y="426" type="line"/>
      <point x="120" y="0" type="line"/>
      <point x="200" y="0" type="line"/>
      <point x="200" y="426" type="line"/>
      <point x="407" y="426" type="line"/>
      <point x="407" y="109" type="line" smooth="yes"/>
      <point x="407" y="25"/>
      <point x="442" y="-14"/>
      <point x="515" y="-14" type="curve" name="hr01"/>
      <point x="532" y="54" type="line"/>
      <point x="503" y="54" smooth="yes"/>
      <point x="487" y="74" smooth="yes"/>
      <point x="487" y="109" type="curve" smooth="yes"/>
      <point x="487" y="426" type="line"/>
      <point x="557" y="426" type="line"/>
      <point x="557" y="500" type="line"/>
    </contour>
  </outline>
</glyph>
<glyph name="endash" format="1">
  <advance width="624"/>
  <unicode hex="2013"/>
  <outline>
    <contour>
      <point x="574" y="220" type="line" name="hr00"/>
      <point x="574" y="292" type="line"/>
      <point x="50" y="292" type="line"/>
      <point x="50" y="220" type="line"/>
    </contour>
  </outline>
</glyph>
<glyph name="emdash" format="1">
  <advance width="886"/>
  <unicode hex="2014"/>
  <outline>
    <contour>
      <point x="836" y="220" type="line" name="hr00"/>
      <point x="836" y="292" type="line"/>
      <point x="50" y="292" type="line"/>
      <point x="50" y="220" type="line"/>
    </contour>
  </outline>
</glyph>
<glyph name="quoteleft" format="1">
  <advance width="165"/>
  <unicode hex="2018"/>
  <outline>
    <contour>
      <point x="113" y="680" type="line" name="hr00"/>
      <point x="55" y="574" type="line" smooth="yes"/>
      <point x="30" y="527" smooth="yes"/>
      <point x="20" y="504" smooth="yes"/>
      <point x="20" y="491" type="curve" smooth="yes"/>
      <point x="20" y="458"/>
      <point x="45" y="444"/>
      <point x="104" y="444" type="curve"/>
      <point x="145" y="669" type="line"/>
    </contour>
  </outline>
</glyph>
<glyph name="quoteright" format="1">
  <advance width="165"/>
  <unicode hex="2019"/>
  <outline>
    <contour>
      <point x="52" y="444" type="line" name="hr00"/>
      <point x="110" y="550" type="line" smooth="yes"/>
      <point x="135" y="597" smooth="yes"/>
      <point x="145" y="620" smooth="yes"/>
      <point x="145" y="633" type="curve" smooth="yes"/>
      <point x="145" y="666"/>
      <point x="120" y="680"/>
      <point x="61" y="680" type="curve"/>
      <point x="20" y="455" type="line"/>
    </contour>
  </outline>
</glyph>
<glyph name="quotesinglbase" format="1">
  <advance width="165"/>
  <unicode hex="201A"/>
  <outline>
    <contour>
      <point x="52" y="-140" type="line" name="hr00"/>
      <point x="110" y="-34" type="line" smooth="yes"/>
      <point x="135" y="13" smooth="yes"/>
      <point x="145" y="36" smooth="yes"/>
      <point x="145" y="49" type="curve" smooth="yes"/>
      <point x="145" y="82"/>
      <point x="120" y="96"/>
      <point x="61" y="96" type="curve"/>
      <point x="20" y="-129" type="line"/>
    </contour>
  </outline>
</glyph>
<glyph name="quotedblleft" format="1">
  <advance width="295"/>
  <unicode hex="201C"/>
  <outline>
    <contour>
      <point x="243" y="680" type="line" name="hr00"/>
      <point x="185" y="574" type="line" smooth="yes"/>
      <point x="160" y="527" smooth="yes"/>
      <point x="150" y="504" smooth="yes"/>
      <point x="150" y="491" type="curve" smooth="yes"/>
      <point x="150" y="458"/>
      <point x="175" y="444"/>
      <point x="234" y="444" type="curve"/>
      <point x="275" y="669" type="line"/>
    </contour>
    <contour>
      <point x="113" y="680" type="line"/>
      <point x="55" y="574" type="line" smooth="yes"/>
      <point x="30" y="527" smooth="yes"/>
      <point x="20" y="504" smooth="yes"/>
      <point x="20" y="491" type="curve" smooth="yes"/>
      <point x="20" y="458"/>
      <point x="45" y="444"/>
      <point x="104" y="444" type="curve"/>
      <point x="145" y="669" type="line"/>
    </contour>
  </outline>
</glyph>
<glyph name="quotedblright" format="1">
  <advance width="295"/>
  <unicode hex="201D"/>
  <outline>
    <contour>
      <point x="182" y="444" type="line" name="hr00"/>
      <point x="240" y="550" type="line" smooth="yes"/>
      <point x="265" y="597" smooth="yes"/>
      <point x="275" y="620" smooth="yes"/>
      <point x="275" y="633" type="curve" smooth="yes"/>
      <point x="275" y="666"/>
      <point x="250" y="680"/>
      <point x="191" y="680" type="curve"/>
      <point x="150" y="455" type="line"/>
    </contour>
    <contour>
      <point x="52" y="444" type="line"/>
      <point x="110" y="550" type="line" smooth="yes"/>
      <point x="135" y="597" smooth="yes"/>
      <point x="145" y="620" smooth="yes"/>
      <point x="145" y="633" type="curve" smooth="yes"/>
      <point x="145" y="666"/>
      <point x="120" y="680"/>
      <point x="61" y="680" type="curve"/>
      <point x="20" y="455" type="line"/>
    </contour>
  </outline>
</glyph>
<glyph name="quotedblbase" format="1">
  <advance width="295"/>
  <unicode hex="201E"/>
  <outline>
    <contour>
      <point x="182" y="-140" type="line" name="hr00"/>
      <point x="240" y="-34" type="line" smooth="yes"/>
      <point x="265" y="13" smooth="yes"/>
      <point x="275" y="36" smooth="yes"/>
      <point x="275" y="49" type="curve" smooth="yes"/>
      <point x="275" y="82"/>
      <point x="250" y="96"/>
      <point x="191" y="96" type="curve"/>
      <point x="150" y="-129" type="line"/>
    </contour>
    <contour>
      <point x="52" y="-140" type="line"/>
      <point x="110" y="-34" type="line" smooth="yes"/>
      <point x="135" y="13" smooth="yes"/>
      <point x="145" y="36" smooth="yes"/>
      <point x="145" y="49" type="curve" smooth="yes"/>
      <point x="145" y="82"/>
      <point x="120" y="96"/>
      <point x="61" y="96" type="curve"/>
      <point x="20" y="-129" type="line"/>
    </contour>
  </outline>
</glyph>
<glyph name="dagger" format="1">
  <advance width="433"/>
  <unicode hex="2020"/>
  <outline>
    <contour>
      <point x="213" y="484" type="line" name="hr00"/>
      <point x="227" y="484" type="line"/>
      <point x="388" y="448" type="line"/>
      <point x="388" y="533" type="line"/>
      <point x="252" y="533" type="line"/>
      <point x="265" y="680" type="line"/>
      <point x="176" y="680" type="line"/>
      <point x="189" y="533" type="line"/>
      <point x="53" y="533" type="line"/>
      <point x="53" y="448" type="line"/>
    </contour>
    <contour>
      <point x="180" y="-75" type="line"/>
      <point x="180" y="369" type="line"/>
      <point x="213" y="465" type="line"/>
      <point x="227" y="465" type="line"/>
      <point x="261" y="369" type="line"/>
      <point x="261" y="-75" type="line"/>
      <point x="227" y="-227" type="line"/>
      <point x="213" y="-227" type="line"/>
    </contour>
  </outline>
</glyph>
<glyph name="daggerdbl" format="1">
  <advance width="433"/>
  <unicode hex="2021"/>
  <outline>
    <contour>
      <point x="213" y="484" type="line" name="hr00"/>
      <point x="227" y="484" type="line"/>
      <point x="388" y="448" type="line"/>
      <point x="388" y="533" type="line"/>
      <point x="252" y="533" type="line"/>
      <point x="265" y="680" type="line"/>
      <point x="176" y="680" type="line"/>
      <point x="189" y="533" type="line"/>
      <point x="53" y="533" type="line"/>
      <point x="53" y="448" type="line"/>
    </contour>
    <contour>
      <point x="53" y="5" type="line"/>
      <point x="53" y="-80" type="line"/>
      <point x="189" y="-80" type="line"/>
      <point x="176" y="-227" type="line"/>
      <point x="265" y="-227" type="line"/>
      <point x="252" y="-80" type="line"/>
      <point x="388" y="-80" type="line"/>
      <point x="388" y="5" type="line"/>
      <point x="228" y="-31" type="line"/>
      <point x="213" y="-31" type="line"/>
    </contour>
    <contour>
      <point x="261" y="84" type="line"/>
      <point x="227" y="-12" type="line"/>
      <point x="213" y="-12" type="line"/>
      <point x="180" y="84" type="line"/>
      <point x="180" y="369" type="line"/>
      <point x="213" y="465" type="line"/>
      <point x="227" y="465" type="line"/>
      <point x="261" y="369" type="line"/>
    </contour>
  </outline>
</glyph>
<glyph name="bullet" format="1">
  <advance width="254"/>
  <unicode hex="2022"/>
  <outline>
    <contour>
      <point x="30" y="287" type="curve" smooth="yes" name="hr00"/>
      <point x="30" y="228" smooth="yes"/>
      <point x="68" y="190" smooth="yes"/>
      <point x="127" y="190" type="curve" smooth="yes"/>
      <point x="185" y="190" smooth="yes"/>
      <point x="224" y="228" smooth="yes"/>
      <point x="224" y="287" type="curve" smooth="yes"/>
      <point x="224" y="345" smooth="yes"/>
      <point x="185" y="384" smooth="yes"/>
      <point x="127" y="384" type="curve" smooth="yes"/>
      <point x="68" y="384" smooth="yes"/>
      <point x="30" y="346" smooth="yes"/>
    </contour>
  </outline>
</glyph>
<glyph name="ellipsis" format="1">
  <advance width="630"/>
  <unicode hex="2026"/>
  <outline>
    <contour>
      <point x="50" y="41" type="curve" smooth="yes" name="hr00"/>
      <point x="50" y="7" smooth="yes"/>
      <point x="71" y="-14" smooth="yes"/>
      <point x="105" y="-14" type="curve" smooth="yes"/>
      <point x="138" y="-14" smooth="yes"/>
      <point x="160" y="8" smooth="yes"/>
      <point x="160" y="41" type="curve" smooth="yes"/>
      <point x="160" y="74" smooth="yes"/>
      <point x="138" y="96" smooth="yes"/>
      <point x="105" y="96" type="curve" smooth="yes"/>
      <point x="71" y="96" smooth="yes"/>
      <point x="50" y="74" smooth="yes"/>
    </contour>
    <contour>
      <point x="260" y="41" type="curve" smooth="yes"/>
      <point x="260" y="7" smooth="yes"/>
      <point x="281" y="-14" smooth="yes"/>
      <point x="315" y="-14" type="curve" smooth="yes"/>
      <point x="348" y="-14" smooth="yes"/>
      <point x="370" y="8" smooth="yes"/>
      <point x="370" y="41" type="curve" smooth="yes"/>
      <point x="370" y="74" smooth="yes"/>
      <point x="348" y="96" smooth="yes"/>
      <point x="315" y="96" type="curve" smooth="yes"/>
      <point x="281" y="96" smooth="yes"/>
      <point x="260" y="74" smooth="yes"/>
    </contour>
    <contour>
      <point x="470" y="41" type="curve" smooth="yes"/>
      <point x="470" y="7" smooth="yes"/>
      <point x="491" y="-14" smooth="yes"/>
      <point x="525" y="-14" type="curve" smooth="yes"/>
      <point x="558" y="-14" smooth="yes"/>
      <point x="580" y="8" smooth="yes"/>
      <point x="580" y="41" type="curve" smooth="yes"/>
      <point x="580" y="74" smooth="yes"/>
      <point x="558" y="96" smooth="yes"/>
      <point x="525" y="96" type="curve" smooth="yes"/>
      <point x="491" y="96" smooth="yes"/>
      <point x="470" y="74" smooth="yes"/>
    </contour>
  </outline>
</glyph>
<glyph name="guilsinglright" format="1">
  <advance width="218"/>
  <unicode hex="203A"/>
  <outline>
    <contour>
      <point x="188" y="242" type="curve" smooth="yes" name="hr00"/>
      <point x="188" y="227" smooth="yes"/>
      <point x="181" y="211" smooth="yes"/>
      <point x="166" y="194" type="curve" smooth="yes"/>
      <point x="61" y="70" type="line"/>
      <point x="30" y="85" type="line"/>
      <point x="95" y="242" type="line"/>
      <point x="30" y="399" type="line"/>
      <point x="61" y="414" type="line"/>
      <point x="166" y="290" type="line" smooth="yes"/>
      <point x="181" y="272" smooth="yes"/>
      <point x="188" y="257" smooth="yes"/>
    </contour>
  </outline>
</glyph>
<glyph name="fraction" format="1">
  <advance width="260"/>
  <unicode hex="2044"/>
  <outline>
    <contour>
      <point x="-40" y="-85" type="line" name="hr00"/>
      <point x="34" y="-85" type="line"/>
      <point x="300" y="705" type="line"/>
      <point x="226" y="705" type="line"/>
    </contour>
  </outline>
</glyph>
<glyph name="franc" format="1">
  <advance width="460"/>
  <unicode hex="20A3"/>
  <outline>
    <contour>
      <point x="369" y="134" type="line" name="hr00"/>
      <point x="369" y="194" type="line"/>
      <point x="170" y="194" type="line"/>
      <point x="170" y="284" type="line"/>
      <point x="397" y="284" type="line"/>
      <point x="397" y="356" type="line"/>
      <point x="170" y="356" type="line"/>
      <point x="170" y="536" type="line"/>
      <point x="450" y="536" type="line"/>
      <point x="450" y="608" type="line"/>
      <point x="90" y="608" type="line"/>
      <point x="90" y="194" type="line"/>
      <point x="26" y="194" type="line"/>
      <point x="26" y="134" type="line"/>
      <point x="90" y="134" type="line"/>
      <point x="90" y="0" type="line"/>
      <point x="170" y="0" type="line"/>
      <point x="170" y="134" type="line"/>
    </contour>
  </outline>
</glyph>
<glyph name="lira" format="1">
  <advance width="518"/>
  <unicode hex="20A4"/>
  <outline>
    <contour>
      <point x="387" y="178" type="line" name="hr00"/>
      <point x="387" y="238" type="line"/>
      <point x="179" y="238" type="line"/>
      <point x="179" y="333" type="line"/>
      <point x="387" y="333" type="line"/>
      <point x="387" y="393" type="line"/>
      <point x="180" y="393" type="line"/>
      <point x="189" y="511" smooth="yes"/>
      <point x="235" y="571" smooth="yes"/>
      <point x="318" y="571" type="curve" smooth="yes"/>
      <point x="356" y="571"/>
      <point x="389" y="565"/>
      <point x="417" y="552" type="curve"/>
      <point x="448" y="612" type="line"/>
      <point x="413" y="628" smooth="yes"/>
      <point x="373" y="636" smooth="yes"/>
      <point x="326" y="636" type="curve" smooth="yes"/>
      <point x="195" y="636"/>
      <point x="120" y="551"/>
      <point x="109" y="393" type="curve"/>
      <point x="44" y="393" type="line"/>
      <point x="44" y="333" type="line"/>
      <point x="108" y="333" type="line"/>
      <point x="108" y="238" type="line"/>
      <point x="44" y="238" type="line"/>
      <point x="44" y="178" type="line"/>
      <point x="108" y="178" type="line"/>
      <point x="108" y="0" type="line"/>
      <point x="451" y="0" type="line"/>
      <point x="451" y="71" type="line"/>
      <point x="179" y="71" type="line"/>
      <point x="179" y="178" type="line"/>
    </contour>
  </outline>
</glyph>
<glyph name="Euro" format="1">
  <advance width="518"/>
  <unicode hex="20AC"/>
  <outline>
    <contour>
      <point x="367" y="188" type="line" name="hr00"/>
      <point x="367" y="248" type="line"/>
      <point x="172" y="248" type="line"/>
      <point x="170" y="264" smooth="yes"/>
      <point x="170" y="281" smooth="yes"/>
      <point x="170" y="300" type="curve" smooth="yes"/>
      <point x="170" y="315"/>
      <point x="170" y="329"/>
      <point x="171" y="343" type="curve"/>
      <point x="367" y="343" type="line"/>
      <point x="367" y="403" type="line"/>
      <point x="179" y="403" type="line"/>
      <point x="201" y="508" smooth="yes"/>
      <point x="259" y="571" smooth="yes"/>
      <point x="340" y="571" type="curve" smooth="yes"/>
      <point x="390" y="571"/>
      <point x="445" y="555"/>
      <point x="473" y="533" type="curve"/>
      <point x="507" y="589" type="line"/>
      <point x="466" y="617" smooth="yes"/>
      <point x="402" y="636" smooth="yes"/>
      <point x="347" y="636" type="curve" smooth="yes"/>
      <point x="219" y="636"/>
      <point x="129" y="548"/>
      <point x="100" y="403" type="curve"/>
      <point x="24" y="403" type="line"/>
      <point x="24" y="343" type="line"/>
      <point x="92" y="343" type="line"/>
      <point x="91" y="329" smooth="yes"/>
      <point x="91" y="314" smooth="yes"/>
      <point x="91" y="300" type="curve" smooth="yes"/>
      <point x="91" y="282"/>
      <point x="91" y="264"/>
      <point x="93" y="248" type="curve"/>
      <point x="24" y="248" type="line"/>
      <point x="24" y="188" type="line"/>
      <point x="101" y="188" type="line"/>
      <point x="128" y="56" smooth="yes"/>
      <point x="206" y="-16" smooth="yes"/>
      <point x="325" y="-16" type="curve" smooth="yes"/>
      <point x="390" y="-16"/>
      <point x="453" y="0"/>
      <point x="499" y="27" type="curve"/>
      <point x="468" y="87" type="line"/>
      <point x="468" y="87" smooth="yes"/>
      <point x="417" y="55" smooth="yes"/>
      <point x="327" y="55" type="curve" smooth="yes"/>
      <point x="251" y="55"/>
      <point x="202" y="100"/>
      <point x="181" y="188" type="curve"/>
    </contour>
  </outline>
</glyph>
<glyph name="trademark" format="1">
  <advance width="662"/>
  <unicode hex="2122"/>
  <outline>
    <contour>
      <point x="414" y="411" type="line" name="hr00"/>
      <point x="465" y="411" type="line"/>
      <point x="542" y="588" type="line"/>
      <point x="551" y="360" type="line"/>
      <point x="607" y="360" type="line"/>
      <point x="595" y="705" type="line"/>
      <point x="535" y="705" type="line"/>
      <point x="439" y="485" type="line"/>
      <point x="344" y="705" type="line"/>
      <point x="284" y="705" type="line"/>
      <point x="272" y="360" type="line"/>
      <point x="329" y="360" type="line"/>
      <point x="332" y="433"/>
      <point x="333" y="514"/>
      <point x="335" y="589" type="curve"/>
    </contour>
    <contour>
      <point x="248" y="655" type="line"/>
      <point x="248" y="705" type="line"/>
      <point x="8" y="705" type="line"/>
      <point x="8" y="655" type="line"/>
      <point x="100" y="655" type="line"/>
      <point x="100" y="360" type="line"/>
      <point x="156" y="360" type="line"/>
      <point x="156" y="655" type="line"/>
    </contour>
  </outline>
</glyph>
<glyph name="Omega" format="1">
  <advance width="810"/>
  <unicode hex="2126"/>
  <outline>
    <contour>
      <point x="712" y="398" type="curve" smooth="yes" name="hr00"/>
      <point x="712" y="585" smooth="yes"/>
      <point x="597" y="696" smooth="yes"/>
      <point x="404" y="696" type="curve" smooth="yes"/>
      <point x="212" y="696" smooth="yes"/>
      <point x="98" y="585" smooth="yes"/>
      <point x="98" y="398" type="curve" smooth="yes"/>
      <point x="98" y="302"/>
      <point x="142" y="220"/>
      <point x="224" y="164" type="curve"/>
      <point x="224" y="72" type="line"/>
      <point x="90" y="72" type="line"/>
      <point x="90" y="0" type="line"/>
      <point x="298" y="0" type="line"/>
      <point x="298" y="186" type="line"/>
      <point x="225" y="221" smooth="yes"/>
      <point x="178" y="304" smooth="yes"/>
      <point x="178" y="398" type="curve" smooth="yes"/>
      <point x="178" y="539" smooth="yes"/>
      <point x="262" y="623" smooth="yes"/>
      <point x="404" y="623" type="curve" smooth="yes"/>
      <point x="546" y="623" smooth="yes"/>
      <point x="632" y="538" smooth="yes"/>
      <point x="632" y="398" type="curve" smooth="yes"/>
      <point x="632" y="304"/>
      <point x="585" y="221"/>
      <point x="512" y="186" type="curve"/>
      <point x="512" y="0" type="line"/>
      <point x="710" y="0" type="line"/>
      <point x="710" y="72" type="line"/>
      <point x="586" y="72" type="line"/>
      <point x="586" y="164" type="line"/>
      <point x="668" y="220" smooth="yes"/>
      <point x="712" y="302" smooth="yes"/>
    </contour>
  </outline>
</glyph>
<glyph name="partialdiff" format="1">
  <advance width="541"/>
  <unicode hex="2202"/>
  <outline>
    <contour>
      <point x="287" y="474" type="curve" smooth="yes" name="hr00"/>
      <point x="160" y="474" smooth="yes"/>
      <point x="57" y="362" smooth="yes"/>
      <point x="57" y="225" type="curve" smooth="yes"/>
      <point x="57" y="80" smooth="yes"/>
      <point x="140" y="-14" smooth="yes"/>
      <point x="268" y="-14" type="curve" smooth="yes"/>
      <point x="400" y="-14" smooth="yes"/>
      <point x="489" y="109" smooth="yes"/>
      <point x="489" y="291" type="curve" smooth="yes"/>
      <point x="489" y="522"/>
      <point x="361" y="674"/>
      <point x="128" y="720" type="curve"/>
      <point x="111" y="662" type="line"/>
      <point x="251" y="640"/>
      <point x="347" y="565"/>
      <point x="390" y="449" type="curve"/>
      <point x="363" y="464" smooth="yes"/>
      <point x="326" y="474" smooth="yes"/>
    </contour>
    <contour>
      <point x="417" y="291" type="curve" smooth="yes"/>
      <point x="417" y="143" smooth="yes"/>
      <point x="360" y="52" smooth="yes"/>
      <point x="268" y="52" type="curve" smooth="yes"/>
      <point x="185" y="52" smooth="yes"/>
      <point x="133" y="117" smooth="yes"/>
      <point x="133" y="220" type="curve" smooth="yes"/>
      <point x="133" y="326" smooth="yes"/>
      <point x="206" y="408" smooth="yes"/>
      <point x="301" y="408" type="curve" smooth="yes"/>
      <point x="339" y="408"/>
      <point x="380" y="393"/>
      <point x="411" y="369" type="curve"/>
      <point x="415" y="344" smooth="yes"/>
      <point x="417" y="318" smooth="yes"/>
    </contour>
  </outline>
</glyph>
<glyph name="Delta" format="1">
  <advance width="556"/>
  <unicode hex="2206"/>
  <outline>
    <contour>
      <point x="327" y="700" type="line" name="hr00"/>
      <point x="229" y="700" type="line"/>
      <point x="0" y="0" type="line"/>
      <point x="556" y="0" type="line"/>
    </contour>
    <contour>
      <point x="278" y="609" type="line"/>
      <point x="450" y="72" type="line"/>
      <point x="106" y="72" type="line"/>
    </contour>
  </outline>
</glyph>
<glyph name="product" format="1">
  <advance width="674"/>
  <unicode hex="220F"/>
  <outline>
    <contour>
      <point x="624" y="626" type="line" name="hr00"/>
      <point x="624" y="700" type="line"/>
      <point x="50" y="700" type="line"/>
      <point x="50" y="626" type="line"/>
      <point x="120" y="626" type="line"/>
      <point x="120" y="-150" type="line"/>
      <point x="200" y="-150" type="line"/>
      <point x="200" y="626" type="line"/>
      <point x="474" y="626" type="line"/>
      <point x="474" y="-150" type="line"/>
      <point x="554" y="-150" type="line"/>
      <point x="554" y="626" type="line"/>
    </contour>
  </outline>
</glyph>
<glyph name="summation" format="1">
  <advance width="554"/>
  <unicode hex="2211"/>
  <outline>
    <contour>
      <point x="524" y="626" type="line" name="hr00"/>
      <point x="524" y="700" type="line"/>
      <point x="50" y="700" type="line"/>
      <point x="50" y="626" type="line"/>
      <point x="250" y="275" type="line"/>
      <point x="50" y="-76" type="line"/>
      <point x="50" y="-150" type="line"/>
      <point x="524" y="-150" type="line"/>
      <point x="524" y="-76" type="line"/>
      <point x="140" y="-76" type="line"/>
      <point x="340" y="275" type="line"/>
      <point x="140" y="626" type="line"/>
    </contour>
  </outline>
</glyph>
<glyph name="minus" format="1">
  <advance width="518"/>
  <unicode hex="2212"/>
  <outline>
    <contour>
      <point x="47" y="275" type="line" name="hr00"/>
      <point x="471" y="275" type="line"/>
      <point x="471" y="347" type="line"/>
      <point x="47" y="347" type="line"/>
    </contour>
  </outline>
</glyph>
<glyph name="radical" format="1">
  <advance width="507"/>
  <unicode hex="221A"/>
  <outline>
    <contour>
      <point x="607" y="659" type="line" name="hr00"/>
      <point x="607" y="730" type="line"/>
      <point x="423" y="730" type="line"/>
      <point x="215" y="-84" type="line"/>
      <point x="113" y="230" type="line"/>
      <point x="50" y="230" type="line"/>
      <point x="179" y="-150" type="line"/>
      <point x="277" y="-150" type="line"/>
      <point x="487" y="659" type="line"/>
    </contour>
  </outline>
</glyph>
<glyph name="infinity" format="1">
  <advance width="734"/>
  <unicode hex="221E"/>
  <outline>
    <contour>
      <point x="532" y="145" type="curve" smooth="yes" name="hr00"/>
      <point x="630" y="145" smooth="yes"/>
      <point x="684" y="204" smooth="yes"/>
      <point x="684" y="310" type="curve" smooth="yes"/>
      <point x="684" y="416" smooth="yes"/>
      <point x="630" y="475" smooth="yes"/>
      <point x="532" y="475" type="curve" smooth="yes"/>
      <point x="454" y="475"/>
      <point x="408" y="425"/>
      <point x="368" y="369" type="curve"/>
      <point x="329" y="425" smooth="yes"/>
      <point x="281" y="475" smooth="yes"/>
      <point x="202" y="475" type="curve" smooth="yes"/>
      <point x="104" y="475" smooth="yes"/>
      <point x="50" y="417" smooth="yes"/>
      <point x="50" y="310" type="curve" smooth="yes"/>
      <point x="50" y="204" smooth="yes"/>
      <point x="104" y="145" smooth="yes"/>
      <point x="202" y="145" type="curve" smooth="yes"/>
      <point x="282" y="145"/>
      <point x="330" y="199"/>
      <point x="370" y="258" type="curve"/>
      <point x="413" y="199" smooth="yes"/>
      <point x="461" y="145" smooth="yes"/>
    </contour>
    <contour>
      <point x="200" y="210" type="curve" smooth="yes"/>
      <point x="147" y="210" smooth="yes"/>
      <point x="121" y="243" smooth="yes"/>
      <point x="121" y="310" type="curve" smooth="yes"/>
      <point x="121" y="378" smooth="yes"/>
      <point x="146" y="410" smooth="yes"/>
      <point x="197" y="410" type="curve" smooth="yes"/>
      <point x="253" y="410"/>
      <point x="293" y="366"/>
      <point x="331" y="313" type="curve"/>
      <point x="295" y="258" smooth="yes"/>
      <point x="258" y="210" smooth="yes"/>
    </contour>
    <contour>
      <point x="534" y="410" type="curve" smooth="yes"/>
      <point x="587" y="410" smooth="yes"/>
      <point x="613" y="377" smooth="yes"/>
      <point x="613" y="310" type="curve" smooth="yes"/>
      <point x="613" y="242" smooth="yes"/>
      <point x="589" y="210" smooth="yes"/>
      <point x="537" y="210" type="curve" smooth="yes"/>
      <point x="479" y="210"/>
      <point x="443" y="257"/>
      <point x="407" y="312" type="curve"/>
      <point x="442" y="365" smooth="yes"/>
      <point x="478" y="410" smooth="yes"/>
    </contour>
  </outline>
</glyph>
<glyph name="integral" format="1">
  <advance width="420"/>
  <unicode hex="222B"/>
  <outline>
    <contour>
      <point x="170" y="-6" type="line" name="hr00"/>
      <point x="166" y="-67" smooth="yes"/>
      <point x="147" y="-94" smooth="yes"/>
      <point x="109" y="-94" type="curve" smooth="yes"/>
      <point x="90" y="-94"/>
      <point x="68" y="-88"/>
      <point x="30" y="-71" type="curve"/>
      <point x="0" y="-125" type="line"/>
      <point x="40" y="-151" smooth="yes"/>
      <point x="83" y="-165" smooth="yes"/>
      <point x="119" y="-165" type="curve" smooth="yes"/>
      <point x="203" y="-165" smooth="yes"/>
      <point x="250" y="-106" smooth="yes"/>
      <point x="250" y="-2" type="curve" smooth="yes"/>
      <point x="250" y="556" type="line" smooth="yes"/>
      <point x="250" y="615" smooth="yes"/>
      <point x="270" y="644" smooth="yes"/>
      <point x="311" y="644" type="curve" smooth="yes"/>
      <point x="330" y="644"/>
      <point x="351" y="638"/>
      <point x="390" y="621" type="curve"/>
      <point x="420" y="675" type="line"/>
      <point x="380" y="701" smooth="yes"/>
      <point x="337" y="715" smooth="yes"/>
      <point x="301" y="715" type="curve" smooth="yes"/>
      <point x="217" y="715" smooth="yes"/>
      <point x="170" y="656" smooth="yes"/>
      <point x="170" y="552" type="curve" smooth="yes"/>
    </contour>
  </outline>
</glyph>
<glyph name="approxequal" format="1">
  <advance width="518"/>
  <unicode hex="2248"/>
  <outline>
    <contour>
      <point x="471" y="437" type="line"/>
      <point x="443" y="413" smooth="yes"/>
      <point x="412" y="401" smooth="yes"/>
      <point x="378" y="401" type="curve" smooth="yes"/>
      <point x="295" y="401" smooth="yes"/>
      <point x="217" y="471" smooth="yes"/>
      <point x="138" y="471" type="curve" smooth="yes" name="hr01"/>
      <point x="105" y="471"/>
      <point x="75" y="460"/>
      <point x="47" y="437" type="curve"/>
      <point x="47" y="361" type="line"/>
      <point x="75" y="384" smooth="yes"/>
      <point x="105" y="395" smooth="yes"/>
      <point x="138" y="395" type="curve" smooth="yes"/>
      <point x="216" y="395" smooth="yes"/>
      <point x="293" y="325" smooth="yes"/>
      <point x="378" y="325" type="curve" smooth="yes" name="hr02"/>
      <point x="412" y="325"/>
      <point x="443" y="337"/>
      <point x="471" y="361" type="curve"/>
    </contour>
    <contour>
      <point x="47" y="185" type="line"/>
      <point x="75" y="208" smooth="yes"/>
      <point x="105" y="219" smooth="yes"/>
      <point x="138" y="219" type="curve" smooth="yes"/>
      <point x="216" y="219" smooth="yes"/>
      <point x="293" y="149" smooth="yes"/>
      <point x="378" y="149" type="curve" smooth="yes" name="hr03"/>
      <point x="412" y="149"/>
      <point x="443" y="161"/>
      <point x="471" y="185" type="curve"/>
      <point x="471" y="261" type="line"/>
      <point x="443" y="237" smooth="yes"/>
      <point x="412" y="225" smooth="yes"/>
      <point x="378" y="225" type="curve" smooth="yes"/>
      <point x="295" y="225" smooth="yes"/>
      <point x="217" y="295" smooth="yes"/>
      <point x="138" y="295" type="curve" smooth="yes" name="hr04"/>
      <point x="105" y="295"/>
      <point x="75" y="284"/>
      <point x="47" y="261" type="curve"/>
    </contour>
  </outline>
</glyph>
<glyph name="lozenge" format="1">
  <advance width="556"/>
  <unicode hex="25CA"/>
  <outline>
    <contour>
      <point x="327" y="700" type="line" name="hr00"/>
      <point x="229" y="700" type="line"/>
      <point x="40" y="275" type="line"/>
      <point x="229" y="-150" type="line"/>
      <point x="327" y="-150" type="line"/>
      <point x="516" y="275" type="line"/>
    </contour>
    <contour>
      <point x="123" y="275" type="line"/>
      <point x="278" y="633" type="line"/>
      <point x="433" y="275" type="line"/>
      <point x="278" y="-83" type="line"/>
    </contour>
  </outline>
</glyph>
<glyph name="fi" format="1">
  <advance width="529"/>
  <unicode hex="FB01"/>
  <outline>
    <contour>
      <point x="207" y="435" type="line" name="hr00"/>
      <point x="403" y="435" type="line"/>
      <point x="403" y="500" type="line"/>
      <point x="207" y="500" type="line"/>
    </contour>
    <component  base="f"/>
    <component  base="dotlessi" xOffset="278"/>
  </outline>
</glyph>
<glyph name="acute.case" format="1">
  <advance width="210"/>
  <outline>
    <contour>
      <point x="41" y="740" type="line" name="hr00"/>
      <point x="65" y="715" type="line"/>
      <point x="245" y="862" type="line"/>
      <point x="233" y="896" smooth="yes"/>
      <point x="216" y="915" smooth="yes"/>
      <point x="195" y="915" type="curve" smooth="yes"/>
      <point x="176" y="915" smooth="yes"/>
      <point x="161" y="905" smooth="yes"/>
      <point x="143" y="880" type="curve" smooth="yes"/>
    </contour>
  </outline>
</glyph>
<glyph name="breve.case" format="1">
  <advance width="304"/>
  <outline>
    <contour>
      <point x="30" y="874" type="line" name="hr00"/>
      <point x="30" y="799" smooth="yes"/>
      <point x="78" y="751" smooth="yes"/>
      <point x="152" y="751" type="curve" smooth="yes"/>
      <point x="225" y="751"/>
      <point x="274" y="800"/>
      <point x="274" y="874" type="curve"/>
      <point x="212" y="874" type="line"/>
      <point x="212" y="837" smooth="yes"/>
      <point x="187" y="812" smooth="yes"/>
      <point x="152" y="812" type="curve" smooth="yes"/>
      <point x="116" y="812"/>
      <point x="92" y="836"/>
      <point x="92" y="874" type="curve"/>
    </contour>
  </outline>
</glyph>
<glyph name="caron.case" format="1">
  <advance width="342"/>
  <outline>
    <contour>
      <point x="215" y="745" type="line" smooth="yes" name="hr00"/>
      <point x="200" y="724" smooth="yes"/>
      <point x="189" y="717" smooth="yes"/>
      <point x="171" y="717" type="curve" smooth="yes"/>
      <point x="152" y="717" smooth="yes"/>
      <point x="141" y="725" smooth="yes"/>
      <point x="127" y="745" type="curve" smooth="yes"/>
      <point x="30" y="882" type="line"/>
      <point x="54" y="907" type="line"/>
      <point x="171" y="800" type="line"/>
      <point x="288" y="907" type="line"/>
      <point x="312" y="882" type="line"/>
    </contour>
  </outline>
</glyph>
<glyph name="caron.salt" format="1">
  <advance width="91"/>
  <outline>
    <contour>
      <point x="33" y="542" type="line" name="hr00"/>
      <point x="71" y="657" type="line" smooth="yes"/>
      <point x="86" y="703" smooth="yes"/>
      <point x="91" y="725" smooth="yes"/>
      <point x="91" y="740" type="curve" smooth="yes"/>
      <point x="91" y="766" smooth="yes"/>
      <point x="76" y="780" smooth="yes"/>
      <point x="44" y="780" type="curve" smooth="yes"/>
      <point x="28" y="780"/>
      <point x="12" y="777"/>
      <point x="0" y="774" type="curve"/>
      <point x="0" y="547" type="line"/>
    </contour>
  </outline>
</glyph>
<glyph name="circumflex.case" format="1">
  <advance width="342"/>
  <outline>
    <contour>
      <point x="312" y="742" type="line" name="hr00"/>
      <point x="288" y="717" type="line"/>
      <point x="171" y="824" type="line"/>
      <point x="54" y="717" type="line"/>
      <point x="30" y="742" type="line"/>
      <point x="127" y="879" type="line" smooth="yes"/>
      <point x="141" y="899" smooth="yes"/>
      <point x="152" y="907" smooth="yes"/>
      <point x="171" y="907" type="curve" smooth="yes"/>
      <point x="189" y="907" smooth="yes"/>
      <point x="200" y="900" smooth="yes"/>
      <point x="215" y="879" type="curve" smooth="yes"/>
    </contour>
  </outline>
</glyph>
<glyph name="commaaccent" format="1">
  <advance width="250"/>
  <outline>
    <contour>
      <point x="68" y="-255" type="line"/>
      <point x="101" y="-265" type="line"/>
      <point x="188" y="-83" type="line"/>
      <point x="179" y="-70" smooth="yes"/>
      <point x="157" y="-60" smooth="yes"/>
      <point x="136" y="-60" type="curve" smooth="yes"/>
      <point x="101" y="-60" smooth="yes"/>
      <point x="79" y="-79" smooth="yes"/>
      <point x="77" y="-115" type="curve" smooth="yes"/>
    </contour>
  </outline>
</glyph>
<glyph name="commaaccent.salt" format="1">
  <advance width="176"/>
  <outline>
    <contour>
      <point x="144" y="781" type="line" name="hr00"/>
      <point x="111" y="791" type="line"/>
      <point x="24" y="609" type="line"/>
      <point x="33" y="596" smooth="yes"/>
      <point x="55" y="586" smooth="yes"/>
      <point x="76" y="586" type="curve" smooth="yes"/>
      <point x="111" y="586" smooth="yes"/>
      <point x="133" y="605" smooth="yes"/>
      <point x="135" y="641" type="curve" smooth="yes"/>
    </contour>
  </outline>
</glyph>
